<svg width="126" height="45" viewBox="0 0 126 45" fill="none" xmlns="http://www.w3.org/2000/svg">
<path d="M0.575 18L6.975 0.499999H10.575L16.975 18H13.575L12.175 13.95H5.35L3.925 18H0.575ZM6.225 11.45H11.3L8.75 4.175L6.225 11.45ZM24.3934 18.3C23.1267 18.3 22.01 18.025 21.0434 17.475C20.0767 16.925 19.31 16.1583 18.7434 15.175C18.1934 14.1917 17.9184 13.0667 17.9184 11.8C17.9184 10.5333 18.1934 9.40833 18.7434 8.425C19.31 7.44167 20.0767 6.675 21.0434 6.125C22.01 5.575 23.1267 5.3 24.3934 5.3C25.9767 5.3 27.31 5.71667 28.3934 6.55C29.4767 7.36667 30.1684 8.5 30.4684 9.95H27.0934C26.9267 9.35 26.5934 8.88333 26.0934 8.55C25.61 8.2 25.035 8.025 24.3684 8.025C23.485 8.025 22.735 8.35833 22.1184 9.025C21.5017 9.69167 21.1934 10.6167 21.1934 11.8C21.1934 12.9833 21.5017 13.9083 22.1184 14.575C22.735 15.2417 23.485 15.575 24.3684 15.575C25.035 15.575 25.61 15.4083 26.0934 15.075C26.5934 14.7417 26.9267 14.2667 27.0934 13.65H30.4684C30.1684 15.05 29.4767 16.175 28.3934 17.025C27.31 17.875 25.9767 18.3 24.3934 18.3ZM38.4127 18C37.1127 18 36.071 17.6833 35.2877 17.05C34.5044 16.4167 34.1127 15.2917 34.1127 13.675V8.275H31.9877V5.6H34.1127L34.4877 2.275H37.3127V5.6H40.6627V8.275H37.3127V13.7C37.3127 14.3 37.4377 14.7167 37.6877 14.95C37.9544 15.1667 38.4044 15.275 39.0377 15.275H40.5877V18H38.4127ZM47.8102 18.3C46.2602 18.3 45.0602 17.8167 44.2102 16.85C43.3768 15.8833 42.9602 14.4667 42.9602 12.6V5.6H46.1352V12.3C46.1352 13.3667 46.3518 14.1833 46.7852 14.75C47.2185 15.3167 47.9018 15.6 48.8352 15.6C49.7185 15.6 50.4435 15.2833 51.0102 14.65C51.5935 14.0167 51.8852 13.1333 51.8852 12V5.6H55.0852V18H52.2602L52.0102 15.9C51.6268 16.6333 51.0685 17.2167 50.3352 17.65C49.6185 18.0833 48.7768 18.3 47.8102 18.3ZM62.3951 18.3C61.3285 18.3 60.4535 18.1333 59.7701 17.8C59.0868 17.45 58.5785 16.9917 58.2451 16.425C57.9118 15.8583 57.7451 15.2333 57.7451 14.55C57.7451 13.4 58.1951 12.4667 59.0951 11.75C59.9951 11.0333 61.3451 10.675 63.1451 10.675H66.2951V10.375C66.2951 9.525 66.0535 8.9 65.5701 8.5C65.0868 8.1 64.4868 7.9 63.7701 7.9C63.1201 7.9 62.5535 8.05833 62.0701 8.375C61.5868 8.675 61.2868 9.125 61.1701 9.725H58.0451C58.1285 8.825 58.4285 8.04167 58.9451 7.375C59.4785 6.70833 60.1618 6.2 60.9951 5.85C61.8285 5.48333 62.7618 5.3 63.7951 5.3C65.5618 5.3 66.9535 5.74167 67.9701 6.625C68.9868 7.50833 69.4951 8.75833 69.4951 10.375V18H66.7701L66.4701 16C66.1035 16.6667 65.5868 17.2167 64.9201 17.65C64.2701 18.0833 63.4285 18.3 62.3951 18.3ZM63.1201 15.8C64.0368 15.8 64.7451 15.5 65.2451 14.9C65.7618 14.3 66.0868 13.5583 66.2201 12.675H63.4951C62.6451 12.675 62.0368 12.8333 61.6701 13.15C61.3035 13.45 61.1201 13.825 61.1201 14.275C61.1201 14.7583 61.3035 15.1333 61.6701 15.4C62.0368 15.6667 62.5201 15.8 63.1201 15.8ZM72.2988 18V-7.15256e-07H75.4988V18H72.2988ZM86.7936 18.3C85.0436 18.3 83.5102 17.9167 82.1936 17.15C80.8936 16.3833 79.8686 15.325 79.1186 13.975C78.3852 12.6083 78.0186 11.0333 78.0186 9.25C78.0186 7.46667 78.3852 5.9 79.1186 4.55C79.8686 3.18333 80.8936 2.11667 82.1936 1.35C83.5102 0.583333 85.0436 0.2 86.7936 0.2C88.5269 0.2 90.0519 0.583333 91.3686 1.35C92.6852 2.11667 93.7102 3.18333 94.4436 4.55C95.1769 5.9 95.5436 7.46667 95.5436 9.25C95.5436 11.0333 95.1769 12.6083 94.4436 13.975C93.7102 15.325 92.6852 16.3833 91.3686 17.15C90.0519 17.9167 88.5269 18.3 86.7936 18.3ZM86.7936 15.425C88.4602 15.425 89.7852 14.875 90.7686 13.775C91.7686 12.675 92.2686 11.1667 92.2686 9.25C92.2686 7.33333 91.7686 5.825 90.7686 4.725C89.7852 3.625 88.4602 3.075 86.7936 3.075C85.1269 3.075 83.7936 3.625 82.7936 4.725C81.7936 5.825 81.2936 7.33333 81.2936 9.25C81.2936 11.1667 81.7936 12.675 82.7936 13.775C83.7936 14.875 85.1269 15.425 86.7936 15.425ZM98.0439 18V5.6H100.869L101.119 7.7C101.502 6.96667 102.052 6.38333 102.769 5.95C103.502 5.51667 104.361 5.3 105.344 5.3C106.877 5.3 108.069 5.78333 108.919 6.75C109.769 7.71667 110.194 9.13333 110.194 11V18H106.994V11.3C106.994 10.2333 106.777 9.41667 106.344 8.85C105.911 8.28333 105.236 8 104.319 8C103.419 8 102.677 8.31667 102.094 8.95C101.527 9.58333 101.244 10.4667 101.244 11.6V18H98.0439ZM119.029 18.3C117.779 18.3 116.671 18.0333 115.704 17.5C114.737 16.9667 113.979 16.2167 113.429 15.25C112.879 14.2833 112.604 13.1667 112.604 11.9C112.604 10.6167 112.871 9.475 113.404 8.475C113.954 7.475 114.704 6.7 115.654 6.15C116.621 5.58333 117.754 5.3 119.054 5.3C120.271 5.3 121.346 5.56667 122.279 6.1C123.212 6.63333 123.937 7.36667 124.454 8.3C124.987 9.21667 125.254 10.2417 125.254 11.375C125.254 11.5583 125.246 11.75 125.229 11.95C125.229 12.15 125.221 12.3583 125.204 12.575H115.779C115.846 13.5417 116.179 14.3 116.779 14.85C117.396 15.4 118.137 15.675 119.004 15.675C119.654 15.675 120.196 15.5333 120.629 15.25C121.079 14.95 121.412 14.5667 121.629 14.1H124.879C124.646 14.8833 124.254 15.6 123.704 16.25C123.171 16.8833 122.504 17.3833 121.704 17.75C120.921 18.1167 120.029 18.3 119.029 18.3ZM119.054 7.9C118.271 7.9 117.579 8.125 116.979 8.575C116.379 9.00833 115.996 9.675 115.829 10.575H122.004C121.954 9.75833 121.654 9.10833 121.104 8.625C120.554 8.14167 119.871 7.9 119.054 7.9Z" fill="white"/>
<path d="M1.7 44V26.5H8.175C9.575 26.5 10.7333 26.7333 11.65 27.2C12.5667 27.6667 13.25 28.3083 13.7 29.125C14.15 29.9417 14.375 30.8583 14.375 31.875C14.375 32.8417 14.1583 33.7333 13.725 34.55C13.2917 35.35 12.6167 36 11.7 36.5C10.7833 36.9833 9.60833 37.225 8.175 37.225H4.9V44H1.7ZM4.9 34.625H7.975C9.09167 34.625 9.89167 34.3833 10.375 33.9C10.875 33.4 11.125 32.725 11.125 31.875C11.125 31.0083 10.875 30.3333 10.375 29.85C9.89167 29.35 9.09167 29.1 7.975 29.1H4.9V34.625ZM16.5605 44V31.6H19.4105L19.7105 33.925C20.1605 33.125 20.7689 32.4917 21.5355 32.025C22.3189 31.5417 23.2355 31.3 24.2855 31.3V34.675H23.3855C22.6855 34.675 22.0605 34.7833 21.5105 35C20.9605 35.2167 20.5272 35.5917 20.2105 36.125C19.9105 36.6583 19.7605 37.4 19.7605 38.35V44H16.5605ZM31.9529 44.3C30.7529 44.3 29.6696 44.025 28.7029 43.475C27.7529 42.925 26.9946 42.1667 26.4279 41.2C25.8779 40.2167 25.6029 39.0833 25.6029 37.8C25.6029 36.5167 25.8863 35.3917 26.4529 34.425C27.0196 33.4417 27.7779 32.675 28.7279 32.125C29.6946 31.575 30.7779 31.3 31.9779 31.3C33.1613 31.3 34.2279 31.575 35.1779 32.125C36.1446 32.675 36.9029 33.4417 37.4529 34.425C38.0196 35.3917 38.3029 36.5167 38.3029 37.8C38.3029 39.0833 38.0196 40.2167 37.4529 41.2C36.9029 42.1667 36.1446 42.925 35.1779 43.475C34.2113 44.025 33.1363 44.3 31.9529 44.3ZM31.9529 41.525C32.7863 41.525 33.5113 41.2167 34.1279 40.6C34.7446 39.9667 35.0529 39.0333 35.0529 37.8C35.0529 36.5667 34.7446 35.6417 34.1279 35.025C33.5113 34.3917 32.7946 34.075 31.9779 34.075C31.1279 34.075 30.3946 34.3917 29.7779 35.025C29.1779 35.6417 28.8779 36.5667 28.8779 37.8C28.8779 39.0333 29.1779 39.9667 29.7779 40.6C30.3946 41.2167 31.1196 41.525 31.9529 41.525ZM45.9508 44C44.6508 44 43.6091 43.6833 42.8258 43.05C42.0424 42.4167 41.6508 41.2917 41.6508 39.675V34.275H39.5258V31.6H41.6508L42.0258 28.275H44.8508V31.6H48.2008V34.275H44.8508V39.7C44.8508 40.3 44.9758 40.7167 45.2258 40.95C45.4924 41.1667 45.9424 41.275 46.5758 41.275H48.1258V44H45.9508ZM56.3309 44.3C55.1309 44.3 54.0475 44.025 53.0809 43.475C52.1309 42.925 51.3725 42.1667 50.8059 41.2C50.2559 40.2167 49.9809 39.0833 49.9809 37.8C49.9809 36.5167 50.2642 35.3917 50.8309 34.425C51.3975 33.4417 52.1559 32.675 53.1059 32.125C54.0725 31.575 55.1559 31.3 56.3559 31.3C57.5392 31.3 58.6059 31.575 59.5559 32.125C60.5225 32.675 61.2809 33.4417 61.8309 34.425C62.3975 35.3917 62.6809 36.5167 62.6809 37.8C62.6809 39.0833 62.3975 40.2167 61.8309 41.2C61.2809 42.1667 60.5225 42.925 59.5559 43.475C58.5892 44.025 57.5142 44.3 56.3309 44.3ZM56.3309 41.525C57.1642 41.525 57.8892 41.2167 58.5059 40.6C59.1225 39.9667 59.4309 39.0333 59.4309 37.8C59.4309 36.5667 59.1225 35.6417 58.5059 35.025C57.8892 34.3917 57.1725 34.075 56.3559 34.075C55.5059 34.075 54.7725 34.3917 54.1559 35.025C53.5559 35.6417 53.2559 36.5667 53.2559 37.8C53.2559 39.0333 53.5559 39.9667 54.1559 40.6C54.7725 41.2167 55.4975 41.525 56.3309 41.525ZM71.367 44.3C70.1003 44.3 68.9837 44.025 68.017 43.475C67.0503 42.925 66.2837 42.1583 65.717 41.175C65.167 40.1917 64.892 39.0667 64.892 37.8C64.892 36.5333 65.167 35.4083 65.717 34.425C66.2837 33.4417 67.0503 32.675 68.017 32.125C68.9837 31.575 70.1003 31.3 71.367 31.3C72.9503 31.3 74.2837 31.7167 75.367 32.55C76.4503 33.3667 77.142 34.5 77.442 35.95H74.067C73.9003 35.35 73.567 34.8833 73.067 34.55C72.5837 34.2 72.0087 34.025 71.342 34.025C70.4587 34.025 69.7087 34.3583 69.092 35.025C68.4753 35.6917 68.167 36.6167 68.167 37.8C68.167 38.9833 68.4753 39.9083 69.092 40.575C69.7087 41.2417 70.4587 41.575 71.342 41.575C72.0087 41.575 72.5837 41.4083 73.067 41.075C73.567 40.7417 73.9003 40.2667 74.067 39.65H77.442C77.142 41.05 76.4503 42.175 75.367 43.025C74.2837 43.875 72.9503 44.3 71.367 44.3ZM85.9822 44.3C84.7822 44.3 83.6989 44.025 82.7322 43.475C81.7822 42.925 81.0239 42.1667 80.4572 41.2C79.9072 40.2167 79.6322 39.0833 79.6322 37.8C79.6322 36.5167 79.9156 35.3917 80.4822 34.425C81.0489 33.4417 81.8072 32.675 82.7572 32.125C83.7239 31.575 84.8072 31.3 86.0072 31.3C87.1906 31.3 88.2572 31.575 89.2072 32.125C90.1739 32.675 90.9322 33.4417 91.4822 34.425C92.0489 35.3917 92.3322 36.5167 92.3322 37.8C92.3322 39.0833 92.0489 40.2167 91.4822 41.2C90.9322 42.1667 90.1739 42.925 89.2072 43.475C88.2406 44.025 87.1656 44.3 85.9822 44.3ZM85.9822 41.525C86.8156 41.525 87.5406 41.2167 88.1572 40.6C88.7739 39.9667 89.0822 39.0333 89.0822 37.8C89.0822 36.5667 88.7739 35.6417 88.1572 35.025C87.5406 34.3917 86.8239 34.075 86.0072 34.075C85.1572 34.075 84.4239 34.3917 83.8072 35.025C83.2072 35.6417 82.9072 36.5667 82.9072 37.8C82.9072 39.0333 83.2072 39.9667 83.8072 40.6C84.4239 41.2167 85.1489 41.525 85.9822 41.525ZM94.9434 44V26H98.1434V44H94.9434Z" fill="#B979FD"/>
</svg>
