<svg width="100" height="100" viewBox="0 0 100 100" fill="none" xmlns="http://www.w3.org/2000/svg">
<path fill-rule="evenodd" clip-rule="evenodd" d="M93.75 18.75C93.75 11.8438 88.1562 6.25 81.25 6.25H18.75C11.8438 6.25 6.25 11.8438 6.25 18.75V81.25C6.25 88.1562 11.8438 93.75 18.75 93.75H81.25C88.1562 93.75 93.75 88.1562 93.75 81.25V18.75Z" fill="#7604FD"/>
<path fill-rule="evenodd" clip-rule="evenodd" d="M66.5781 63.7811C66.4374 63.6249 66.2031 63.5936 66.0156 63.6874C61.2499 66.1405 56.3281 66.9061 51.5312 66.9061C46.7343 66.9061 41.9218 66.1561 37.1562 63.6874C36.9687 63.5936 36.7343 63.6249 36.5937 63.7811C36.4843 63.8905 36.3593 64.0311 36.2343 64.1718C36.1249 64.2811 36.0781 64.4374 36.1093 64.578C36.1406 64.7187 36.2343 64.8436 36.3749 64.9218C37.2499 65.3436 38.9218 66.1405 39.8906 66.6093C40.0781 66.703 40.2343 66.8749 40.2812 67.078C40.3437 67.2811 40.3124 67.4999 40.1874 67.6874C39.5468 68.703 38.4062 70.5311 37.8749 71.3749C37.7031 71.6405 37.3749 71.7811 37.0624 71.703C32.2031 70.5468 27.3749 68.3124 22.9218 64.6874C22.7031 64.5155 22.5781 64.2499 22.5781 63.9843C22.1562 51.4843 24.6874 40.6874 31.1562 31.8905C31.2343 31.7811 31.3593 31.6874 31.4843 31.6561C35.2812 30.3593 39.0312 29.078 42.8906 28.1718C43.1249 28.1249 43.3749 28.1874 43.5312 28.3593C44.2031 29.1093 44.6562 30.1561 45.1562 31.1405C45.1562 31.1405 48.5937 30.7655 51.5468 30.703H51.6249C54.5781 30.7655 58.0156 31.1405 58.0156 31.1405C58.4999 30.1561 58.953 29.1093 59.6405 28.3593C59.8124 28.1874 60.0468 28.1093 60.2968 28.1718C64.1406 29.078 67.9062 30.3593 71.703 31.6561C71.8437 31.703 71.953 31.7811 72.0312 31.8905C78.4999 40.6874 81.0312 51.4843 80.6093 63.9843C80.6093 64.2655 80.4687 64.5155 80.2656 64.6874C75.8124 68.328 70.9687 70.5468 66.1093 71.703C65.7968 71.7811 65.4687 71.6405 65.2968 71.3749C64.7656 70.5311 63.6249 68.703 62.9843 67.6874C62.8749 67.4999 62.8437 67.2811 62.9062 67.078C62.9687 66.8749 63.1093 66.703 63.2968 66.6093C64.2655 66.1405 65.9374 65.3436 66.8124 64.9218C66.953 64.8593 67.0468 64.7343 67.0781 64.578C67.1093 64.4218 67.0624 64.2811 66.953 64.1718C66.828 64.0468 66.6874 63.9061 66.5781 63.7811ZM61.2968 46.5311C64.1406 46.5311 66.453 49.0936 66.453 52.2499C66.453 55.4061 64.1406 57.9686 61.2968 57.9686C58.4531 57.9686 56.1406 55.4061 56.1406 52.2499C56.1406 49.0936 58.4531 46.5311 61.2968 46.5311ZM41.8749 46.5311C44.7187 46.5311 47.0312 49.0936 47.0312 52.2499C47.0312 55.4061 44.7187 57.9686 41.8749 57.9686C39.0312 57.9686 36.7187 55.4061 36.7187 52.2499C36.7187 49.0936 39.0312 46.5311 41.8749 46.5311Z" fill="white"/>
</svg>
