<svg width="90" height="90" viewBox="0 0 90 90" fill="none" xmlns="http://www.w3.org/2000/svg">
<g clip-path="url(#clip0_602_79)">
<path d="M45 90C69.8528 90 90 69.8528 90 45C90 20.1472 69.8528 0 45 0C20.1472 0 0 20.1472 0 45C0 69.8528 20.1472 90 45 90Z" fill="#7400EF"/>
<path d="M20.5915 44.0248L63.979 27.2961C65.9928 26.5686 67.7515 27.7873 67.099 30.8323L67.1027 30.8286L59.7152 65.6323C59.1677 68.0998 57.7015 68.6998 55.6502 67.5373L44.4002 59.2461L38.974 64.4736C38.374 65.0736 37.8678 65.5798 36.7052 65.5798L37.504 54.1311L58.354 35.2948C59.2615 34.4961 58.1515 34.0461 56.9552 34.8411L31.189 51.0635L20.0815 47.5985C17.6703 46.8335 17.6178 45.1873 20.5915 44.0248Z" fill="white"/>
</g>
<defs>
<clipPath id="clip0_602_79">
<rect width="90" height="90" fill="white"/>
</clipPath>
</defs>
</svg>
