<svg width="80" height="80" viewBox="0 0 80 80" fill="none" xmlns="http://www.w3.org/2000/svg">
<g clip-path="url(#clip0_602_80)">
<mask id="mask0_602_80" style="mask-type:luminance" maskUnits="userSpaceOnUse" x="0" y="0" width="80" height="80">
<path d="M80 0H0V80H80V0Z" fill="white"/>
</mask>
<g mask="url(#mask0_602_80)">
<path d="M70.625 0H9.375C4.19733 0 0 4.19733 0 9.375V70.625C0 75.8027 4.19733 80 9.375 80H70.625C75.8027 80 80 75.8027 80 70.625V9.375C80 4.19733 75.8027 0 70.625 0Z" fill="#7400EF"/>
<path d="M55.6097 15.625H63.8797L45.8122 36.275L67.0672 64.375H50.4247L37.3897 47.3325L22.4747 64.375H14.1998L33.5247 42.2875L13.1348 15.625H30.1997L41.9822 31.2025L55.6097 15.625ZM52.7072 59.425H57.2897L27.7097 20.315H22.7922L52.7072 59.425Z" fill="white"/>
</g>
</g>
<defs>
<clipPath id="clip0_602_80">
<rect width="80" height="80" fill="white"/>
</clipPath>
</defs>
</svg>
