<svg width="305" height="237" viewBox="0 0 305 237" fill="none" xmlns="http://www.w3.org/2000/svg">
<g clip-path="url(#clip0_401_189)">
<path d="M0.231334 47.6986C-0.121918 48.1231 -0.0641305 48.7536 0.360407 49.1069L7.27864 54.8635C7.70318 55.2167 8.3337 55.1589 8.68695 54.7344C9.0402 54.3098 8.98241 53.6793 8.55788 53.3261L2.40834 48.2091L7.52529 42.0596C7.87855 41.635 7.82076 41.0045 7.39622 40.6513C6.97168 40.298 6.34116 40.3558 5.98791 40.7803L0.231334 47.6986ZM167.122 142.526C167.188 143.074 167.687 143.464 168.235 143.397C168.783 143.331 169.174 142.832 169.107 142.284L167.122 142.526ZM1.0913 49.334C14.5095 48.1042 33.7848 47.9371 48.0894 51.3767C55.2651 53.1021 61.0059 55.6936 64.1955 59.3438C65.7706 61.1465 66.7238 63.2065 66.9351 65.5799C67.1474 67.9652 66.6167 70.7417 65.0953 73.9718L66.9046 74.824C68.5353 71.3618 69.1787 68.2276 68.9272 65.4026C68.6746 62.5658 67.526 60.1159 65.7016 58.0279C62.0919 53.8968 55.8422 51.1839 48.557 49.4321C33.9395 45.9173 14.4107 46.1049 0.908758 47.3424L1.0913 49.334ZM65.0953 73.9718C61.8483 80.8657 58.6404 85.4489 55.7233 88.2657C52.7979 91.0906 50.2557 92.0576 48.3041 91.9588C46.3934 91.8621 44.8071 90.7301 43.7638 88.7847C42.7118 86.8231 42.2464 84.0713 42.6711 80.9619C43.5164 74.7739 47.8802 67.3088 57.7285 62.4382C67.59 57.561 83.0012 55.2688 105.886 59.6222L106.26 57.6575C83.1132 53.2542 67.2218 55.5118 56.8419 60.6454C46.4487 65.7856 41.632 73.7921 40.6895 80.6912C40.2204 84.1254 40.7093 87.321 42.0012 89.73C43.3018 92.1551 45.4491 93.8168 48.203 93.9562C50.9161 94.0936 53.9697 92.7392 57.1126 89.7044C60.2638 86.6616 63.5968 81.8469 66.9046 74.824L65.0953 73.9718ZM105.886 59.6222C136.591 65.4632 150.316 74.7422 157.208 88.0286C160.679 94.7226 162.461 102.514 163.721 111.583C164.989 120.713 165.701 130.855 167.122 142.526L169.107 142.284C167.711 130.819 166.964 120.389 165.702 111.307C164.432 102.165 162.612 94.1055 158.983 87.1078C151.671 73.0104 137.193 63.5419 106.26 57.6575L105.886 59.6222Z" fill="#FFD335"/>
<path d="M117.234 164.416C117.234 164.949 117.278 165.706 117.365 166.687C117.45 167.652 117.702 168.814 118.121 170.173L116.359 171.27L114.956 164.994C114.404 164.965 114.115 164.802 114.089 164.506C114.07 164.289 114.172 164.021 114.394 163.703C114.633 163.384 114.806 163.125 114.914 162.927C115.021 162.714 115.071 162.49 115.066 162.255C115.075 162.003 115.076 161.564 115.067 160.937C115.059 160.311 115.039 159.646 115.008 158.943C114.993 158.238 114.973 157.573 114.949 156.948C114.94 156.321 114.925 155.883 114.903 155.634C115.215 155.262 115.446 155.029 115.594 154.938C115.966 154.701 116.237 154.755 116.409 155.101L116.92 162.467C120.765 162.127 123.054 161.673 123.788 161.106L123.134 153.729C123.204 153.456 123.628 153.285 124.407 153.216C124.578 153.201 124.718 153.196 124.829 153.202C124.855 153.498 124.903 153.948 124.972 154.554C125.056 155.143 125.139 155.818 125.222 156.579C125.321 157.339 125.424 158.145 125.531 158.999C125.636 159.836 125.738 160.635 125.837 161.395C126.024 162.978 126.167 164.142 126.264 164.887C126.538 166.745 127.053 168.221 127.809 169.314C127.134 169.657 126.376 169.865 125.535 169.939C124.662 168.229 124.075 165.936 123.773 163.06C122.743 163.12 122.041 163.167 121.667 163.2C121.294 163.233 120.876 163.293 120.413 163.381C119.454 163.529 118.394 163.874 117.234 164.416ZM134.4 167.884C135.769 167.762 137.776 166.957 140.421 165.468C140.592 165.453 140.738 165.502 140.858 165.617C140.976 165.717 141.042 165.844 141.056 166C140.527 167.113 139.41 168.044 137.703 168.791C135.997 169.538 134.364 169.785 132.804 169.531C131.037 169.232 129.9 168.353 129.394 166.892C129.337 166.599 129.286 166.203 129.242 165.705C129.198 165.207 129.264 164.542 129.442 163.711C129.633 162.863 130.008 162.045 130.566 161.259C131.123 160.472 131.804 159.831 132.607 159.337C133.41 158.842 134.287 158.552 135.236 158.468C136.139 158.388 137.178 158.61 138.354 159.133C138.909 159.382 139.359 159.68 139.703 160.025C140.048 160.371 140.237 160.739 140.272 161.128C140.281 161.237 140.283 161.347 140.277 161.457C140.33 162.409 139.924 163.049 139.059 163.377C138.68 163.52 138.233 163.615 137.719 163.66L134.345 163.818C133.225 163.917 132.39 164.234 131.841 164.769C131.522 165.064 131.316 165.482 131.223 166.024C131.738 167.406 132.796 168.026 134.4 167.884ZM137.916 160.301C137.552 160.083 137.178 159.935 136.795 159.86C136.411 159.784 136.095 159.757 135.846 159.779C135.597 159.801 135.2 159.922 134.655 160.143C134.108 160.349 133.626 160.572 133.208 160.813C132.179 161.406 131.688 161.975 131.736 162.52C132.991 162.518 133.93 162.49 134.552 162.435C136.28 162.282 137.434 162.03 138.015 161.681C138.374 161.492 138.544 161.281 138.523 161.048C138.499 160.768 138.296 160.519 137.916 160.301ZM148.899 177.117C148.637 177.877 148.281 178.277 147.829 178.317C147.611 178.337 147.439 178.25 147.312 178.057C147.202 177.879 147.182 177.653 147.252 177.38C147.466 175.902 147.81 174.209 148.284 172.3C148.774 170.39 149.1 169.107 149.261 168.449C148.668 167.953 147.715 166.939 146.403 165.408C143.709 162.259 142.347 160.521 142.318 160.194C142.316 160.178 142.323 160.162 142.337 160.145L143.146 159.179C144.476 160.207 146.25 161.995 148.468 164.543C149.026 165.184 149.474 165.725 149.811 166.165C150.08 165.483 150.288 164.9 150.433 164.416C150.577 163.917 150.691 163.523 150.775 163.233C150.874 162.926 151.002 162.522 151.162 162.022C151.577 160.683 152.163 158.977 152.92 156.902C153.055 156.827 153.2 156.783 153.355 156.769C153.745 156.734 154.034 156.811 154.223 156.998C154.292 157.07 154.331 157.161 154.341 157.27C154.349 157.363 154.342 157.458 154.319 157.554L148.899 177.117ZM176.636 154.236L174.554 154.373C174.009 154.422 173.384 154.532 172.677 154.704C172.7 155.314 172.707 156.106 172.7 157.079C172.676 160.532 172.71 162.772 172.801 163.799C172.89 164.811 172.969 165.525 173.038 165.943L170.858 166.301L170.56 154.704L165.562 154.864C165.438 154.875 165.328 154.783 165.232 154.587C165.152 154.391 165.104 154.207 165.089 154.035C165.074 153.864 165.127 153.671 165.249 153.456C165.371 153.242 165.526 153.126 165.713 153.11C166.853 153.056 168.004 153.032 169.165 153.039C171.314 153.037 173.136 152.97 174.63 152.837L176.073 152.662C177.206 152.53 178.324 152.306 179.425 151.989C179.678 152.013 179.868 152.389 179.995 153.115C180.025 153.269 180.044 153.393 180.052 153.486C179.051 153.873 177.912 154.123 176.636 154.236ZM193.159 163.996C193.042 164.273 192.688 164.437 192.097 164.49C191.521 164.541 191.214 164.356 191.177 163.936C191.014 162.099 190.864 160.842 190.725 160.164C190.451 158.667 190.084 157.884 189.623 157.815C188.483 157.696 187.555 157.669 186.839 157.732C186.139 157.794 185.575 158.064 185.146 158.541C184.732 159.001 184.445 159.74 184.284 160.758C184.137 161.76 184.089 163.16 184.138 164.959L182.341 165.119C182.293 164.229 182.236 163.403 182.168 162.64C182.101 161.877 182.005 160.976 181.882 159.936C181.757 158.88 181.616 157.732 181.459 156.491C181.254 155.066 181.108 153.863 181.021 152.883C180.933 151.887 180.915 150.971 180.966 150.135C181.096 149.825 181.308 149.657 181.604 149.631C181.962 149.599 182.254 149.707 182.48 149.954C182.704 150.185 182.833 150.401 182.866 150.602L183.091 154.464C183.219 155.912 183.385 156.987 183.589 157.691C184.907 156.633 186.313 156.037 187.807 155.905C188.289 155.862 188.806 155.856 189.358 155.885C190.579 156.389 191.399 156.967 191.818 157.62C192.02 157.963 192.163 158.335 192.246 158.735C192.328 159.136 192.4 159.592 192.461 160.104C192.712 161.871 192.944 163.168 193.159 163.996ZM199.148 162.147C200.517 162.026 202.524 161.221 205.169 159.732C205.34 159.716 205.486 159.766 205.606 159.881C205.724 159.98 205.79 160.108 205.804 160.264C205.275 161.377 204.158 162.307 202.451 163.055C200.745 163.802 199.112 164.049 197.552 163.795C195.785 163.496 194.648 162.617 194.142 161.156C194.085 160.863 194.034 160.467 193.99 159.969C193.946 159.471 194.012 158.806 194.19 157.975C194.381 157.127 194.756 156.309 195.314 155.522C195.871 154.736 196.552 154.095 197.355 153.6C198.158 153.106 199.035 152.816 199.984 152.732C200.887 152.652 201.926 152.874 203.102 153.397C203.657 153.646 204.107 153.943 204.451 154.289C204.796 154.635 204.985 155.003 205.02 155.392C205.029 155.501 205.031 155.611 205.025 155.721C205.078 156.673 204.672 157.313 203.807 157.641C203.428 157.784 202.981 157.878 202.467 157.924L199.093 158.082C197.973 158.181 197.138 158.498 196.589 159.033C196.27 159.328 196.064 159.746 195.971 160.288C196.486 161.67 197.544 162.289 199.148 162.147ZM202.664 154.565C202.3 154.347 201.926 154.199 201.543 154.124C201.159 154.048 200.843 154.021 200.594 154.043C200.345 154.065 199.948 154.186 199.403 154.407C198.856 154.612 198.374 154.836 197.956 155.077C196.927 155.67 196.436 156.239 196.484 156.783C197.739 156.782 198.678 156.754 199.3 156.699C201.028 156.546 202.182 156.294 202.763 155.945C203.122 155.756 203.292 155.545 203.271 155.312C203.246 155.031 203.044 154.783 202.664 154.565ZM218.65 153.479C217.954 153.07 217.093 152.911 216.066 153.002C215.101 153.087 214.222 153.345 213.429 153.776C211.93 154.568 210.939 155.503 210.454 156.581C210.246 157.07 210.166 157.579 210.213 158.108C210.221 158.202 210.244 158.466 210.283 158.902C210.32 159.322 210.449 159.891 210.67 160.609C210.889 161.311 211.031 162.036 211.097 162.783C210.772 162.827 210.511 162.89 210.314 162.97C210.117 163.05 209.949 163.096 209.809 163.109C209.669 163.121 209.539 163.07 209.419 162.955C209.314 162.839 209.184 162.607 209.028 162.26C209.004 162.168 208.949 161.907 208.864 161.475C208.779 161.043 208.669 160.52 208.536 159.904C208.419 159.287 208.281 158.617 208.123 157.893C207.979 157.153 207.836 156.429 207.695 155.72C207.386 154.178 207.152 153.046 206.994 152.323C206.961 151.949 207.217 151.738 207.762 151.69C208.089 151.661 208.358 151.779 208.569 152.042C208.78 152.29 208.955 152.588 209.096 152.937C209.235 153.269 209.335 153.606 209.397 153.945C209.474 154.284 209.534 154.521 209.578 154.659C211.469 152.64 213.941 151.496 216.991 151.225C217.334 151.195 217.692 151.171 218.067 151.154C218.159 151.13 218.275 151.112 218.415 151.099C218.555 151.087 218.704 151.168 218.86 151.342C219.051 151.545 219.16 151.802 219.187 152.113C219.256 152.891 219.077 153.347 218.65 153.479ZM226.228 159.748C227.598 159.627 229.605 158.822 232.249 157.333C232.42 157.317 232.566 157.367 232.686 157.482C232.805 157.581 232.871 157.709 232.885 157.864C232.356 158.978 231.238 159.908 229.532 160.656C227.826 161.403 226.193 161.649 224.633 161.396C222.865 161.097 221.728 160.218 221.223 158.756C221.165 158.464 221.114 158.068 221.07 157.57C221.026 157.072 221.093 156.407 221.27 155.576C221.462 154.727 221.836 153.91 222.394 153.123C222.952 152.337 223.632 151.696 224.436 151.201C225.239 150.707 226.115 150.417 227.064 150.333C227.967 150.253 229.006 150.475 230.182 150.998C230.738 151.247 231.187 151.544 231.532 151.89C231.876 152.236 232.066 152.604 232.1 152.993C232.11 153.102 232.112 153.211 232.106 153.322C232.159 154.274 231.753 154.914 230.888 155.241C230.508 155.385 230.062 155.479 229.548 155.525L226.174 155.683C225.053 155.782 224.218 156.099 223.67 156.634C223.351 156.929 223.145 157.347 223.052 157.889C223.566 159.27 224.625 159.89 226.228 159.748ZM229.745 152.166C229.38 151.948 229.006 151.8 228.623 151.724C228.24 151.649 227.924 151.622 227.675 151.644C227.426 151.666 227.029 151.787 226.483 152.008C225.937 152.213 225.455 152.436 225.037 152.677C224.007 153.271 223.516 153.84 223.565 154.384C224.819 154.383 225.758 154.355 226.381 154.3C228.108 154.146 229.262 153.895 229.843 153.546C230.203 153.357 230.372 153.146 230.352 152.912C230.327 152.632 230.125 152.384 229.745 152.166ZM235.724 158.978C236.378 158.92 236.78 158.947 236.931 159.059C237.098 159.17 237.187 159.295 237.2 159.435C237.084 160.073 236.743 160.479 236.178 160.655C236.086 160.679 235.986 160.696 235.877 160.705C235.768 160.715 235.625 160.696 235.448 160.649C235.287 160.601 235.161 160.502 235.069 160.353C234.864 159.979 235.082 159.521 235.724 158.978ZM235.096 139.41C235.039 139.823 235.216 142.356 235.628 147.01C236.039 151.648 236.159 154.327 235.988 155.048L234.423 155.187C234.281 153.584 234.166 151.571 234.077 149.147C233.879 144.443 233.708 141.274 233.564 139.64L235.096 139.41ZM260.847 185.183L260.562 181.444C260.51 180.852 260.411 180.351 260.265 179.941L256.646 180.261L256.457 178.655L259.958 178.344L259.425 172.321C259.459 172.177 259.54 172.028 259.668 171.876C259.866 171.639 260.036 171.514 260.176 171.502C260.331 171.488 260.465 171.492 260.577 171.513C260.689 171.535 260.815 171.633 260.956 171.809C261.296 172.814 261.558 174.352 261.741 176.422C261.787 176.935 261.855 177.439 261.946 177.933C262.438 177.827 262.933 177.751 263.431 177.707C263.431 177.707 263.836 177.671 264.645 177.6C264.941 177.573 265.212 177.534 265.458 177.481L265.537 179.168L262.12 179.376L262.951 187.42C262.682 187.57 262.446 187.653 262.244 187.671C261.465 187.74 261 186.911 260.847 185.183ZM267.854 182.351C267.691 180.514 268.354 178.965 269.842 177.704C271.025 176.705 272.494 176.034 274.252 175.69C274.346 175.681 274.563 175.662 274.906 175.632C275.248 175.601 275.716 175.662 276.31 175.813C277.625 176.136 278.565 176.829 279.13 177.893C279.355 178.312 279.482 178.677 279.509 178.989C279.535 179.284 279.546 179.495 279.542 179.621C279.714 181.567 279.111 183.165 277.731 184.417C276.453 185.565 274.786 186.231 272.732 186.413C271.253 186.544 270.102 186.3 269.279 185.683C268.471 185.065 267.996 183.954 267.854 182.351ZM269.515 182.768C269.6 183.733 269.915 184.364 270.459 184.661C270.87 184.876 271.535 184.942 272.453 184.861C273.371 184.78 274.174 184.638 274.862 184.436C275.55 184.234 276.151 183.937 276.666 183.546C277.767 182.696 278.248 181.485 278.109 179.913C278.026 178.979 277.709 178.238 277.159 177.691C276.558 177.101 275.813 176.846 274.926 176.924C274.329 177.087 273.724 177.258 273.113 177.438C272.517 177.616 271.962 177.908 271.449 178.314C270.334 179.182 269.689 180.667 269.515 182.768ZM85.3326 236.152L85.0037 236.157C84.5368 236.199 84.0415 236.274 83.5178 236.383L82.6307 236.462C81.6968 236.544 80.9495 236.43 80.3886 236.119C80.0919 235.957 79.927 235.689 79.8939 235.316L85.2407 234.583C86.8864 234.391 87.6327 233.43 87.4796 231.703C87.4741 231.64 87.4645 231.532 87.4507 231.376C87.4383 231.236 87.41 230.917 87.3659 230.419L86.8166 222.891C86.7932 222.626 86.7661 222.409 86.7354 222.239C84.4222 224.813 82.0983 226.203 79.7637 226.41C79.5614 226.428 79.3584 226.438 79.1546 226.44C78.1119 226.533 77.5498 226.12 77.4684 225.201C77.4361 224.483 77.5766 223.678 77.8899 222.788C78.2018 221.882 78.6261 221.005 79.1627 220.157C79.7136 219.293 80.3499 218.507 81.0715 217.8C82.1831 216.713 83.2992 216.12 84.4198 216.021C85.7272 215.905 86.8624 216.503 87.8256 217.813C88.4028 221.495 88.7603 224.115 88.8982 225.671C89.0361 227.228 89.1258 228.506 89.1674 229.506C89.2089 230.506 89.1807 231.427 89.0825 232.267C89 233.105 88.8478 233.778 88.6259 234.284C88.4041 234.789 88.1238 235.167 87.7852 235.417C87.2241 235.812 86.4065 236.057 85.3326 236.152ZM85.1077 217.678C84.9154 217.632 84.6481 217.624 84.3057 217.655C83.9788 217.684 83.5632 217.862 83.0589 218.189C82.5545 218.516 82.0811 218.926 81.6386 219.42C81.1947 219.899 80.7868 220.429 80.4148 221.011C79.5062 222.441 79.087 223.552 79.1573 224.346C79.1794 224.595 79.266 224.776 79.4171 224.888C79.5316 224.94 79.6666 224.96 79.8223 224.946C79.9935 224.931 80.2326 224.886 80.5398 224.812C80.8455 224.722 81.2534 224.545 81.7632 224.28C82.2873 223.998 82.8214 223.653 83.3656 223.244C83.9097 222.835 84.3959 222.392 84.8243 221.914C85.8255 220.822 86.2841 219.801 86.2 218.851C86.1489 218.276 85.7849 217.884 85.1077 217.678ZM95.1231 223.567C96.4927 223.445 98.4998 222.64 101.144 221.151C101.315 221.136 101.461 221.186 101.581 221.301C101.7 221.4 101.766 221.527 101.78 221.683C101.251 222.796 100.133 223.727 98.427 224.474C96.7206 225.221 95.0876 225.468 93.5278 225.214C91.7602 224.916 90.6235 224.036 90.1176 222.575C90.0602 222.282 90.0095 221.886 89.9654 221.388C89.9213 220.89 89.9879 220.226 90.1652 219.394C90.3567 218.546 90.7313 217.728 91.2891 216.942C91.8469 216.155 92.5273 215.514 93.3306 215.02C94.1338 214.525 95.0101 214.236 95.9595 214.152C96.8622 214.072 97.9015 214.293 99.0772 214.817C99.6326 215.065 100.082 215.363 100.427 215.709C100.771 216.055 100.961 216.422 100.995 216.811C101.005 216.92 101.007 217.03 101.001 217.14C101.054 218.092 100.648 218.732 99.7826 219.06C99.4031 219.203 98.9566 219.298 98.443 219.343L95.0687 219.501C93.9481 219.6 93.1135 219.917 92.5648 220.452C92.2458 220.747 92.0397 221.165 91.9466 221.707C92.4611 223.089 93.52 223.709 95.1231 223.567ZM98.6396 215.985C98.2751 215.766 97.9013 215.619 97.5181 215.543C97.1349 215.467 96.8188 215.44 96.5698 215.462C96.3207 215.484 95.9236 215.606 95.3785 215.827C94.832 216.032 94.3498 216.255 93.9319 216.496C92.9021 217.089 92.4114 217.658 92.4596 218.203C93.7144 218.201 94.6531 218.173 95.2756 218.118C97.0032 217.965 98.1574 217.714 98.7382 217.364C99.098 217.175 99.2675 216.964 99.2468 216.731C99.222 216.451 99.0196 216.202 98.6396 215.985ZM107.244 221.881L106.959 218.142C106.907 217.55 106.808 217.049 106.662 216.639L103.043 216.959L102.854 215.353L106.355 215.042L105.822 209.019C105.856 208.875 105.937 208.726 106.065 208.574C106.263 208.337 106.433 208.212 106.573 208.2C106.728 208.186 106.862 208.19 106.974 208.211C107.086 208.233 107.212 208.331 107.353 208.507C107.693 209.512 107.955 211.05 108.138 213.12C108.184 213.633 108.252 214.137 108.343 214.631C108.835 214.525 109.33 214.449 109.828 214.405C109.828 214.405 110.233 214.369 111.042 214.298C111.338 214.271 111.609 214.232 111.855 214.179L111.934 215.866L108.517 216.074L109.348 224.118C109.079 224.268 108.843 224.351 108.641 224.369C107.862 224.438 107.397 223.609 107.244 221.881ZM123.728 213.55C123.623 212.713 123.525 211.968 123.436 211.317C123.346 210.651 123.279 210.163 123.236 209.853C123.207 209.526 123.013 208.751 122.653 207.528C122.777 207.329 122.893 207.138 123.003 206.956C123.128 206.772 123.315 206.669 123.564 206.647C124.108 206.599 124.732 208.857 125.434 213.423C125.826 216.07 126.139 218.725 126.375 221.386C126.439 222.102 125.972 222.504 124.976 222.593L124.787 222.586C124.716 221.776 124.601 220.744 124.442 219.487C124.284 218.23 124.148 217.137 124.034 216.206C123.936 215.273 123.834 214.388 123.728 213.55ZM137.179 217.582C136.174 219.522 134.719 220.796 132.812 221.404C132.369 221.538 131.96 221.621 131.587 221.654C131.229 221.686 130.925 221.713 130.676 221.735C130.441 221.74 130.173 221.724 129.872 221.688C129.571 221.652 129.29 221.575 129.028 221.457C128.423 221.181 128.095 220.748 128.042 220.156C127.955 219.882 127.897 219.573 127.866 219.231C127.834 218.873 127.871 218.399 127.976 217.809C128.08 217.22 128.305 216.572 128.651 215.867C129.011 215.161 129.463 214.501 130.005 213.888C131.129 212.597 132.393 211.716 133.794 211.247C134.206 211.116 134.583 211.036 134.926 211.005C135.284 210.974 135.605 210.969 135.889 210.991C136.792 210.911 137.453 211.472 137.873 212.674C138.145 213.434 138.358 214.513 138.513 215.911C138.683 217.292 138.817 218.363 138.915 219.122C139.028 219.865 139.19 220.541 139.401 221.15L138.023 221.272C137.924 220.857 137.844 220.488 137.784 220.164C137.724 219.84 137.666 219.539 137.61 219.262C137.474 218.615 137.331 218.055 137.179 217.582ZM136.765 213.972C136.685 213.069 136.201 212.657 135.314 212.736C135.204 212.73 135.094 212.732 134.985 212.741C133.849 212.842 132.699 213.493 131.535 214.694C130.988 215.244 130.531 215.85 130.166 216.509C129.622 217.452 129.381 218.273 129.443 218.973C129.525 219.892 130.102 220.389 131.176 220.467C132.574 220.312 133.856 219.555 135.022 218.197C135.518 217.604 135.917 216.972 136.218 216.303C136.641 215.402 136.823 214.625 136.765 213.972ZM144.315 218.597L144.031 214.857C143.979 214.266 143.879 213.765 143.733 213.354L140.115 213.675L139.925 212.068L143.427 211.758L142.894 205.735C142.928 205.591 143.009 205.442 143.136 205.29C143.335 205.053 143.504 204.928 143.644 204.915C143.8 204.902 143.934 204.905 144.045 204.927C144.157 204.948 144.284 205.047 144.425 205.223C144.765 206.228 145.026 207.765 145.21 209.835C145.255 210.349 145.323 210.853 145.414 211.347C145.907 211.24 146.402 211.165 146.9 211.121C146.9 211.121 147.305 211.085 148.114 211.013C148.41 210.987 148.681 210.948 148.927 210.894L149.006 212.581L145.589 212.79L146.419 220.834C146.15 220.983 145.915 221.067 145.712 221.085C144.934 221.154 144.468 220.325 144.315 218.597ZM155.75 218.196C157.12 218.074 159.127 217.269 161.771 215.78C161.942 215.765 162.088 215.815 162.208 215.93C162.327 216.029 162.393 216.156 162.406 216.312C161.878 217.425 160.76 218.356 159.054 219.103C157.347 219.85 155.714 220.097 154.155 219.843C152.387 219.545 151.25 218.665 150.744 217.204C150.687 216.911 150.636 216.515 150.592 216.017C150.548 215.519 150.615 214.855 150.792 214.023C150.984 213.175 151.358 212.357 151.916 211.571C152.474 210.784 153.154 210.143 153.957 209.649C154.761 209.154 155.637 208.865 156.586 208.781C157.489 208.701 158.528 208.922 159.704 209.445C160.259 209.694 160.709 209.992 161.054 210.338C161.398 210.684 161.587 211.051 161.622 211.44C161.632 211.549 161.633 211.659 161.628 211.769C161.681 212.721 161.274 213.361 160.409 213.689C160.03 213.832 159.583 213.927 159.07 213.972L155.696 214.13C154.575 214.229 153.74 214.546 153.192 215.081C152.873 215.376 152.667 215.794 152.573 216.336C153.088 217.718 154.147 218.338 155.75 218.196ZM159.266 210.614C158.902 210.395 158.528 210.248 158.145 210.172C157.762 210.096 157.446 210.069 157.197 210.091C156.948 210.113 156.55 210.235 156.005 210.456C155.459 210.661 154.977 210.884 154.559 211.125C153.529 211.718 153.038 212.287 153.086 212.832C154.341 212.83 155.28 212.802 155.902 212.747C157.63 212.594 158.784 212.343 159.365 211.993C159.725 211.804 159.894 211.593 159.874 211.36C159.849 211.08 159.646 210.831 159.266 210.614ZM171.995 212.333C173.707 212.181 174.601 212.541 174.679 213.413C174.736 214.067 174.329 214.871 173.457 215.827C172.155 217.244 170.34 218.448 168.012 219.439C167.903 219.448 167.769 219.351 167.61 219.145C167.466 218.938 167.35 218.784 167.263 218.682C167.19 218.563 167.136 218.489 167.102 218.461C168.84 217.711 170.247 216.864 171.324 215.922C172.053 215.293 172.401 214.799 172.37 214.441C172.338 214.083 171.863 213.945 170.945 214.026C170.026 214.107 168.699 214.445 166.964 215.038C166.152 215.078 165.426 214.852 164.786 214.36C164.23 213.923 163.93 213.463 163.887 212.981C163.843 212.483 163.943 212.019 164.188 211.589C164.431 211.144 164.77 210.722 165.205 210.323C165.64 209.924 166.156 209.548 166.752 209.198C168.213 208.331 169.76 207.825 171.394 207.68C171.877 207.638 172.348 207.643 172.807 207.696C173.181 207.663 173.413 207.807 173.505 208.129C173.596 208.45 173.674 208.984 173.741 209.731C172.785 209.392 171.731 209.274 170.58 209.376C169.148 209.503 167.99 209.896 167.108 210.554C166.192 211.2 165.759 211.976 165.808 212.881C165.847 213.317 166.185 213.507 166.823 213.45L168.511 213.112C169.946 212.671 171.107 212.412 171.995 212.333ZM180.349 215.405L180.064 211.665C180.012 211.074 179.913 210.573 179.767 210.162L176.148 210.483L175.958 208.876L179.46 208.566L178.927 202.543C178.961 202.398 179.042 202.25 179.17 202.097C179.368 201.86 179.538 201.735 179.678 201.723C179.833 201.709 179.967 201.713 180.079 201.735C180.19 201.756 180.317 201.855 180.458 202.03C180.798 203.036 181.06 204.573 181.243 206.643C181.289 207.157 181.357 207.661 181.447 208.154C181.94 208.048 182.435 207.973 182.933 207.929C182.933 207.929 183.338 207.893 184.147 207.821C184.443 207.795 184.714 207.755 184.96 207.702L185.039 209.389L181.622 209.598L182.453 217.642C182.184 217.791 181.948 217.875 181.745 217.893C180.967 217.962 180.502 217.132 180.349 215.405ZM196.824 213.075C196.801 212.826 196.748 212.485 196.662 212.054C196.591 211.605 196.517 211.117 196.439 210.591C196.361 210.065 196.298 209.529 196.249 208.984C196.201 208.44 196.204 207.937 196.257 207.478C196.37 206.448 196.745 205.905 197.383 205.849C197.83 205.934 198.132 206.065 198.289 206.239C198.461 206.412 198.559 206.639 198.584 206.919C198.607 207.183 198.567 207.524 198.463 207.941C198.069 209.341 197.921 210.585 198.017 211.675C198.049 212.033 198.106 212.412 198.189 212.813C198.53 213.833 199.432 214.279 200.895 214.149C201.658 214.082 202.37 213.885 203.031 213.56C204.296 212.962 205.133 212.315 205.542 211.62C205.618 210.892 205.633 210.263 205.586 209.734C205.538 209.189 205.472 208.708 205.388 208.292C205.32 207.875 205.232 207.42 205.126 206.927C205.034 206.418 204.953 205.86 204.884 205.255C205.078 205.143 205.268 205.079 205.455 205.063C205.657 205.045 205.869 205.128 206.089 205.313C206.325 205.496 206.537 205.861 206.727 206.409C206.932 206.956 207.092 207.608 207.206 208.367C207.319 209.11 207.412 209.886 207.483 210.695C207.571 211.503 207.648 212.288 207.715 213.051C207.782 213.798 207.87 214.441 207.981 214.98C207.809 215.168 207.638 215.27 207.466 215.285C206.844 215.34 206.329 214.758 205.923 213.539C205.736 213.728 205.412 213.969 204.952 214.26C203.974 214.912 202.794 215.393 201.409 215.704C201.148 215.758 200.853 215.8 200.526 215.829C200.199 215.858 199.782 215.832 199.272 215.752C198.779 215.67 198.294 215.423 197.819 215.01C197.343 214.597 197.011 213.952 196.824 213.075ZM211.245 205.491C213.297 204.572 215.094 204.044 216.634 203.908C218.595 203.734 219.948 204.132 220.693 205.101C221.031 205.557 221.226 206.066 221.275 206.626C221.344 207.404 221.166 208.228 220.741 209.097C220.332 209.965 219.752 210.769 219.002 211.51C217.255 213.217 215.052 214.377 212.393 214.989C212.408 215.161 212.432 215.433 212.465 215.807C212.515 216.194 212.561 216.622 212.602 217.089C212.659 217.554 212.711 218.051 212.758 218.581C212.82 219.108 212.881 219.613 212.939 220.094C213.092 221.288 213.184 221.97 213.214 222.14C213.261 222.309 213.289 222.447 213.298 222.556C213.333 222.945 213.234 223.244 213.001 223.453C212.77 223.678 212.452 223.808 212.048 223.843C211.97 223.85 211.892 223.857 211.814 223.864L209.778 205.127C209.9 204.912 210.078 204.802 210.313 204.797C210.548 204.792 210.74 204.838 210.89 204.934C211.04 205.031 211.158 205.216 211.245 205.491ZM218.135 205.704C217.598 205.485 217.033 205.402 216.442 205.454C215.866 205.505 215.295 205.611 214.729 205.771C213.444 206.136 212.527 206.774 211.981 207.685C211.736 208.114 211.64 208.625 211.693 209.216C211.698 209.278 211.704 209.341 211.709 209.403L212.067 213.442C215.21 212.442 217.394 211.244 218.62 209.85C219.333 209.049 219.655 208.26 219.586 207.482C219.513 206.657 219.029 206.064 218.135 205.704ZM233.001 194.105C233.133 195.599 233.216 197.066 233.249 198.506C233.297 199.93 233.343 201.33 233.386 202.706C233.444 204.066 233.541 205.516 233.677 207.057C233.813 208.582 234.065 210.191 234.435 211.884C234.466 212.242 234.419 212.505 234.293 212.673C234.182 212.839 233.971 212.937 233.66 212.964C232.928 213.029 232.509 212.454 232.401 211.24L232.333 210.47C230.269 212.316 228.474 213.306 226.949 213.441C226.342 213.495 225.706 213.402 225.042 213.163C224.393 212.922 223.749 212.376 223.108 211.522C222.998 211.156 222.925 210.778 222.89 210.389C222.856 210 222.885 209.527 222.976 208.969C223.082 208.395 223.335 207.793 223.734 207.161C224.148 206.528 224.662 205.957 225.276 205.448C226.623 204.356 228.128 203.737 229.794 203.589C230.51 203.526 231.204 203.574 231.877 203.734C231.852 203.454 231.825 202.962 231.794 202.259C231.778 201.554 231.759 200.811 231.737 200.029C231.651 197.997 231.608 196.801 231.608 196.44C231.606 196.064 231.617 195.749 231.642 195.496C231.68 195.226 231.746 194.993 231.838 194.796C232.037 194.386 232.425 194.156 233.001 194.105ZM224.578 210.051C224.687 211.281 225.185 211.856 226.072 211.778C226.212 211.765 226.367 211.736 226.535 211.689C227.173 211.633 227.943 211.377 228.843 210.92C230.556 210.063 231.584 209.36 231.927 208.812L231.652 205.707C231.604 205.162 231.136 204.929 230.249 205.008C230.139 205.002 229.99 205.007 229.803 205.023C229.632 205.039 229.363 205.102 228.996 205.213C228.63 205.324 228.222 205.501 227.773 205.745C227.324 205.988 226.887 206.278 226.462 206.614C225.569 207.336 224.981 208.141 224.699 209.029C224.588 209.368 224.548 209.709 224.578 210.051ZM245.185 208.014C244.181 209.954 242.725 211.228 240.818 211.836C240.375 211.969 239.967 212.052 239.593 212.086C239.235 212.117 238.932 212.144 238.683 212.166C238.448 212.171 238.18 212.156 237.879 212.12C237.577 212.084 237.296 212.007 237.035 211.889C236.43 211.613 236.101 211.179 236.049 210.588C235.962 210.313 235.903 210.005 235.873 209.662C235.841 209.304 235.877 208.83 235.982 208.241C236.087 207.651 236.312 207.004 236.657 206.299C237.018 205.592 237.469 204.933 238.011 204.32C239.136 203.028 240.399 202.148 241.801 201.678C242.212 201.548 242.59 201.467 242.932 201.437C243.29 201.405 243.611 201.4 243.895 201.422C244.798 201.342 245.46 201.903 245.88 203.105C246.151 203.865 246.364 204.945 246.52 206.343C246.689 207.724 246.823 208.794 246.922 209.554C247.035 210.297 247.196 210.973 247.407 211.582L246.03 211.704C245.93 211.289 245.851 210.919 245.79 210.595C245.73 210.271 245.672 209.971 245.616 209.693C245.481 209.046 245.337 208.487 245.185 208.014ZM244.771 204.403C244.691 203.501 244.208 203.089 243.321 203.167C243.21 203.161 243.101 203.163 242.992 203.173C241.856 203.273 240.705 203.924 239.541 205.125C238.994 205.676 238.538 206.281 238.173 206.941C237.629 207.883 237.388 208.704 237.45 209.405C237.531 210.323 238.109 210.821 239.182 210.898C240.58 210.743 241.862 209.987 243.028 208.628C243.524 208.035 243.923 207.404 244.225 206.734C244.647 205.834 244.829 205.057 244.771 204.403ZM252.322 209.029L252.037 205.289C251.985 204.698 251.886 204.197 251.74 203.786L248.121 204.107L247.932 202.5L251.433 202.19L250.9 196.166C250.934 196.022 251.015 195.874 251.143 195.721C251.341 195.484 251.511 195.359 251.651 195.347C251.806 195.333 251.94 195.337 252.052 195.358C252.164 195.38 252.29 195.478 252.431 195.654C252.771 196.659 253.033 198.197 253.216 200.267C253.262 200.781 253.33 201.284 253.421 201.778C253.913 201.672 254.408 201.597 254.906 201.553C254.906 201.553 255.311 201.517 256.12 201.445C256.416 201.419 256.687 201.379 256.933 201.326L257.012 203.013L253.595 203.222L254.426 211.266C254.157 211.415 253.921 211.499 253.719 211.517C252.94 211.585 252.475 210.756 252.322 209.029ZM263.756 208.627C265.126 208.506 267.133 207.701 269.777 206.212C269.949 206.196 270.094 206.246 270.214 206.361C270.333 206.46 270.399 206.588 270.413 206.743C269.884 207.857 268.766 208.787 267.06 209.535C265.354 210.282 263.721 210.528 262.161 210.274C260.393 209.976 259.257 209.096 258.751 207.635C258.693 207.342 258.643 206.947 258.599 206.449C258.554 205.951 258.621 205.286 258.798 204.455C258.99 203.606 259.365 202.789 259.922 202.002C260.48 201.216 261.161 200.575 261.964 200.08C262.767 199.586 263.643 199.296 264.593 199.212C265.495 199.132 266.535 199.354 267.71 199.877C268.266 200.126 268.716 200.423 269.06 200.769C269.404 201.115 269.594 201.483 269.628 201.872C269.638 201.981 269.64 202.09 269.634 202.201C269.687 203.153 269.281 203.793 268.416 204.12C268.036 204.264 267.59 204.358 267.076 204.404L263.702 204.562C262.581 204.661 261.747 204.978 261.198 205.513C260.879 205.808 260.673 206.226 260.58 206.768C261.094 208.149 262.153 208.769 263.756 208.627ZM267.273 201.045C266.908 200.827 266.534 200.679 266.151 200.603C265.768 200.528 265.452 200.501 265.203 200.523C264.954 200.545 264.557 200.666 264.012 200.887C263.465 201.092 262.983 201.315 262.565 201.556C261.535 202.15 261.045 202.719 261.093 203.263C262.348 203.262 263.286 203.234 263.909 203.178C265.636 203.025 266.791 202.774 267.371 202.425C267.731 202.236 267.901 202.025 267.88 201.791C267.855 201.511 267.653 201.263 267.273 201.045ZM280.001 202.765C281.713 202.613 282.608 202.973 282.685 203.844C282.743 204.498 282.336 205.303 281.463 206.259C280.162 207.676 278.347 208.88 276.019 209.87C275.91 209.88 275.776 209.782 275.616 209.577C275.472 209.37 275.357 209.215 275.269 209.113C275.196 208.994 275.142 208.921 275.109 208.892C276.846 208.142 278.253 207.296 279.331 206.353C280.059 205.724 280.408 205.231 280.376 204.873C280.344 204.515 279.869 204.376 278.951 204.458C278.033 204.539 276.706 204.876 274.97 205.469C274.158 205.51 273.432 205.284 272.792 204.791C272.236 204.354 271.936 203.895 271.894 203.412C271.85 202.914 271.95 202.45 272.194 202.021C272.437 201.576 272.776 201.154 273.211 200.754C273.646 200.355 274.162 199.98 274.759 199.629C276.219 198.762 277.766 198.257 279.401 198.112C279.883 198.069 280.354 198.075 280.814 198.128C281.187 198.095 281.42 198.239 281.511 198.56C281.602 198.882 281.681 199.416 281.747 200.163C280.791 199.824 279.738 199.706 278.586 199.808C277.154 199.934 275.997 200.327 275.114 200.986C274.199 201.632 273.765 202.407 273.814 203.313C273.853 203.749 274.191 203.938 274.829 203.882L276.517 203.544C277.953 203.103 279.114 202.843 280.001 202.765Z" fill="#FFD335"/>
<path d="M95.3613 194.41L94.9003 190.003C94.8383 189.303 94.7994 188.687 94.7836 188.155C94.7821 187.606 94.8747 187.323 95.0614 187.307L96.6256 187.168C96.6477 187.417 96.7138 187.898 96.8239 188.609C96.934 189.321 97.0292 190.042 97.1096 190.772C97.1886 191.487 97.2509 192.101 97.2964 192.615C97.3419 193.128 97.3934 193.798 97.4509 194.624C97.507 195.435 97.5085 196.337 97.4553 197.33C97.3284 199.616 96.8292 201.064 95.9578 201.674C95.2919 202.125 94.1873 202.317 92.6441 202.25C91.084 202.169 89.6899 201.837 88.462 201.256C87.022 200.584 86.1533 199.719 85.8558 198.663C85.8241 198.305 85.9133 197.984 86.1233 197.699C86.4994 197.163 86.8586 196.88 87.201 196.85C87.2952 197.736 87.6013 198.446 88.1192 198.981C89.3245 200.191 91.1334 200.69 93.5458 200.476C93.9505 200.44 94.3453 200.382 94.7302 200.301C95.457 199.829 95.6674 197.865 95.3613 194.41ZM100.18 196.089C99.9767 193.793 100.805 191.857 102.665 190.28C104.143 189.032 105.98 188.192 108.178 187.762C108.294 187.752 108.567 187.728 108.995 187.69C109.423 187.652 110.008 187.728 110.75 187.917C112.394 188.32 113.568 189.187 114.274 190.516C114.556 191.04 114.714 191.497 114.749 191.886C114.781 192.256 114.795 192.519 114.789 192.677C115.005 195.109 114.25 197.107 112.526 198.671C110.928 200.107 108.845 200.939 106.277 201.166C104.429 201.33 102.99 201.026 101.961 200.254C100.951 199.481 100.357 198.092 100.18 196.089ZM102.256 196.611C102.362 197.817 102.756 198.605 103.436 198.977C103.95 199.245 104.781 199.328 105.928 199.226C107.076 199.125 108.08 198.947 108.94 198.695C109.8 198.442 110.552 198.072 111.195 197.583C112.571 196.52 113.172 195.006 112.998 193.041C112.895 191.874 112.499 190.948 111.811 190.264C111.059 189.527 110.129 189.207 109.02 189.305C108.273 189.509 107.518 189.723 106.753 189.947C106.008 190.17 105.315 190.536 104.674 191.043C103.28 192.128 102.474 193.983 102.256 196.611ZM118.76 186.207C119.335 189.823 119.922 194.016 120.521 198.786C120.458 199.4 120.018 199.743 119.201 199.815C118.987 199.834 118.759 199.815 118.519 199.758C118.296 199.68 118.149 199.565 118.077 199.415L116.921 186.37L118.76 186.207ZM115.694 182.479C115.634 181.798 116.002 181.422 116.8 181.351C117.325 181.305 117.764 181.384 118.115 181.588C118.192 181.797 118.241 182.008 118.26 182.222C118.277 182.417 118.216 182.618 118.078 182.827C117.939 183.035 117.715 183.153 117.403 183.18C117.092 183.208 116.775 183.167 116.451 183.059C116.126 182.931 115.874 182.737 115.694 182.479ZM133.284 192.303C133.079 189.988 132.802 188.297 132.453 187.229C132.582 186.924 132.336 186.799 131.713 186.854C131.052 186.912 130.211 187.154 129.189 187.577C128.168 188.001 127.341 188.408 126.709 188.797C125.2 189.695 124.39 190.512 124.279 191.248L124.982 199.185L123.027 199.359C122.716 198.719 122.425 196.873 122.154 193.818C121.913 191.095 121.784 189.086 121.767 187.794C121.77 186.499 121.793 185.762 121.836 185.582C122.313 185.206 122.706 185.005 123.018 184.977C123.504 184.934 123.798 185.486 123.9 186.634C123.939 187.082 123.949 187.522 123.929 187.955C123.926 188.367 123.931 188.651 123.945 188.807C126.892 186.212 129.231 184.838 130.962 184.685C132.927 184.511 134.187 185.997 134.74 189.144C134.955 190.243 135.149 191.775 135.323 193.74L135.498 196.048C135.574 196.904 135.667 197.729 135.777 198.523C135.592 198.657 135.442 198.729 135.325 198.74C135.265 198.725 135.136 198.707 134.938 198.686C134.74 198.664 134.485 198.657 134.172 198.665C133.908 197.904 133.731 197.126 133.641 196.33C133.549 195.515 133.473 194.766 133.413 194.086L133.284 192.303ZM160.947 188.176C160.645 189.634 160.401 190.979 160.216 192.211C160.051 193.441 159.867 194.467 159.665 195.289C159.339 196.475 158.903 197.092 158.359 197.14C158.067 197.166 157.724 197.059 157.33 196.82C156.351 195.946 154.899 193.947 152.976 190.823C151.098 187.774 150.123 185.85 150.053 185.053C150.022 184.702 150.11 184.479 150.317 184.382C150.522 184.266 150.764 184.235 151.044 184.288C151.722 184.424 152.216 184.684 152.525 185.069C152.678 185.251 152.874 185.577 153.111 186.046L154.001 187.791C154.999 189.761 155.972 191.558 156.92 193.18C157.289 192.48 157.622 191.588 157.918 190.503L158.6 187.913C159.183 185.646 159.785 184.465 160.404 184.371C160.863 184.017 162.474 185.609 165.239 189.148C166.411 190.652 167.138 191.549 167.418 191.838C167.593 191.822 167.746 191.22 167.876 190.032C168.025 188.843 168.152 187.841 168.257 187.028C168.379 186.194 168.545 185.414 168.756 184.69C169.253 182.999 169.92 182.116 170.756 182.042C171.029 182.018 171.222 182.099 171.337 182.285C171.469 182.449 171.54 182.59 171.551 182.707C171.561 182.824 171.569 182.911 171.574 182.97C171.399 183.652 171.223 184.432 171.046 185.31C170.867 186.169 170.671 187.059 170.459 187.98C170.264 188.88 170.06 189.78 169.845 190.681C169.649 191.562 169.445 192.364 169.235 193.088C168.727 194.663 168.265 195.527 167.847 195.682C167.53 195.867 166.962 195.535 166.141 194.686C165.773 194.287 165.378 193.813 164.956 193.262C164.535 192.711 164.092 192.142 163.629 191.556C162.499 190.087 161.605 188.961 160.947 188.176ZM186.371 189.159C185.116 191.584 183.296 193.176 180.912 193.936C180.358 194.103 179.848 194.207 179.381 194.248C178.934 194.288 178.554 194.322 178.243 194.349C177.95 194.356 177.614 194.336 177.238 194.291C176.861 194.246 176.51 194.15 176.183 194.002C175.427 193.658 175.016 193.116 174.951 192.376C174.842 192.033 174.768 191.647 174.731 191.219C174.691 190.772 174.736 190.18 174.867 189.442C174.998 188.705 175.279 187.896 175.711 187.015C176.162 186.132 176.726 185.307 177.404 184.541C178.81 182.927 180.388 181.826 182.14 181.239C182.655 181.076 183.127 180.975 183.555 180.938C184.002 180.898 184.404 180.892 184.759 180.919C185.888 180.819 186.714 181.52 187.24 183.023C187.579 183.973 187.845 185.322 188.039 187.07C188.251 188.796 188.419 190.134 188.542 191.084C188.683 192.013 188.885 192.857 189.149 193.618L187.427 193.771C187.303 193.253 187.203 192.791 187.128 192.386C187.053 191.981 186.98 191.605 186.91 191.258C186.741 190.449 186.561 189.75 186.371 189.159ZM185.854 184.646C185.754 183.517 185.15 183.002 184.041 183.1C183.903 183.093 183.766 183.095 183.629 183.107C182.209 183.233 180.772 184.047 179.316 185.548C178.632 186.236 178.062 186.993 177.606 187.818C176.926 188.995 176.624 190.022 176.702 190.898C176.804 192.045 177.525 192.668 178.867 192.765C180.615 192.57 182.217 191.625 183.675 189.927C184.295 189.186 184.794 188.396 185.171 187.559C185.699 186.434 185.926 185.463 185.854 184.646ZM192.545 179.671C193.12 183.286 193.707 187.479 194.306 192.25C194.243 192.863 193.803 193.206 192.986 193.278C192.772 193.297 192.545 193.278 192.304 193.221C192.082 193.143 191.934 193.028 191.862 192.878L190.706 179.833L192.545 179.671ZM189.479 175.942C189.419 175.261 189.788 174.885 190.585 174.815C191.111 174.768 191.549 174.847 191.9 175.051C191.978 175.26 192.026 175.471 192.045 175.685C192.062 175.88 192.001 176.081 191.863 176.29C191.725 176.498 191.5 176.616 191.189 176.644C190.877 176.671 190.56 176.631 190.237 176.522C189.912 176.394 189.659 176.201 189.479 175.942ZM200.413 189.973L200.058 185.299C199.992 184.56 199.868 183.933 199.685 183.42L195.162 183.821L194.925 181.813L199.303 181.425L198.636 173.896C198.679 173.715 198.78 173.53 198.939 173.339C199.188 173.043 199.399 172.887 199.574 172.871C199.769 172.854 199.936 172.859 200.076 172.886C200.215 172.913 200.373 173.036 200.55 173.256C200.975 174.512 201.302 176.434 201.531 179.021C201.588 179.664 201.673 180.293 201.787 180.911C202.402 180.778 203.021 180.684 203.644 180.628C203.644 180.628 204.15 180.584 205.161 180.494C205.531 180.461 205.87 180.412 206.178 180.345L206.276 182.454L202.005 182.715L203.043 192.77C202.707 192.956 202.412 193.061 202.159 193.083C201.186 193.17 200.604 192.133 200.413 189.973ZM208.456 180.673C208.324 179.626 208.202 178.695 208.091 177.881C207.978 177.048 207.895 176.438 207.841 176.051C207.804 175.642 207.562 174.674 207.113 173.145C207.267 172.896 207.413 172.657 207.549 172.43C207.705 172.2 207.939 172.071 208.25 172.044C208.931 171.984 209.711 174.807 210.589 180.513C211.078 183.823 211.47 187.141 211.765 190.468C211.844 191.363 211.261 191.865 210.016 191.976L209.78 191.967C209.69 190.955 209.547 189.664 209.349 188.094C209.151 186.523 208.981 185.156 208.838 183.992C208.715 182.826 208.588 181.72 208.456 180.673ZM215.641 177.624C216.216 181.24 216.804 185.433 217.403 190.204C217.339 190.817 216.899 191.16 216.082 191.232C215.868 191.251 215.641 191.232 215.4 191.175C215.178 191.097 215.03 190.982 214.958 190.832L213.803 177.787L215.641 177.624ZM212.576 173.896C212.515 173.215 212.884 172.839 213.682 172.769C214.207 172.722 214.645 172.801 214.997 173.005C215.074 173.214 215.122 173.425 215.141 173.639C215.158 173.834 215.098 174.035 214.959 174.244C214.821 174.452 214.596 174.57 214.285 174.598C213.974 174.625 213.656 174.585 213.333 174.476C213.008 174.348 212.755 174.155 212.576 173.896ZM228.664 182.706C230.804 182.516 231.923 182.966 232.019 184.056C232.092 184.873 231.583 185.879 230.492 187.073C228.865 188.845 226.596 190.35 223.686 191.588C223.55 191.6 223.383 191.478 223.183 191.221C223.004 190.962 222.859 190.769 222.75 190.642C222.658 190.493 222.591 190.401 222.549 190.365C224.721 189.428 226.48 188.37 227.826 187.192C228.737 186.405 229.173 185.788 229.133 185.341C229.093 184.893 228.5 184.72 227.352 184.822C226.204 184.924 224.545 185.345 222.376 186.087C221.36 186.137 220.453 185.855 219.653 185.239C218.958 184.693 218.584 184.119 218.53 183.515C218.475 182.893 218.6 182.313 218.905 181.776C219.209 181.22 219.633 180.692 220.177 180.193C220.721 179.694 221.366 179.225 222.111 178.786C223.937 177.703 225.871 177.071 227.914 176.89C228.517 176.837 229.106 176.843 229.68 176.91C230.147 176.869 230.438 177.049 230.552 177.45C230.666 177.852 230.764 178.52 230.847 179.454C229.652 179.03 228.335 178.882 226.896 179.01C225.106 179.168 223.659 179.659 222.556 180.482C221.411 181.29 220.87 182.259 220.931 183.391C220.979 183.936 221.402 184.173 222.2 184.102L224.309 183.68C226.104 183.129 227.555 182.804 228.664 182.706ZM239.107 186.545L238.751 181.871C238.686 181.132 238.562 180.506 238.379 179.992L233.856 180.393L233.619 178.385L237.996 177.997L237.329 170.468C237.372 170.287 237.473 170.102 237.633 169.911C237.881 169.615 238.093 169.459 238.268 169.443C238.463 169.426 238.63 169.431 238.769 169.458C238.909 169.485 239.067 169.608 239.243 169.828C239.668 171.084 239.995 173.006 240.225 175.594C240.282 176.236 240.367 176.865 240.48 177.483C241.096 177.35 241.715 177.256 242.338 177.2C242.338 177.2 242.843 177.156 243.855 177.066C244.225 177.033 244.564 176.984 244.871 176.917L244.97 179.026L240.699 179.287L241.737 189.342C241.4 189.529 241.106 189.633 240.853 189.655C239.88 189.742 239.298 188.705 239.107 186.545Z" fill="#AC47FF"/>
</g>
<defs>
<clipPath id="clip0_401_189">
<rect width="305" height="237" fill="white"/>
</clipPath>
</defs>
</svg>
