<svg width="45" height="45" viewBox="0 0 45 45" fill="none" xmlns="http://www.w3.org/2000/svg">
<rect x="0.5" y="0.238525" width="44" height="44" rx="22" fill="white"/>
<g clip-path="url(#clip0_404_765)">
<path d="M9.83828 17.0387C9.91124 17.0387 9.9746 17.0594 10.0284 17.1009C10.086 17.1424 10.1244 17.1971 10.1436 17.265L11.2956 20.9421H10.397L9.58484 18.0739C9.56948 18.0098 9.55412 17.9457 9.53876 17.8816C9.5234 17.8137 9.50996 17.7496 9.49844 17.6892H9.34292C9.3314 17.7496 9.31796 17.8137 9.3026 17.8816C9.29108 17.9457 9.27572 18.0098 9.25652 18.0739L8.44436 20.9421H7.54004L8.6978 17.265C8.717 17.1971 8.75348 17.1424 8.80724 17.1009C8.86484 17.0594 8.93012 17.0387 9.00308 17.0387H9.83828ZM10.4488 19.2619V19.9125H8.38676V19.2619H10.4488ZM13.0887 18.0739C13.1924 18.0739 13.3057 18.0796 13.4286 18.0909C13.5515 18.0984 13.6743 18.1154 13.7972 18.1418C13.9239 18.1644 14.0391 18.1984 14.1428 18.2436L14.0507 18.7698C13.8971 18.766 13.7492 18.7622 13.6071 18.7584C13.4689 18.7547 13.3441 18.7528 13.2327 18.7528C13.0599 18.7528 12.9236 18.7754 12.8238 18.8207C12.7239 18.8659 12.651 18.947 12.6049 19.0639C12.5627 19.1771 12.5415 19.3355 12.5415 19.5391C12.5415 19.7466 12.5627 19.9087 12.6049 20.0256C12.651 20.1426 12.7239 20.2236 12.8238 20.2689C12.9236 20.3142 13.0599 20.3368 13.2327 20.3368C13.2942 20.3368 13.3729 20.3349 13.4689 20.3311C13.5649 20.3274 13.6686 20.3236 13.7799 20.3198C13.8913 20.3123 14.0007 20.301 14.1083 20.2859L14.1889 20.8176C14.0353 20.8855 13.8606 20.9346 13.6647 20.9647C13.4689 20.9949 13.275 21.01 13.083 21.01C12.7297 21.01 12.4475 20.9628 12.2363 20.8686C12.0289 20.7705 11.8792 20.614 11.787 20.399C11.6948 20.184 11.6488 19.8974 11.6488 19.5391C11.6488 19.1808 11.6948 18.8942 11.787 18.6792C11.883 18.4643 12.0366 18.3096 12.2478 18.2154C12.459 18.1211 12.7393 18.0739 13.0887 18.0739ZM15.9215 17.3724V20.0483C15.9215 20.1501 15.9445 20.2236 15.9906 20.2689C16.0405 20.3104 16.1211 20.3311 16.2325 20.3311H16.6011L16.6933 20.8968C16.6242 20.9195 16.5397 20.9383 16.4399 20.9534C16.34 20.9723 16.2402 20.9855 16.1403 20.993C16.0405 21.0043 15.956 21.01 15.8869 21.01C15.6296 21.01 15.428 20.9421 15.2821 20.8063C15.14 20.6706 15.069 20.4801 15.069 20.235L15.0632 17.3724H15.9215ZM16.7163 18.1475V18.6962H14.5679V18.1758L15.1208 18.1475H16.7163ZM18.1227 18.1475V19.986C18.1227 20.103 18.1477 20.1859 18.1976 20.235C18.2513 20.284 18.3358 20.3085 18.451 20.3085C18.5701 20.3085 18.6872 20.2878 18.8024 20.2463C18.9214 20.201 19.0673 20.1312 19.2401 20.037L19.3093 20.4952C19.1019 20.6724 18.8984 20.8044 18.6987 20.8912C18.499 20.9779 18.2936 21.0213 18.0824 21.0213C17.5409 21.0213 17.2702 20.7611 17.2702 20.2406V18.1475H18.1227ZM20.0062 18.1475V20.9421H19.3323L19.2344 20.3934L19.1537 20.3142V18.1475H20.0062ZM22.3204 18.0739C22.5585 18.0739 22.7601 18.106 22.9252 18.1701C23.0904 18.2304 23.2152 18.336 23.2996 18.4869C23.388 18.634 23.4321 18.8376 23.4321 19.0979V20.9421H22.7524L22.6315 20.3368L22.5739 20.2519V19.0922C22.5739 18.9602 22.5412 18.864 22.476 18.8037C22.4145 18.7434 22.2955 18.7132 22.1188 18.7132C21.9729 18.7132 21.7905 18.7188 21.5716 18.7302C21.3528 18.7377 21.1281 18.749 20.8977 18.7641L20.8171 18.2097C20.9553 18.1833 21.1147 18.1607 21.2952 18.1418C21.4756 18.123 21.6561 18.1079 21.8366 18.0966C22.0171 18.0815 22.1784 18.0739 22.3204 18.0739ZM23.0808 19.2223L23.075 19.6919L21.8078 19.6975C21.7041 19.6975 21.6292 19.722 21.5832 19.7711C21.5409 19.8201 21.5198 19.8861 21.5198 19.9691V20.1048C21.5198 20.1991 21.5467 20.2727 21.6004 20.3255C21.6542 20.3745 21.7406 20.399 21.8596 20.399C21.9595 20.399 22.067 20.3783 22.1822 20.3368C22.3012 20.2953 22.4184 20.2368 22.5336 20.1614C22.6488 20.086 22.7505 19.9974 22.8388 19.8955V20.2576C22.8043 20.3142 22.7524 20.3858 22.6833 20.4726C22.618 20.5555 22.5336 20.6385 22.4299 20.7215C22.3262 20.8007 22.2052 20.8686 22.067 20.9251C21.9288 20.9817 21.7713 21.01 21.5947 21.01C21.4219 21.01 21.2664 20.9798 21.1281 20.9195C20.9899 20.8591 20.8804 20.7705 20.7998 20.6536C20.7192 20.5367 20.6788 20.3915 20.6788 20.218V19.9295C20.6788 19.707 20.7556 19.5335 20.9092 19.409C21.0628 19.2846 21.274 19.2223 21.5428 19.2223H23.0808ZM25.0755 16.9821L25.0697 20.0483C25.0697 20.1426 25.0985 20.2142 25.1561 20.2632C25.2137 20.3085 25.2982 20.3311 25.4096 20.3311H25.64L25.7379 20.8968C25.6918 20.9195 25.6265 20.9383 25.5421 20.9534C25.4576 20.9723 25.3712 20.9855 25.2829 20.993C25.1945 21.0043 25.1197 21.01 25.0582 21.01C24.8009 21.01 24.5974 20.944 24.4477 20.812C24.2979 20.68 24.223 20.4952 24.223 20.2576V16.9821H25.0755ZM27.8527 16.9595C28.1676 16.9595 28.4344 16.9934 28.6533 17.0613C28.8722 17.1254 29.0469 17.2348 29.1775 17.3894C29.3119 17.5403 29.4098 17.7477 29.4712 18.0117C29.5327 18.2719 29.5634 18.5982 29.5634 18.9904C29.5634 19.3826 29.5327 19.7107 29.4712 19.9747C29.4098 20.235 29.3119 20.4424 29.1775 20.597C29.0469 20.7479 28.8722 20.8572 28.6533 20.9251C28.4344 20.9892 28.1676 21.0213 27.8527 21.0213C27.5378 21.0213 27.2709 20.9892 27.052 20.9251C26.8332 20.8572 26.6565 20.7479 26.5221 20.597C26.3877 20.4424 26.2898 20.235 26.2284 19.9747C26.1669 19.7107 26.1362 19.3826 26.1362 18.9904C26.1362 18.5982 26.1669 18.2719 26.2284 18.0117C26.2898 17.7477 26.3877 17.5403 26.5221 17.3894C26.6565 17.2348 26.8332 17.1254 27.052 17.0613C27.2709 16.9934 27.5378 16.9595 27.8527 16.9595ZM27.8527 17.644C27.6492 17.644 27.4898 17.6836 27.3746 17.7628C27.2632 17.842 27.1826 17.9796 27.1327 18.1758C27.0866 18.3681 27.0636 18.6396 27.0636 18.9904C27.0636 19.3374 27.0866 19.6089 27.1327 19.805C27.1826 20.0011 27.2632 20.1388 27.3746 20.218C27.4898 20.2972 27.6492 20.3368 27.8527 20.3368C28.0524 20.3368 28.2079 20.2972 28.3192 20.218C28.4344 20.1388 28.5151 20.0011 28.5612 19.805C28.6111 19.6089 28.636 19.3374 28.636 18.9904C28.636 18.6396 28.6111 18.3681 28.5612 18.1758C28.5151 17.9796 28.4344 17.842 28.3192 17.7628C28.2079 17.6836 28.0524 17.644 27.8527 17.644ZM32.2791 18.0739C32.8167 18.0739 33.0855 18.3323 33.0855 18.849V20.9421H32.233V19.1092C32.233 18.9847 32.21 18.8999 32.1639 18.8546C32.1178 18.8056 32.0391 18.7811 31.9277 18.7811C31.8049 18.7811 31.6781 18.8056 31.5476 18.8546C31.417 18.8999 31.2557 18.9715 31.0637 19.0696L31.0234 18.6C31.2269 18.4303 31.4343 18.3002 31.6455 18.2097C31.8605 18.1192 32.0717 18.0739 32.2791 18.0739ZM30.9831 18.1475L31.081 18.7019L31.1501 18.7754V20.9421H30.2977V18.1475H30.9831ZM35.2201 18.0739C35.7001 18.0739 36.0438 18.155 36.2511 18.3172C36.4623 18.4756 36.5679 18.7132 36.5679 19.03C36.5718 19.2864 36.5065 19.4788 36.3721 19.607C36.2377 19.7315 36.0054 19.7937 35.6751 19.7937H34.0854V19.3242H35.439C35.5695 19.3242 35.6521 19.2978 35.6867 19.245C35.7251 19.1884 35.7443 19.1111 35.7443 19.013C35.7404 18.881 35.7001 18.7905 35.6233 18.7415C35.5503 18.6887 35.4255 18.6623 35.2489 18.6623C35.0915 18.6623 34.9686 18.683 34.8803 18.7245C34.7919 18.766 34.7305 18.8452 34.6959 18.9621C34.6614 19.079 34.6441 19.2487 34.6441 19.4712C34.6441 19.7051 34.6652 19.8861 34.7075 20.0143C34.7497 20.1388 34.8207 20.2255 34.9206 20.2746C35.0243 20.3236 35.1663 20.3481 35.3468 20.3481C35.4774 20.3481 35.6387 20.3443 35.8307 20.3368C36.0265 20.3255 36.2223 20.3085 36.4182 20.2859L36.4988 20.8007C36.3875 20.8535 36.2607 20.895 36.1187 20.9251C35.9766 20.9553 35.8307 20.976 35.6809 20.9874C35.5311 21.0024 35.3871 21.01 35.2489 21.01C34.8879 21.01 34.5961 20.9591 34.3734 20.8572C34.1545 20.7516 33.9951 20.5914 33.8953 20.3764C33.7993 20.1614 33.7513 19.8861 33.7513 19.5504C33.7513 19.1846 33.8012 18.8942 33.9011 18.6792C34.0009 18.4643 34.1583 18.3096 34.3734 18.2154C34.5884 18.1211 34.8707 18.0739 35.2201 18.0739ZM9.46388 23.4878C9.83636 23.4878 10.1282 23.5255 10.3394 23.601C10.5506 23.6764 10.7004 23.8065 10.7887 23.9913C10.8808 24.1761 10.9269 24.4344 10.9269 24.7663C10.9269 25.0982 10.8828 25.3566 10.7944 25.5414C10.71 25.7262 10.5698 25.8563 10.374 25.9317C10.1781 26.0034 9.91316 26.0392 9.57908 26.0392C9.40244 26.0392 9.22964 26.0316 9.06068 26.0166C8.89172 26.0015 8.73428 25.9826 8.58836 25.96C8.44244 25.9374 8.31764 25.9147 8.21396 25.8921C8.11028 25.8657 8.03924 25.8412 8.00084 25.8186L8.01812 25.3886C8.24468 25.3886 8.47892 25.3886 8.72084 25.3886C8.9666 25.3886 9.20852 25.3886 9.4466 25.3886C9.6002 25.3848 9.71924 25.366 9.80372 25.332C9.89204 25.2981 9.95348 25.2359 9.98804 25.1454C10.0264 25.0548 10.0456 24.9285 10.0456 24.7663C10.0456 24.6004 10.0264 24.4722 9.98804 24.3816C9.95348 24.2911 9.89204 24.2289 9.80372 24.195C9.71924 24.1572 9.6002 24.1384 9.4466 24.1384C9.09332 24.1384 8.78996 24.1403 8.53652 24.144C8.28308 24.1478 8.1122 24.1554 8.02388 24.1667L7.93748 23.5444C8.09876 23.5255 8.25044 23.5123 8.39252 23.5048C8.5346 23.4972 8.6882 23.4935 8.85332 23.4935C9.02228 23.4897 9.2258 23.4878 9.46388 23.4878ZM8.81876 23.5444V27.4478H7.93748V23.5444H8.81876ZM12.2296 24.6532L12.3333 25.2076L12.414 25.2811V27.4478H11.5615V24.6532H12.2296ZM13.6178 24.5796L13.5372 25.3547H13.301C13.1666 25.3547 13.0264 25.3735 12.8805 25.4112C12.7346 25.449 12.5503 25.5055 12.3275 25.581L12.2699 25.1114C12.4696 24.9379 12.6712 24.8059 12.8748 24.7154C13.0783 24.6249 13.276 24.5796 13.468 24.5796H13.6178ZM15.4434 24.5796C15.8005 24.5796 16.0866 24.6287 16.3016 24.7267C16.5167 24.821 16.6703 24.9756 16.7624 25.1906C16.8584 25.4056 16.9064 25.6941 16.9064 26.0562C16.9064 26.4107 16.8584 26.6954 16.7624 26.9104C16.6703 27.1254 16.5167 27.28 16.3016 27.3743C16.0866 27.4686 15.8005 27.5157 15.4434 27.5157C15.0901 27.5157 14.804 27.4686 14.5851 27.3743C14.3701 27.28 14.2146 27.1254 14.1186 26.9104C14.0226 26.6954 13.9746 26.4107 13.9746 26.0562C13.9746 25.6941 14.0226 25.4056 14.1186 25.1906C14.2146 24.9756 14.3701 24.821 14.5851 24.7267C14.804 24.6287 15.0901 24.5796 15.4434 24.5796ZM15.4434 25.1906C15.2975 25.1906 15.1823 25.2151 15.0978 25.2642C15.0133 25.3132 14.9538 25.3999 14.9192 25.5244C14.8847 25.6488 14.8674 25.8261 14.8674 26.0562C14.8674 26.2824 14.8847 26.4578 14.9192 26.5823C14.9538 26.7067 15.0133 26.7935 15.0978 26.8425C15.1823 26.8878 15.2975 26.9104 15.4434 26.9104C15.5893 26.9104 15.7045 26.8878 15.789 26.8425C15.8735 26.7935 15.933 26.7067 15.9675 26.5823C16.0021 26.4578 16.0194 26.2824 16.0194 26.0562C16.0194 25.8261 16.0021 25.6488 15.9675 25.5244C15.933 25.3999 15.8735 25.3132 15.789 25.2642C15.7045 25.2151 15.5893 25.1906 15.4434 25.1906ZM18.6973 23.8782V26.554C18.6973 26.6558 18.7203 26.7294 18.7664 26.7746C18.8163 26.8161 18.897 26.8368 19.0083 26.8368H19.377L19.4691 27.4026C19.4 27.4252 19.3155 27.444 19.2157 27.4591C19.1159 27.478 19.016 27.4912 18.9162 27.4987C18.8163 27.51 18.7319 27.5157 18.6627 27.5157C18.4055 27.5157 18.2039 27.4478 18.0579 27.312C17.9159 27.1763 17.8448 26.9858 17.8448 26.7407L17.8391 23.8782H18.6973ZM19.4922 24.6532V25.2019H17.3437V24.6815L17.8967 24.6532H19.4922ZM21.4169 24.5796C21.7741 24.5796 22.0601 24.6287 22.2752 24.7267C22.4902 24.821 22.6438 24.9756 22.736 25.1906C22.832 25.4056 22.88 25.6941 22.88 26.0562C22.88 26.4107 22.832 26.6954 22.736 26.9104C22.6438 27.1254 22.4902 27.28 22.2752 27.3743C22.0601 27.4686 21.7741 27.5157 21.4169 27.5157C21.0637 27.5157 20.7776 27.4686 20.5587 27.3743C20.3437 27.28 20.1881 27.1254 20.0921 26.9104C19.9961 26.6954 19.9481 26.4107 19.9481 26.0562C19.9481 25.6941 19.9961 25.4056 20.0921 25.1906C20.1881 24.9756 20.3437 24.821 20.5587 24.7267C20.7776 24.6287 21.0637 24.5796 21.4169 24.5796ZM21.4169 25.1906C21.271 25.1906 21.1558 25.2151 21.0713 25.2642C20.9869 25.3132 20.9273 25.3999 20.8928 25.5244C20.8582 25.6488 20.8409 25.8261 20.8409 26.0562C20.8409 26.2824 20.8582 26.4578 20.8928 26.5823C20.9273 26.7067 20.9869 26.7935 21.0713 26.8425C21.1558 26.8878 21.271 26.9104 21.4169 26.9104C21.5629 26.9104 21.6781 26.8878 21.7625 26.8425C21.847 26.7935 21.9065 26.7067 21.9411 26.5823C21.9757 26.4578 21.9929 26.2824 21.9929 26.0562C21.9929 25.8261 21.9757 25.6488 21.9411 25.5244C21.9065 25.3999 21.847 25.3132 21.7625 25.2642C21.6781 25.2151 21.5629 25.1906 21.4169 25.1906ZM24.9008 24.5796C25.0045 24.5796 25.1178 24.5853 25.2407 24.5966C25.3635 24.6042 25.4864 24.6211 25.6093 24.6475C25.736 24.6702 25.8512 24.7041 25.9549 24.7494L25.8627 25.2755C25.7091 25.2717 25.5613 25.2679 25.4192 25.2642C25.281 25.2604 25.1562 25.2585 25.0448 25.2585C24.872 25.2585 24.7357 25.2811 24.6359 25.3264C24.536 25.3716 24.4631 25.4527 24.417 25.5696C24.3747 25.6828 24.3536 25.8412 24.3536 26.0448C24.3536 26.2523 24.3747 26.4144 24.417 26.5314C24.4631 26.6483 24.536 26.7294 24.6359 26.7746C24.7357 26.8199 24.872 26.8425 25.0448 26.8425C25.1063 26.8425 25.185 26.8406 25.281 26.8368C25.377 26.8331 25.4807 26.8293 25.592 26.8255C25.7034 26.818 25.8128 26.8067 25.9203 26.7916L26.001 27.3234C25.8474 27.3912 25.6727 27.4403 25.4768 27.4704C25.281 27.5006 25.0871 27.5157 24.8951 27.5157C24.5418 27.5157 24.2595 27.4686 24.0483 27.3743C23.841 27.2762 23.6912 27.1197 23.5991 26.9047C23.5069 26.6898 23.4608 26.4031 23.4608 26.0448C23.4608 25.6866 23.5069 25.3999 23.5991 25.185C23.6951 24.97 23.8487 24.8154 24.0599 24.7211C24.2711 24.6268 24.5514 24.5796 24.9008 24.5796ZM27.9417 24.5796C28.2988 24.5796 28.5849 24.6287 28.7999 24.7267C29.0149 24.821 29.1686 24.9756 29.2607 25.1906C29.3567 25.4056 29.4047 25.6941 29.4047 26.0562C29.4047 26.4107 29.3567 26.6954 29.2607 26.9104C29.1686 27.1254 29.0149 27.28 28.7999 27.3743C28.5849 27.4686 28.2988 27.5157 27.9417 27.5157C27.5884 27.5157 27.3023 27.4686 27.0834 27.3743C26.8684 27.28 26.7129 27.1254 26.6169 26.9104C26.5209 26.6954 26.4729 26.4107 26.4729 26.0562C26.4729 25.6941 26.5209 25.4056 26.6169 25.1906C26.7129 24.9756 26.8684 24.821 27.0834 24.7267C27.3023 24.6287 27.5884 24.5796 27.9417 24.5796ZM27.9417 25.1906C27.7957 25.1906 27.6805 25.2151 27.5961 25.2642C27.5116 25.3132 27.4521 25.3999 27.4175 25.5244C27.3829 25.6488 27.3657 25.8261 27.3657 26.0562C27.3657 26.2824 27.3829 26.4578 27.4175 26.5823C27.4521 26.7067 27.5116 26.7935 27.5961 26.8425C27.6805 26.8878 27.7957 26.9104 27.9417 26.9104C28.0876 26.9104 28.2028 26.8878 28.2873 26.8425C28.3717 26.7935 28.4313 26.7067 28.4658 26.5823C28.5004 26.4578 28.5177 26.2824 28.5177 26.0562C28.5177 25.8261 28.5004 25.6488 28.4658 25.5244C28.4313 25.3999 28.3717 25.3132 28.2873 25.2642C28.2028 25.2151 28.0876 25.1906 27.9417 25.1906ZM30.959 23.4878L30.9533 26.554C30.9533 26.6483 30.9821 26.7199 31.0397 26.769C31.0973 26.8142 31.1818 26.8368 31.2931 26.8368H31.5235L31.6214 27.4026C31.5754 27.4252 31.5101 27.444 31.4256 27.4591C31.3411 27.478 31.2547 27.4912 31.1664 27.4987C31.0781 27.51 31.0032 27.5157 30.9418 27.5157C30.6845 27.5157 30.481 27.4497 30.3312 27.3177C30.1814 27.1857 30.1066 27.0009 30.1066 26.7633V23.4878H30.959Z" fill="#AC47FF"/>
<path d="M7.93748 23.5444L8.02388 24.1667C8.1122 24.1554 8.28308 24.1478 8.53652 24.144C8.78996 24.1403 9.09332 24.1384 9.4466 24.1384C9.6002 24.1384 9.71924 24.1572 9.80372 24.195C9.89204 24.2289 9.95348 24.2911 9.98804 24.3816C10.0264 24.4722 10.0456 24.6004 10.0456 24.7663C10.0456 24.9285 10.0264 25.0548 9.98804 25.1454C9.95348 25.2359 9.89204 25.2981 9.80372 25.332C9.71924 25.366 9.6002 25.3848 9.4466 25.3886C9.20852 25.3886 8.9666 25.3886 8.72084 25.3886C8.47892 25.3886 8.24468 25.3886 8.01812 25.3886L8.00084 25.8186C8.03924 25.8412 8.11028 25.8657 8.21396 25.8921C8.31764 25.9147 8.44244 25.9374 8.58836 25.96C8.73428 25.9826 8.89172 26.0015 9.06068 26.0166C9.22964 26.0316 9.40244 26.0392 9.57908 26.0392C9.91316 26.0392 10.1781 26.0034 10.374 25.9317C10.5698 25.8563 10.71 25.7262 10.7944 25.5414C10.8828 25.3566 10.9269 25.0982 10.9269 24.7663C10.9269 24.4344 10.8808 24.1761 10.7887 23.9913C10.7004 23.8065 10.5506 23.6764 10.3394 23.601C10.1282 23.5255 9.83636 23.4878 9.46388 23.4878C9.2258 23.4878 9.02228 23.4897 8.85332 23.4935C8.6882 23.4935 8.5346 23.4972 8.39252 23.5048C8.25044 23.5123 8.09876 23.5255 7.93748 23.5444ZM7.93748 23.5444V27.4478H8.81876V23.5444H7.93748ZM9.83828 17.0387C9.91124 17.0387 9.9746 17.0594 10.0284 17.1009C10.086 17.1424 10.1244 17.1971 10.1436 17.265L11.2956 20.9421H10.397L9.58484 18.0739C9.56948 18.0098 9.55412 17.9457 9.53876 17.8816C9.5234 17.8137 9.50996 17.7496 9.49844 17.6892H9.34292C9.3314 17.7496 9.31796 17.8137 9.3026 17.8816C9.29108 17.9457 9.27572 18.0098 9.25652 18.0739L8.44436 20.9421H7.54004L8.6978 17.265C8.717 17.1971 8.75348 17.1424 8.80724 17.1009C8.86484 17.0594 8.93012 17.0387 9.00308 17.0387H9.83828ZM10.4488 19.2619V19.9125H8.38676V19.2619H10.4488ZM13.0887 18.0739C13.1924 18.0739 13.3057 18.0796 13.4286 18.0909C13.5515 18.0984 13.6743 18.1154 13.7972 18.1418C13.9239 18.1644 14.0391 18.1984 14.1428 18.2436L14.0507 18.7698C13.8971 18.766 13.7492 18.7622 13.6071 18.7584C13.4689 18.7547 13.3441 18.7528 13.2327 18.7528C13.0599 18.7528 12.9236 18.7754 12.8238 18.8207C12.7239 18.8659 12.651 18.947 12.6049 19.0639C12.5627 19.1771 12.5415 19.3355 12.5415 19.5391C12.5415 19.7466 12.5627 19.9087 12.6049 20.0256C12.651 20.1426 12.7239 20.2236 12.8238 20.2689C12.9236 20.3142 13.0599 20.3368 13.2327 20.3368C13.2942 20.3368 13.3729 20.3349 13.4689 20.3311C13.5649 20.3274 13.6686 20.3236 13.7799 20.3198C13.8913 20.3123 14.0007 20.301 14.1083 20.2859L14.1889 20.8176C14.0353 20.8855 13.8606 20.9346 13.6647 20.9647C13.4689 20.9949 13.275 21.01 13.083 21.01C12.7297 21.01 12.4475 20.9628 12.2363 20.8686C12.0289 20.7705 11.8792 20.614 11.787 20.399C11.6948 20.184 11.6488 19.8974 11.6488 19.5391C11.6488 19.1808 11.6948 18.8942 11.787 18.6792C11.883 18.4643 12.0366 18.3096 12.2478 18.2154C12.459 18.1211 12.7393 18.0739 13.0887 18.0739ZM15.9215 17.3724V20.0483C15.9215 20.1501 15.9445 20.2236 15.9906 20.2689C16.0405 20.3104 16.1211 20.3311 16.2325 20.3311H16.6011L16.6933 20.8968C16.6242 20.9195 16.5397 20.9383 16.4399 20.9534C16.34 20.9723 16.2402 20.9855 16.1403 20.993C16.0405 21.0043 15.956 21.01 15.8869 21.01C15.6296 21.01 15.428 20.9421 15.2821 20.8063C15.14 20.6706 15.069 20.4801 15.069 20.235L15.0632 17.3724H15.9215ZM16.7163 18.1475V18.6962H14.5679V18.1758L15.1208 18.1475H16.7163ZM18.1227 18.1475V19.986C18.1227 20.103 18.1477 20.1859 18.1976 20.235C18.2513 20.284 18.3358 20.3085 18.451 20.3085C18.5701 20.3085 18.6872 20.2878 18.8024 20.2463C18.9214 20.201 19.0673 20.1312 19.2401 20.037L19.3093 20.4952C19.1019 20.6724 18.8984 20.8044 18.6987 20.8912C18.499 20.9779 18.2936 21.0213 18.0824 21.0213C17.5409 21.0213 17.2702 20.7611 17.2702 20.2406V18.1475H18.1227ZM20.0062 18.1475V20.9421H19.3323L19.2344 20.3934L19.1537 20.3142V18.1475H20.0062ZM22.3204 18.0739C22.5585 18.0739 22.7601 18.106 22.9252 18.1701C23.0904 18.2304 23.2152 18.336 23.2996 18.4869C23.388 18.634 23.4321 18.8376 23.4321 19.0979V20.9421H22.7524L22.6315 20.3368L22.5739 20.2519V19.0922C22.5739 18.9602 22.5412 18.864 22.476 18.8037C22.4145 18.7434 22.2955 18.7132 22.1188 18.7132C21.9729 18.7132 21.7905 18.7188 21.5716 18.7302C21.3528 18.7377 21.1281 18.749 20.8977 18.7641L20.8171 18.2097C20.9553 18.1833 21.1147 18.1607 21.2952 18.1418C21.4756 18.123 21.6561 18.1079 21.8366 18.0966C22.0171 18.0815 22.1784 18.0739 22.3204 18.0739ZM23.0808 19.2223L23.075 19.6919L21.8078 19.6975C21.7041 19.6975 21.6292 19.722 21.5832 19.7711C21.5409 19.8201 21.5198 19.8861 21.5198 19.9691V20.1048C21.5198 20.1991 21.5467 20.2727 21.6004 20.3255C21.6542 20.3745 21.7406 20.399 21.8596 20.399C21.9595 20.399 22.067 20.3783 22.1822 20.3368C22.3012 20.2953 22.4184 20.2368 22.5336 20.1614C22.6488 20.086 22.7505 19.9974 22.8388 19.8955V20.2576C22.8043 20.3142 22.7524 20.3858 22.6833 20.4726C22.618 20.5555 22.5336 20.6385 22.4299 20.7215C22.3262 20.8007 22.2052 20.8686 22.067 20.9251C21.9288 20.9817 21.7713 21.01 21.5947 21.01C21.4219 21.01 21.2664 20.9798 21.1281 20.9195C20.9899 20.8591 20.8804 20.7705 20.7998 20.6536C20.7192 20.5367 20.6788 20.3915 20.6788 20.218V19.9295C20.6788 19.707 20.7556 19.5335 20.9092 19.409C21.0628 19.2846 21.274 19.2223 21.5428 19.2223H23.0808ZM25.0755 16.9821L25.0697 20.0483C25.0697 20.1426 25.0985 20.2142 25.1561 20.2632C25.2137 20.3085 25.2982 20.3311 25.4096 20.3311H25.64L25.7379 20.8968C25.6918 20.9195 25.6265 20.9383 25.5421 20.9534C25.4576 20.9723 25.3712 20.9855 25.2829 20.993C25.1945 21.0043 25.1197 21.01 25.0582 21.01C24.8009 21.01 24.5974 20.944 24.4477 20.812C24.2979 20.68 24.223 20.4952 24.223 20.2576V16.9821H25.0755ZM27.8527 16.9595C28.1676 16.9595 28.4344 16.9934 28.6533 17.0613C28.8722 17.1254 29.0469 17.2348 29.1775 17.3894C29.3119 17.5403 29.4098 17.7477 29.4712 18.0117C29.5327 18.2719 29.5634 18.5982 29.5634 18.9904C29.5634 19.3826 29.5327 19.7107 29.4712 19.9747C29.4098 20.235 29.3119 20.4424 29.1775 20.597C29.0469 20.7479 28.8722 20.8572 28.6533 20.9251C28.4344 20.9892 28.1676 21.0213 27.8527 21.0213C27.5378 21.0213 27.2709 20.9892 27.052 20.9251C26.8332 20.8572 26.6565 20.7479 26.5221 20.597C26.3877 20.4424 26.2898 20.235 26.2284 19.9747C26.1669 19.7107 26.1362 19.3826 26.1362 18.9904C26.1362 18.5982 26.1669 18.2719 26.2284 18.0117C26.2898 17.7477 26.3877 17.5403 26.5221 17.3894C26.6565 17.2348 26.8332 17.1254 27.052 17.0613C27.2709 16.9934 27.5378 16.9595 27.8527 16.9595ZM27.8527 17.644C27.6492 17.644 27.4898 17.6836 27.3746 17.7628C27.2632 17.842 27.1826 17.9796 27.1327 18.1758C27.0866 18.3681 27.0636 18.6396 27.0636 18.9904C27.0636 19.3374 27.0866 19.6089 27.1327 19.805C27.1826 20.0011 27.2632 20.1388 27.3746 20.218C27.4898 20.2972 27.6492 20.3368 27.8527 20.3368C28.0524 20.3368 28.2079 20.2972 28.3192 20.218C28.4344 20.1388 28.5151 20.0011 28.5612 19.805C28.6111 19.6089 28.636 19.3374 28.636 18.9904C28.636 18.6396 28.6111 18.3681 28.5612 18.1758C28.5151 17.9796 28.4344 17.842 28.3192 17.7628C28.2079 17.6836 28.0524 17.644 27.8527 17.644ZM32.2791 18.0739C32.8167 18.0739 33.0855 18.3323 33.0855 18.849V20.9421H32.233V19.1092C32.233 18.9847 32.21 18.8999 32.1639 18.8546C32.1178 18.8056 32.0391 18.7811 31.9277 18.7811C31.8049 18.7811 31.6781 18.8056 31.5476 18.8546C31.417 18.8999 31.2557 18.9715 31.0637 19.0696L31.0234 18.6C31.2269 18.4303 31.4343 18.3002 31.6455 18.2097C31.8605 18.1192 32.0717 18.0739 32.2791 18.0739ZM30.9831 18.1475L31.081 18.7019L31.1501 18.7754V20.9421H30.2977V18.1475H30.9831ZM35.2201 18.0739C35.7001 18.0739 36.0438 18.155 36.2511 18.3172C36.4623 18.4756 36.5679 18.7132 36.5679 19.03C36.5718 19.2864 36.5065 19.4788 36.3721 19.607C36.2377 19.7315 36.0054 19.7937 35.6751 19.7937H34.0854V19.3242H35.439C35.5695 19.3242 35.6521 19.2978 35.6867 19.245C35.7251 19.1884 35.7443 19.1111 35.7443 19.013C35.7404 18.881 35.7001 18.7905 35.6233 18.7415C35.5503 18.6887 35.4255 18.6623 35.2489 18.6623C35.0915 18.6623 34.9686 18.683 34.8803 18.7245C34.7919 18.766 34.7305 18.8452 34.6959 18.9621C34.6614 19.079 34.6441 19.2487 34.6441 19.4712C34.6441 19.7051 34.6652 19.8861 34.7075 20.0143C34.7497 20.1388 34.8207 20.2255 34.9206 20.2746C35.0243 20.3236 35.1663 20.3481 35.3468 20.3481C35.4774 20.3481 35.6387 20.3443 35.8307 20.3368C36.0265 20.3255 36.2223 20.3085 36.4182 20.2859L36.4988 20.8007C36.3875 20.8535 36.2607 20.895 36.1187 20.9251C35.9766 20.9553 35.8307 20.976 35.6809 20.9874C35.5311 21.0024 35.3871 21.01 35.2489 21.01C34.8879 21.01 34.5961 20.9591 34.3734 20.8572C34.1545 20.7516 33.9951 20.5914 33.8953 20.3764C33.7993 20.1614 33.7513 19.8861 33.7513 19.5504C33.7513 19.1846 33.8012 18.8942 33.9011 18.6792C34.0009 18.4643 34.1583 18.3096 34.3734 18.2154C34.5884 18.1211 34.8707 18.0739 35.2201 18.0739ZM12.2296 24.6532L12.3333 25.2076L12.414 25.2811V27.4478H11.5615V24.6532H12.2296ZM13.6178 24.5796L13.5372 25.3547H13.301C13.1666 25.3547 13.0264 25.3735 12.8805 25.4112C12.7346 25.449 12.5503 25.5055 12.3275 25.581L12.2699 25.1114C12.4696 24.9379 12.6712 24.8059 12.8748 24.7154C13.0783 24.6249 13.276 24.5796 13.468 24.5796H13.6178ZM15.4434 24.5796C15.8005 24.5796 16.0866 24.6287 16.3016 24.7267C16.5167 24.821 16.6703 24.9756 16.7624 25.1906C16.8584 25.4056 16.9064 25.6941 16.9064 26.0562C16.9064 26.4107 16.8584 26.6954 16.7624 26.9104C16.6703 27.1254 16.5167 27.28 16.3016 27.3743C16.0866 27.4686 15.8005 27.5157 15.4434 27.5157C15.0901 27.5157 14.804 27.4686 14.5851 27.3743C14.3701 27.28 14.2146 27.1254 14.1186 26.9104C14.0226 26.6954 13.9746 26.4107 13.9746 26.0562C13.9746 25.6941 14.0226 25.4056 14.1186 25.1906C14.2146 24.9756 14.3701 24.821 14.5851 24.7267C14.804 24.6287 15.0901 24.5796 15.4434 24.5796ZM15.4434 25.1906C15.2975 25.1906 15.1823 25.2151 15.0978 25.2642C15.0133 25.3132 14.9538 25.3999 14.9192 25.5244C14.8847 25.6488 14.8674 25.8261 14.8674 26.0562C14.8674 26.2824 14.8847 26.4578 14.9192 26.5823C14.9538 26.7067 15.0133 26.7935 15.0978 26.8425C15.1823 26.8878 15.2975 26.9104 15.4434 26.9104C15.5893 26.9104 15.7045 26.8878 15.789 26.8425C15.8735 26.7935 15.933 26.7067 15.9675 26.5823C16.0021 26.4578 16.0194 26.2824 16.0194 26.0562C16.0194 25.8261 16.0021 25.6488 15.9675 25.5244C15.933 25.3999 15.8735 25.3132 15.789 25.2642C15.7045 25.2151 15.5893 25.1906 15.4434 25.1906ZM18.6973 23.8782V26.554C18.6973 26.6558 18.7203 26.7294 18.7664 26.7746C18.8163 26.8161 18.897 26.8368 19.0083 26.8368H19.377L19.4691 27.4026C19.4 27.4252 19.3155 27.444 19.2157 27.4591C19.1159 27.478 19.016 27.4912 18.9162 27.4987C18.8163 27.51 18.7319 27.5157 18.6627 27.5157C18.4055 27.5157 18.2039 27.4478 18.0579 27.312C17.9159 27.1763 17.8448 26.9858 17.8448 26.7407L17.8391 23.8782H18.6973ZM19.4922 24.6532V25.2019H17.3437V24.6815L17.8967 24.6532H19.4922ZM21.4169 24.5796C21.7741 24.5796 22.0601 24.6287 22.2752 24.7267C22.4902 24.821 22.6438 24.9756 22.736 25.1906C22.832 25.4056 22.88 25.6941 22.88 26.0562C22.88 26.4107 22.832 26.6954 22.736 26.9104C22.6438 27.1254 22.4902 27.28 22.2752 27.3743C22.0601 27.4686 21.7741 27.5157 21.4169 27.5157C21.0637 27.5157 20.7776 27.4686 20.5587 27.3743C20.3437 27.28 20.1881 27.1254 20.0921 26.9104C19.9961 26.6954 19.9481 26.4107 19.9481 26.0562C19.9481 25.6941 19.9961 25.4056 20.0921 25.1906C20.1881 24.9756 20.3437 24.821 20.5587 24.7267C20.7776 24.6287 21.0637 24.5796 21.4169 24.5796ZM21.4169 25.1906C21.271 25.1906 21.1558 25.2151 21.0713 25.2642C20.9869 25.3132 20.9273 25.3999 20.8928 25.5244C20.8582 25.6488 20.8409 25.8261 20.8409 26.0562C20.8409 26.2824 20.8582 26.4578 20.8928 26.5823C20.9273 26.7067 20.9869 26.7935 21.0713 26.8425C21.1558 26.8878 21.271 26.9104 21.4169 26.9104C21.5629 26.9104 21.6781 26.8878 21.7625 26.8425C21.847 26.7935 21.9065 26.7067 21.9411 26.5823C21.9757 26.4578 21.9929 26.2824 21.9929 26.0562C21.9929 25.8261 21.9757 25.6488 21.9411 25.5244C21.9065 25.3999 21.847 25.3132 21.7625 25.2642C21.6781 25.2151 21.5629 25.1906 21.4169 25.1906ZM24.9008 24.5796C25.0045 24.5796 25.1178 24.5853 25.2407 24.5966C25.3635 24.6042 25.4864 24.6211 25.6093 24.6475C25.736 24.6702 25.8512 24.7041 25.9549 24.7494L25.8627 25.2755C25.7091 25.2717 25.5613 25.2679 25.4192 25.2642C25.281 25.2604 25.1562 25.2585 25.0448 25.2585C24.872 25.2585 24.7357 25.2811 24.6359 25.3264C24.536 25.3716 24.4631 25.4527 24.417 25.5696C24.3747 25.6828 24.3536 25.8412 24.3536 26.0448C24.3536 26.2523 24.3747 26.4144 24.417 26.5314C24.4631 26.6483 24.536 26.7294 24.6359 26.7746C24.7357 26.8199 24.872 26.8425 25.0448 26.8425C25.1063 26.8425 25.185 26.8406 25.281 26.8368C25.377 26.8331 25.4807 26.8293 25.592 26.8255C25.7034 26.818 25.8128 26.8067 25.9203 26.7916L26.001 27.3234C25.8474 27.3912 25.6727 27.4403 25.4768 27.4704C25.281 27.5006 25.0871 27.5157 24.8951 27.5157C24.5418 27.5157 24.2595 27.4686 24.0483 27.3743C23.841 27.2762 23.6912 27.1197 23.5991 26.9047C23.5069 26.6898 23.4608 26.4031 23.4608 26.0448C23.4608 25.6866 23.5069 25.3999 23.5991 25.185C23.6951 24.97 23.8487 24.8154 24.0599 24.7211C24.2711 24.6268 24.5514 24.5796 24.9008 24.5796ZM27.9417 24.5796C28.2988 24.5796 28.5849 24.6287 28.7999 24.7267C29.0149 24.821 29.1685 24.9756 29.2607 25.1906C29.3567 25.4056 29.4047 25.6941 29.4047 26.0562C29.4047 26.4107 29.3567 26.6954 29.2607 26.9104C29.1685 27.1254 29.0149 27.28 28.7999 27.3743C28.5849 27.4686 28.2988 27.5157 27.9417 27.5157C27.5884 27.5157 27.3023 27.4686 27.0834 27.3743C26.8684 27.28 26.7129 27.1254 26.6169 26.9104C26.5209 26.6954 26.4729 26.4107 26.4729 26.0562C26.4729 25.6941 26.5209 25.4056 26.6169 25.1906C26.7129 24.9756 26.8684 24.821 27.0834 24.7267C27.3023 24.6287 27.5884 24.5796 27.9417 24.5796ZM27.9417 25.1906C27.7957 25.1906 27.6806 25.2151 27.5961 25.2642C27.5116 25.3132 27.4521 25.3999 27.4175 25.5244C27.383 25.6488 27.3657 25.8261 27.3657 26.0562C27.3657 26.2824 27.383 26.4578 27.4175 26.5823C27.4521 26.7067 27.5116 26.7935 27.5961 26.8425C27.6806 26.8878 27.7957 26.9104 27.9417 26.9104C28.0876 26.9104 28.2028 26.8878 28.2873 26.8425C28.3718 26.7935 28.4313 26.7067 28.4658 26.5823C28.5004 26.4578 28.5177 26.2824 28.5177 26.0562C28.5177 25.8261 28.5004 25.6488 28.4658 25.5244C28.4313 25.3999 28.3718 25.3132 28.2873 25.2642C28.2028 25.2151 28.0876 25.1906 27.9417 25.1906ZM30.959 23.4878L30.9533 26.554C30.9533 26.6483 30.9821 26.7199 31.0397 26.769C31.0973 26.8142 31.1818 26.8368 31.2931 26.8368H31.5235L31.6214 27.4026C31.5754 27.4252 31.5101 27.444 31.4256 27.4591C31.3411 27.478 31.2547 27.4912 31.1664 27.4987C31.0781 27.51 31.0032 27.5157 30.9418 27.5157C30.6845 27.5157 30.481 27.4497 30.3312 27.3177C30.1814 27.1857 30.1066 27.0009 30.1066 26.7633V23.4878H30.959Z" stroke="#AC47FF" stroke-width="0.2"/>
</g>
<defs>
<clipPath id="clip0_404_765">
<rect width="29.04" height="10.56" fill="white" transform="translate(7.54004 16.9585)"/>
</clipPath>
</defs>
</svg>
