<svg width="123" height="193" viewBox="0 0 123 193" fill="none" xmlns="http://www.w3.org/2000/svg">
<path d="M1.22718 16.5439C0.468059 16.8756 0.121572 17.7598 0.453279 18.519C0.784986 19.2781 1.66928 19.6246 2.42839 19.2929L1.22718 16.5439ZM75.0355 191.455C75.2918 192.242 76.1382 192.673 76.926 192.417L89.7636 188.24C90.5514 187.984 90.9823 187.137 90.726 186.35C90.4697 185.562 89.6233 185.131 88.8355 185.387L77.4242 189.1L73.7116 177.689C73.4553 176.901 72.6089 176.47 71.8211 176.726C71.0333 176.983 70.6025 177.829 70.8588 178.617L75.0355 191.455ZM2.42839 19.2929C19.7738 11.7136 39.7315 5.55236 58.2072 3.83559C76.7235 2.11503 93.4633 4.88059 104.709 14.7919C115.893 24.6489 122.037 41.9355 118.567 70.2023C115.095 98.4766 102.023 137.47 75.1251 190.31L77.7987 191.671C104.762 138.702 118.011 99.3467 121.544 70.5679C125.079 41.7815 118.912 23.3105 106.693 12.5413C94.5351 1.82635 76.7787 -0.903026 57.9296 0.848453C39.0398 2.60371 18.7626 8.88152 1.22718 16.5439L2.42839 19.2929Z" fill="#FFD335"/>
</svg>
