<svg width="92" height="86" viewBox="0 0 92 86" fill="none" xmlns="http://www.w3.org/2000/svg">
<path d="M45.8083 36.6144C31.5316 72.8552 62.0398 114.807 83.4768 47.5965C104.914 -19.6137 60.085 0.373599 45.8083 36.6144Z" stroke="#AC47FF" stroke-width="5" stroke-linecap="round"/>
<path d="M53.9402 39.264C45.3742 61.0085 63.6791 86.1794 76.5412 45.8533C89.4034 5.52717 62.5062 17.5196 53.9402 39.264Z" stroke="#AC47FF" stroke-width="5" stroke-linecap="round"/>
<path d="M60.0387 41.2513C55.7557 52.1235 64.9081 64.709 71.3392 44.5459C77.7703 24.3828 64.3217 30.379 60.0387 41.2513Z" stroke="#AC47FF" stroke-width="5" stroke-linecap="round"/>
<path d="M63.3046 42.5761C61.8769 46.2002 64.9277 50.3953 67.0714 43.6743C69.2151 36.9533 64.7322 38.952 63.3046 42.5761Z" stroke="#AC47FF" stroke-width="5" stroke-linecap="round"/>
<path d="M5.33838 30.4385C22.5835 33.5194 39.4165 37.4414 56.5165 40.8244C59.5606 41.4267 62.7649 41.9815 65.3384 43.2385" stroke="#FFD335" stroke-width="2" stroke-linecap="round"/>
<path d="M5.04267 30.094C4.53011 29.8378 3.67726 28.1921 3.17605 27.6408C2.85943 27.2925 2.19021 26.5086 2.16274 26.0141C2.09544 24.8028 7.46613 25.8664 8.18927 26.0141C10.1928 26.4234 11.9111 27.2141 13.9758 27.2141C14.8498 27.2141 15.6736 27.5114 16.5358 27.6408C17.5607 27.7945 17.9778 28.5885 18.8024 29.2141C19.4601 29.713 20.2977 30.2572 20.8823 30.814C21.57 31.4689 22.6115 32.9104 23.5223 33.214" stroke="#FFD335" stroke-width="2" stroke-linecap="round"/>
<path d="M7.20264 26.734C8.39177 28.4847 10.1311 29.8068 11.2825 31.5339" stroke="#FFD335" stroke-width="2" stroke-linecap="round"/>
<path d="M12.4824 27.6942C13.2878 28.8114 14.118 30.912 15.3624 31.5341" stroke="#FFD335" stroke-width="2" stroke-linecap="round"/>
<path d="M15.6021 28.1742C16.6241 29.2315 18.5362 30.9226 19.202 32.2541" stroke="#FFD335" stroke-width="2" stroke-linecap="round"/>
<path d="M4.80263 31.0541C3.85524 31.3699 2.96476 33.792 2.21602 34.6007C1.85505 34.9905 1.2413 35.3519 1.69603 35.494C2.45408 35.7309 3.53772 35.7608 4.33598 35.8406C6.59958 36.067 8.68917 36.862 10.6958 37.9606C13.0535 39.2513 15.8743 41.7069 17.5357 38.1073C18.054 36.9843 18.687 35.3913 20.029 35.1473C20.6168 35.0404 21.3552 34.9787 21.8423 34.654" stroke="#FFD335" stroke-width="2" stroke-linecap="round"/>
<path d="M8.40242 32.254C7.53034 33.223 5.40028 36.5739 4.08252 36.5739" stroke="#FFD335" stroke-width="2" stroke-linecap="round"/>
<path d="M13.6824 32.254C13.0104 33.4637 11.9718 35.2545 10.9225 36.0939C10.5783 36.3693 10.4088 36.8908 10.0825 37.0539" stroke="#FFD335" stroke-width="2" stroke-linecap="round"/>
<path d="M17.0418 33.4541C16.4034 33.7095 15.5997 35.3807 15.3085 36.0407C14.8141 37.1614 13.9862 38.7711 12.9619 39.454" stroke="#FFD335" stroke-width="2" stroke-linecap="round"/>
<path d="M63.8411 41.8539C63.8411 43.0141 63.8411 41.8784 63.8411 41.3739C63.8411 40.2589 64.513 41.9114 64.6811 42.2139C64.8236 42.4705 65.7018 43.6708 65.3877 43.7606C64.9538 43.8845 62.8804 44.0125 62.6411 43.5339" stroke="#FFD335" stroke-width="2" stroke-linecap="round"/>
</svg>
