<svg width="305" height="244" viewBox="0 0 305 244" fill="none" xmlns="http://www.w3.org/2000/svg">
<path d="M0.231308 47.6983C-0.121944 48.1228 -0.064156 48.7533 0.360381 49.1066L7.27861 54.8632C7.70315 55.2164 8.33367 55.1586 8.68692 54.7341C9.04017 54.3095 8.98238 53.679 8.55785 53.3258L2.40831 48.2088L7.52526 42.0593C7.87852 41.6347 7.82073 41.0042 7.39619 40.651C6.97165 40.2977 6.34113 40.3555 5.98788 40.78L0.231308 47.6983ZM106.073 58.6396L105.886 59.6219L106.073 58.6396ZM167.122 142.526C167.188 143.074 167.687 143.464 168.235 143.397C168.783 143.331 169.174 142.832 169.107 142.284L167.122 142.526ZM1.09127 49.3337C14.5095 48.1039 33.7848 47.9368 48.0894 51.3764C55.2651 53.1018 61.0059 55.6933 64.1955 59.3435C65.7706 61.1462 66.7238 63.2062 66.9351 65.5796C67.1474 67.9649 66.6167 70.7414 65.0953 73.9715L66.9046 74.8237C68.5353 71.3615 69.1787 68.2273 68.9272 65.4023C68.6746 62.5655 67.526 60.1156 65.7016 58.0276C62.0919 53.8965 55.8422 51.1836 48.557 49.4318C33.9395 45.917 14.4107 46.1046 0.908732 47.3421L1.09127 49.3337ZM65.0953 73.9715C61.8483 80.8654 58.6404 85.4486 55.7233 88.2654C52.7979 91.0903 50.2557 92.0573 48.3041 91.9585C46.3934 91.8618 44.8071 90.7298 43.7638 88.7844C42.7118 86.8228 42.2464 84.071 42.6711 80.9616C43.5164 74.7736 47.8802 67.3085 57.7285 62.4379C67.59 57.5607 83.0012 55.2685 105.886 59.6219L106.26 57.6572C83.1132 53.2539 67.2218 55.5115 56.8419 60.6451C46.4487 65.7853 41.632 73.7918 40.6895 80.6909C40.2204 84.1251 40.7093 87.3207 42.0012 89.7297C43.3018 92.1548 45.4491 93.8165 48.203 93.9559C50.9161 94.0933 53.9697 92.7389 57.1126 89.7041C60.2638 86.6613 63.5968 81.8466 66.9046 74.8237L65.0953 73.9715ZM105.886 59.6219C136.591 65.4629 150.316 74.7419 157.208 88.0283C160.679 94.7223 162.461 102.514 163.721 111.583C164.989 120.713 165.701 130.855 167.122 142.526L169.107 142.284C167.711 130.819 166.964 120.389 165.702 111.307C164.432 102.165 162.612 94.1052 158.983 87.1075C151.671 73.0101 137.193 63.5416 106.26 57.6572L105.886 59.6219Z" fill="#FFD335"/>
<path d="M76.4963 173.046C76.4964 173.579 76.54 174.336 76.6268 175.316C76.7123 176.281 76.9643 177.443 77.3827 178.802L75.6211 179.9L74.2181 173.624C73.6664 173.594 73.3775 173.432 73.3513 173.136C73.332 172.918 73.4338 172.65 73.6566 172.332C73.895 172.013 74.0682 171.755 74.1762 171.557C74.2827 171.344 74.3335 171.12 74.3284 170.885C74.3374 170.633 74.3377 170.194 74.3293 169.567C74.3208 168.94 74.3011 168.275 74.2702 167.572C74.2548 166.868 74.2351 166.203 74.2111 165.578C74.2027 164.951 74.1874 164.513 74.1653 164.264C74.4774 163.891 74.7078 163.659 74.8566 163.567C75.2277 163.331 75.4992 163.385 75.671 163.731L76.1824 171.097C80.0268 170.756 82.316 170.303 83.05 169.736L82.3965 162.358C82.4664 162.085 82.8905 161.914 83.6687 161.846C83.8399 161.83 83.9807 161.826 84.091 161.832C84.1172 162.127 84.1649 162.578 84.2343 163.184C84.3178 163.772 84.4011 164.447 84.4843 165.209C84.583 165.968 84.6858 166.775 84.7927 167.628C84.8983 168.466 85.0005 169.265 85.0992 170.025C85.2865 171.608 85.4288 172.772 85.5261 173.516C85.8005 175.374 86.3156 176.85 87.0713 177.944C86.3958 178.286 85.6378 178.495 84.7973 178.569C83.9242 176.858 83.3367 174.565 83.0349 171.69C82.0049 171.75 81.3032 171.796 80.9297 171.829C80.5561 171.862 80.138 171.923 79.6752 172.011C78.7157 172.159 77.6561 172.504 76.4963 173.046ZM93.6617 176.513C95.0313 176.392 97.0384 175.587 99.683 174.097C99.8542 174.082 99.9998 174.132 100.12 174.247C100.238 174.346 100.305 174.474 100.318 174.629C99.7895 175.743 98.6719 176.673 96.9656 177.42C95.2593 178.168 93.6262 178.414 92.0665 178.16C90.2989 177.862 89.1621 176.982 88.6562 175.521C88.5989 175.228 88.5482 174.833 88.504 174.335C88.4599 173.837 88.5265 173.172 88.7038 172.341C88.8954 171.492 89.27 170.675 89.8277 169.888C90.3855 169.101 91.066 168.461 91.8692 167.966C92.6725 167.471 93.5488 167.182 94.4982 167.098C95.4009 167.018 96.4401 167.24 97.6159 167.763C98.1713 168.012 98.6211 168.309 98.9655 168.655C99.3099 169.001 99.4993 169.369 99.5338 169.758C99.5434 169.867 99.5453 169.976 99.5394 170.087C99.5924 171.039 99.1863 171.679 98.3212 172.006C97.9418 172.15 97.4953 172.244 96.9816 172.29L93.6074 172.447C92.4868 172.547 91.6521 172.864 91.1034 173.399C90.7845 173.694 90.5784 174.112 90.4852 174.653C90.9998 176.035 92.0586 176.655 93.6617 176.513ZM97.1782 168.931C96.8137 168.712 96.4399 168.565 96.0567 168.489C95.6735 168.413 95.3574 168.386 95.1084 168.409C94.8594 168.431 94.4623 168.552 93.9172 168.773C93.3706 168.978 92.8885 169.201 92.4706 169.442C91.4408 170.035 90.95 170.604 90.9983 171.149C92.2531 171.148 93.1917 171.119 93.8143 171.064C95.5419 170.911 96.6961 170.66 97.2769 170.311C97.6366 170.122 97.8062 169.911 97.7855 169.677C97.7607 169.397 97.5582 169.148 97.1782 168.931ZM108.161 185.746C107.899 186.507 107.543 186.907 107.091 186.947C106.874 186.966 106.701 186.879 106.574 186.687C106.464 186.508 106.444 186.283 106.514 186.01C106.728 184.532 107.073 182.839 107.547 180.93C108.036 179.02 108.362 177.736 108.523 177.079C107.93 176.582 106.978 175.569 105.665 174.038C102.971 170.888 101.609 169.15 101.58 168.823C101.579 168.808 101.585 168.792 101.599 168.775L102.408 167.809C103.738 168.836 105.512 170.624 107.73 173.173C108.289 173.813 108.737 174.354 109.074 174.795C109.343 174.112 109.55 173.529 109.695 173.046C109.839 172.547 109.953 172.152 110.037 171.862C110.136 171.556 110.265 171.152 110.424 170.652C110.839 169.313 111.425 167.606 112.182 165.531C112.317 165.457 112.462 165.412 112.618 165.399C113.007 165.364 113.296 165.44 113.485 165.628C113.554 165.7 113.594 165.79 113.603 165.899C113.611 165.993 113.604 166.088 113.581 166.184L108.161 185.746ZM135.898 162.865L133.816 163.003C133.271 163.051 132.646 163.161 131.94 163.334C131.962 163.944 131.97 164.735 131.962 165.708C131.938 169.161 131.972 171.401 132.063 172.429C132.153 173.44 132.232 174.155 132.3 174.572L130.12 174.93L129.822 163.333L124.824 163.494C124.7 163.505 124.59 163.412 124.494 163.217C124.414 163.02 124.366 162.836 124.351 162.665C124.336 162.494 124.389 162.301 124.511 162.086C124.634 161.871 124.788 161.756 124.975 161.739C126.115 161.685 127.266 161.662 128.427 161.669C130.576 161.666 132.398 161.599 133.892 161.467L135.335 161.292C136.469 161.16 137.586 160.936 138.687 160.618C138.94 160.643 139.13 161.018 139.258 161.744C139.287 161.899 139.306 162.022 139.314 162.116C138.313 162.503 137.174 162.752 135.898 162.865ZM152.421 172.625C152.304 172.902 151.95 173.067 151.359 173.119C150.783 173.17 150.476 172.986 150.439 172.565C150.277 170.729 150.126 169.472 149.987 168.794C149.714 167.296 149.346 166.513 148.885 166.444C147.745 166.326 146.817 166.298 146.101 166.362C145.401 166.424 144.837 166.693 144.408 167.17C143.994 167.631 143.707 168.37 143.546 169.388C143.399 170.389 143.351 171.789 143.401 173.589L141.603 173.748C141.555 172.858 141.498 172.032 141.43 171.269C141.363 170.507 141.267 169.605 141.144 168.565C141.019 167.51 140.878 166.362 140.721 165.121C140.516 163.696 140.37 162.493 140.284 161.512C140.195 160.516 140.177 159.6 140.228 158.764C140.358 158.455 140.57 158.287 140.866 158.261C141.224 158.229 141.516 158.336 141.742 158.583C141.966 158.814 142.095 159.03 142.129 159.231L142.353 163.094C142.481 164.541 142.647 165.617 142.851 166.32C144.169 165.262 145.575 164.667 147.069 164.535C147.551 164.492 148.069 164.485 148.62 164.515C149.841 165.018 150.661 165.597 151.08 166.25C151.283 166.593 151.425 166.964 151.508 167.365C151.59 167.765 151.662 168.222 151.723 168.734C151.974 170.5 152.206 171.797 152.421 172.625ZM158.41 170.777C159.779 170.656 161.786 169.85 164.431 168.361C164.602 168.346 164.748 168.396 164.868 168.511C164.986 168.61 165.052 168.737 165.066 168.893C164.537 170.007 163.42 170.937 161.714 171.684C160.007 172.432 158.374 172.678 156.814 172.424C155.047 172.126 153.91 171.246 153.404 169.785C153.347 169.492 153.296 169.097 153.252 168.599C153.208 168.101 153.274 167.436 153.452 166.604C153.643 165.756 154.018 164.939 154.576 164.152C155.133 163.365 155.814 162.725 156.617 162.23C157.42 161.735 158.297 161.446 159.246 161.362C160.149 161.282 161.188 161.503 162.364 162.027C162.919 162.276 163.369 162.573 163.713 162.919C164.058 163.265 164.247 163.632 164.282 164.021C164.291 164.13 164.293 164.24 164.287 164.35C164.34 165.303 163.934 165.942 163.069 166.27C162.69 166.413 162.243 166.508 161.73 166.553L158.355 166.711C157.235 166.81 156.4 167.128 155.851 167.662C155.532 167.957 155.326 168.376 155.233 168.917C155.748 170.299 156.807 170.919 158.41 170.777ZM161.926 163.195C161.562 162.976 161.188 162.829 160.805 162.753C160.422 162.677 160.105 162.65 159.856 162.672C159.607 162.694 159.21 162.816 158.665 163.037C158.119 163.242 157.636 163.465 157.219 163.706C156.189 164.299 155.698 164.868 155.746 165.413C157.001 165.412 157.94 165.383 158.562 165.328C160.29 165.175 161.444 164.924 162.025 164.574C162.385 164.386 162.554 164.175 162.533 163.941C162.509 163.661 162.306 163.412 161.926 163.195ZM177.912 162.108C177.217 161.699 176.356 161.54 175.328 161.631C174.363 161.717 173.484 161.975 172.691 162.406C171.193 163.197 170.201 164.132 169.716 165.211C169.508 165.7 169.428 166.209 169.475 166.738C169.483 166.831 169.507 167.096 169.545 167.532C169.582 167.952 169.711 168.521 169.932 169.239C170.151 169.941 170.293 170.665 170.36 171.412C170.034 171.457 169.773 171.519 169.576 171.599C169.379 171.68 169.211 171.726 169.071 171.738C168.931 171.751 168.801 171.7 168.681 171.585C168.576 171.468 168.446 171.237 168.29 170.89C168.266 170.798 168.211 170.536 168.126 170.104C168.041 169.673 167.932 169.149 167.799 168.533C167.681 167.916 167.543 167.246 167.385 166.523C167.241 165.783 167.099 165.058 166.957 164.349C166.648 162.808 166.415 161.676 166.256 160.952C166.223 160.579 166.479 160.368 167.024 160.32C167.351 160.291 167.62 160.408 167.832 160.672C168.042 160.92 168.217 161.218 168.358 161.566C168.497 161.899 168.598 162.235 168.659 162.575C168.736 162.913 168.796 163.151 168.84 163.288C170.732 161.27 173.203 160.125 176.253 159.855C176.596 159.825 176.954 159.801 177.329 159.783C177.421 159.759 177.537 159.741 177.677 159.729C177.817 159.716 177.966 159.797 178.122 159.972C178.313 160.175 178.422 160.432 178.45 160.743C178.519 161.521 178.339 161.976 177.912 162.108ZM185.49 168.378C186.86 168.257 188.867 167.451 191.511 165.962C191.683 165.947 191.828 165.997 191.948 166.112C192.067 166.211 192.133 166.338 192.147 166.494C191.618 167.608 190.5 168.538 188.794 169.285C187.088 170.032 185.455 170.279 183.895 170.025C182.127 169.727 180.991 168.847 180.485 167.386C180.427 167.093 180.377 166.698 180.333 166.2C180.288 165.701 180.355 165.037 180.532 164.205C180.724 163.357 181.098 162.54 181.656 161.753C182.214 160.966 182.894 160.326 183.698 159.831C184.501 159.336 185.377 159.047 186.327 158.963C187.229 158.883 188.269 159.104 189.444 159.628C190 159.876 190.45 160.174 190.794 160.52C191.138 160.866 191.328 161.233 191.362 161.622C191.372 161.731 191.374 161.841 191.368 161.951C191.421 162.903 191.015 163.543 190.15 163.871C189.77 164.014 189.324 164.109 188.81 164.154L185.436 164.312C184.315 164.411 183.481 164.728 182.932 165.263C182.613 165.558 182.407 165.977 182.314 166.518C182.828 167.9 183.887 168.52 185.49 168.378ZM189.007 160.796C188.642 160.577 188.268 160.43 187.885 160.354C187.502 160.278 187.186 160.251 186.937 160.273C186.688 160.295 186.291 160.417 185.746 160.638C185.199 160.843 184.717 161.066 184.299 161.307C183.269 161.9 182.778 162.469 182.827 163.014C184.082 163.012 185.02 162.984 185.643 162.929C187.37 162.776 188.525 162.525 189.105 162.175C189.465 161.987 189.635 161.775 189.614 161.542C189.589 161.262 189.387 161.013 189.007 160.796ZM194.986 167.607C195.64 167.549 196.042 167.576 196.193 167.688C196.36 167.799 196.45 167.925 196.462 168.065C196.346 168.702 196.005 169.109 195.441 169.285C195.349 169.308 195.248 169.325 195.139 169.335C195.03 169.344 194.887 169.326 194.711 169.279C194.549 169.23 194.423 169.132 194.331 168.983C194.126 168.609 194.344 168.15 194.986 167.607ZM194.358 148.039C194.301 148.452 194.478 150.986 194.891 155.639C195.301 160.277 195.421 162.957 195.25 163.678L193.686 163.817C193.544 162.213 193.428 160.2 193.339 157.777C193.142 153.073 192.971 149.903 192.826 148.269L194.358 148.039ZM69.1321 228.631C68.1275 230.571 66.6718 231.845 64.7649 232.453C64.3218 232.587 63.9135 232.67 63.54 232.703C63.182 232.735 62.8785 232.762 62.6295 232.784C62.3946 232.789 62.1266 232.773 61.8254 232.737C61.5241 232.701 61.2428 232.624 60.9814 232.506C60.3765 232.23 60.0479 231.797 59.9955 231.205C59.9084 230.931 59.8497 230.622 59.8194 230.28C59.7877 229.922 59.8241 229.448 59.9288 228.858C60.0334 228.269 60.2584 227.621 60.6038 226.916C60.9647 226.21 61.4161 225.55 61.9579 224.937C63.0826 223.645 64.3458 222.765 65.7474 222.296C66.1593 222.165 66.5365 222.085 66.8789 222.054C67.2369 222.023 67.558 222.018 67.8423 222.039C68.745 221.96 69.4065 222.521 69.8267 223.723C70.098 224.483 70.3112 225.562 70.4664 226.96C70.6358 228.341 70.7699 229.411 70.8686 230.171C70.9815 230.914 71.1433 231.59 71.3541 232.199L69.9767 232.321C69.8772 231.906 69.7974 231.537 69.7373 231.213C69.6772 230.889 69.6192 230.588 69.5633 230.311C69.4275 229.664 69.2838 229.104 69.1321 228.631ZM68.7182 225.021C68.6382 224.118 68.1546 223.706 67.2675 223.785C67.1572 223.779 67.0475 223.78 66.9386 223.79C65.8024 223.891 64.6522 224.542 63.4881 225.743C62.9407 226.293 62.4846 226.898 62.1195 227.558C61.5755 228.501 61.3346 229.322 61.3966 230.022C61.478 230.941 62.0554 231.438 63.1289 231.516C64.5269 231.361 65.8089 230.604 66.9748 229.246C67.4713 228.653 67.8703 228.021 68.1717 227.351C68.5939 226.451 68.7761 225.674 68.7182 225.021ZM81.5939 226.28C81.4298 224.428 81.208 223.075 80.9285 222.221C81.0323 221.977 80.8352 221.877 80.3371 221.921C79.808 221.968 79.1349 222.161 78.3178 222.5C77.5008 222.839 76.8394 223.164 76.3337 223.475C75.1268 224.194 74.4788 224.848 74.3897 225.436L74.9523 231.786L73.3881 231.925C73.1389 231.413 72.9061 229.936 72.6896 227.492C72.4966 225.313 72.3934 223.707 72.3803 222.673C72.3826 221.637 72.401 221.047 72.4353 220.903C72.8165 220.603 73.1316 220.441 73.3806 220.419C73.7697 220.385 74.005 220.827 74.0863 221.745C74.118 222.103 74.1257 222.455 74.1093 222.802C74.1072 223.132 74.1116 223.359 74.1226 223.483C76.4799 221.408 78.3512 220.308 79.7364 220.186C81.3083 220.047 82.3156 221.236 82.7583 223.753C82.9303 224.632 83.0859 225.858 83.2252 227.43L83.3652 229.276C83.4259 229.961 83.5 230.621 83.5877 231.256C83.4403 231.363 83.32 231.421 83.2266 231.429C83.1785 231.418 83.0753 231.404 82.9169 231.386C82.7585 231.369 82.5541 231.364 82.3037 231.37C82.0929 230.761 81.9514 230.139 81.8793 229.502C81.8059 228.849 81.745 228.251 81.6967 227.706L81.5939 226.28ZM94.7551 211.373C94.8874 212.867 94.9704 214.334 95.0038 215.774C95.0515 217.198 95.0971 218.597 95.1406 219.974C95.1983 221.334 95.2954 222.784 95.4319 224.325C95.567 225.85 95.8194 227.459 96.1889 229.152C96.2207 229.51 96.1734 229.773 96.0471 229.941C95.9364 230.107 95.7254 230.205 95.4141 230.232C94.6826 230.297 94.263 229.722 94.1555 228.508L94.0872 227.738C92.0233 229.583 90.2287 230.574 88.7034 230.709C88.0964 230.763 87.4608 230.67 86.7964 230.431C86.1477 230.19 85.5032 229.643 84.8629 228.79C84.752 228.424 84.6793 228.046 84.6448 227.657C84.6103 227.268 84.639 226.795 84.7308 226.237C84.8368 225.663 85.0893 225.061 85.4883 224.429C85.9028 223.796 86.4169 223.225 87.0306 222.716C88.377 221.624 89.8829 221.005 91.5482 220.857C92.2642 220.794 92.9587 220.842 93.6317 221.002C93.6068 220.722 93.579 220.23 93.548 219.527C93.5327 218.822 93.5139 218.079 93.4916 217.297C93.4058 215.265 93.3625 214.069 93.362 213.708C93.36 213.332 93.3713 213.017 93.396 212.764C93.4348 212.494 93.5004 212.261 93.5928 212.064C93.7918 211.654 94.1792 211.424 94.7551 211.373ZM86.3325 227.319C86.4414 228.549 86.9395 229.124 87.8266 229.045C87.9667 229.033 88.121 229.004 88.2894 228.957C88.9275 228.901 89.697 228.644 90.5977 228.188C92.31 227.331 93.3379 226.628 93.6815 226.08L93.4064 222.975C93.3582 222.43 92.8905 222.197 92.0033 222.275C91.893 222.27 91.7444 222.275 91.5577 222.291C91.3865 222.307 91.1175 222.37 90.7509 222.481C90.3843 222.591 89.9764 222.769 89.5274 223.012C89.0784 223.256 88.6414 223.546 88.2162 223.882C87.3233 224.604 86.7358 225.409 86.4537 226.297C86.3426 226.636 86.3022 226.977 86.3325 227.319ZM113.864 237.445C113.602 238.205 113.245 238.605 112.794 238.645C112.576 238.665 112.403 238.578 112.277 238.385C112.167 238.207 112.147 237.981 112.217 237.708C112.431 236.23 112.775 234.537 113.249 232.629C113.738 230.719 114.064 229.435 114.225 228.777C113.632 228.281 112.68 227.267 111.368 225.736C108.673 222.587 107.311 220.849 107.282 220.522C107.281 220.506 107.287 220.49 107.301 220.473L108.11 219.507C109.44 220.535 111.214 222.323 113.432 224.871C113.991 225.512 114.439 226.053 114.776 226.493C115.045 225.811 115.252 225.228 115.397 224.744C115.541 224.245 115.656 223.851 115.74 223.561C115.838 223.254 115.967 222.851 116.127 222.35C116.541 221.011 117.127 219.305 117.885 217.23C118.019 217.155 118.164 217.111 118.32 217.097C118.709 217.063 118.998 217.139 119.187 217.326C119.256 217.398 119.296 217.489 119.305 217.598C119.314 217.691 119.306 217.786 119.284 217.882L113.864 237.445ZM121.947 223.387C121.785 221.551 122.447 220.002 123.936 218.741C125.118 217.742 126.588 217.07 128.345 216.726C128.439 216.718 128.657 216.699 128.999 216.669C129.342 216.638 129.81 216.699 130.403 216.85C131.718 217.173 132.658 217.866 133.223 218.93C133.448 219.349 133.575 219.714 133.602 220.025C133.629 220.321 133.639 220.532 133.635 220.658C133.807 222.603 133.204 224.202 131.824 225.454C130.546 226.602 128.879 227.267 126.825 227.449C125.346 227.58 124.195 227.337 123.372 226.72C122.564 226.101 122.089 224.99 121.947 223.387ZM123.608 223.805C123.693 224.77 124.008 225.401 124.552 225.698C124.963 225.912 125.628 225.979 126.546 225.898C127.464 225.816 128.268 225.675 128.956 225.472C129.644 225.27 130.245 224.974 130.759 224.583C131.86 223.733 132.341 222.521 132.202 220.95C132.119 220.016 131.803 219.275 131.252 218.728C130.651 218.138 129.907 217.882 129.019 217.961C128.422 218.124 127.818 218.295 127.206 218.474C126.61 218.653 126.056 218.945 125.543 219.351C124.427 220.219 123.782 221.703 123.608 223.805ZM135.29 223.546C135.268 223.297 135.215 222.957 135.129 222.525C135.058 222.077 134.984 221.589 134.906 221.063C134.828 220.537 134.764 220.001 134.716 219.456C134.668 218.911 134.67 218.409 134.724 217.95C134.837 216.92 135.212 216.377 135.85 216.32C136.297 216.406 136.599 216.536 136.755 216.711C136.927 216.884 137.026 217.11 137.051 217.391C137.074 217.655 137.034 217.996 136.93 218.413C136.536 219.813 136.387 221.057 136.484 222.147C136.516 222.505 136.573 222.884 136.655 223.284C136.997 224.305 137.899 224.751 139.362 224.621C140.125 224.553 140.837 224.357 141.498 224.032C142.763 223.434 143.599 222.787 144.008 222.092C144.085 221.363 144.1 220.735 144.053 220.205C144.005 219.661 143.939 219.18 143.855 218.764C143.786 218.347 143.699 217.892 143.593 217.399C143.501 216.89 143.42 216.332 143.35 215.727C143.544 215.615 143.735 215.551 143.922 215.535C144.124 215.517 144.335 215.6 144.556 215.785C144.791 215.968 145.004 216.333 145.194 216.881C145.399 217.427 145.559 218.08 145.673 218.838C145.786 219.581 145.878 220.357 145.95 221.167C146.037 221.975 146.115 222.76 146.182 223.523C146.248 224.27 146.337 224.913 146.447 225.452C146.276 225.64 146.104 225.741 145.933 225.757C145.311 225.812 144.796 225.23 144.39 224.011C144.203 224.2 143.879 224.44 143.419 224.732C142.441 225.384 141.26 225.865 139.876 226.175C139.614 226.23 139.32 226.272 138.993 226.301C138.666 226.33 138.248 226.304 137.739 226.224C137.246 226.142 136.761 225.895 136.285 225.482C135.809 225.069 135.478 224.424 135.29 223.546ZM167.182 219.945C166.177 221.885 164.722 223.159 162.815 223.767C162.372 223.9 161.963 223.983 161.59 224.017C161.232 224.048 160.928 224.075 160.679 224.097C160.444 224.102 160.176 224.087 159.875 224.051C159.574 224.015 159.293 223.938 159.031 223.82C158.426 223.544 158.098 223.11 158.045 222.519C157.958 222.244 157.899 221.936 157.869 221.593C157.837 221.235 157.874 220.761 157.978 220.172C158.083 219.582 158.308 218.935 158.653 218.23C159.014 217.523 159.466 216.864 160.008 216.251C161.132 214.959 162.396 214.079 163.797 213.609C164.209 213.479 164.586 213.398 164.929 213.368C165.287 213.336 165.608 213.331 165.892 213.353C166.795 213.273 167.456 213.834 167.876 215.036C168.148 215.796 168.361 216.876 168.516 218.274C168.686 219.655 168.82 220.725 168.918 221.485C169.031 222.228 169.193 222.904 169.404 223.513L168.026 223.635C167.927 223.22 167.847 222.85 167.787 222.526C167.727 222.202 167.669 221.902 167.613 221.624C167.477 220.977 167.334 220.418 167.182 219.945ZM166.768 216.334C166.688 215.432 166.204 215.02 165.317 215.098C165.207 215.092 165.097 215.094 164.988 215.104C163.852 215.204 162.702 215.855 161.538 217.056C160.99 217.607 160.534 218.212 160.169 218.872C159.625 219.814 159.384 220.635 159.446 221.336C159.528 222.254 160.105 222.752 161.179 222.829C162.577 222.674 163.859 221.918 165.025 220.559C165.521 219.966 165.92 219.335 166.221 218.665C166.644 217.765 166.826 216.988 166.768 216.334ZM181.7 213.976C181.005 213.567 180.143 213.408 179.116 213.499C178.151 213.585 177.272 213.843 176.479 214.274C174.98 215.066 173.989 216 173.504 217.079C173.296 217.568 173.216 218.077 173.263 218.606C173.271 218.699 173.294 218.964 173.333 219.4C173.37 219.82 173.499 220.389 173.72 221.107C173.939 221.809 174.081 222.533 174.147 223.281C173.822 223.325 173.561 223.387 173.364 223.468C173.167 223.548 172.999 223.594 172.859 223.606C172.719 223.619 172.589 223.568 172.469 223.453C172.364 223.337 172.234 223.105 172.078 222.758C172.054 222.666 171.999 222.404 171.914 221.972C171.829 221.541 171.72 221.017 171.587 220.402C171.469 219.784 171.331 219.114 171.173 218.391C171.029 217.651 170.887 216.926 170.745 216.217C170.436 214.676 170.203 213.544 170.044 212.821C170.011 212.447 170.267 212.236 170.812 212.188C171.139 212.159 171.408 212.276 171.619 212.54C171.83 212.788 172.005 213.086 172.146 213.434C172.285 213.767 172.385 214.103 172.447 214.443C172.524 214.781 172.584 215.019 172.628 215.156C174.519 213.138 176.991 211.993 180.041 211.723C180.384 211.693 180.742 211.669 181.117 211.651C181.209 211.627 181.325 211.609 181.465 211.597C181.605 211.585 181.754 211.666 181.91 211.84C182.101 212.043 182.21 212.3 182.237 212.611C182.306 213.389 182.127 213.844 181.7 213.976ZM189.278 220.246C190.648 220.125 192.655 219.319 195.299 217.83C195.471 217.815 195.616 217.865 195.736 217.98C195.855 218.079 195.921 218.206 195.935 218.362C195.406 219.476 194.288 220.406 192.582 221.153C190.876 221.9 189.243 222.147 187.683 221.893C185.915 221.595 184.779 220.715 184.273 219.254C184.215 218.961 184.165 218.566 184.12 218.068C184.076 217.57 184.143 216.905 184.32 216.073C184.512 215.225 184.886 214.408 185.444 213.621C186.002 212.834 186.682 212.194 187.486 211.699C188.289 211.204 189.165 210.915 190.115 210.831C191.017 210.751 192.057 210.972 193.232 211.496C193.788 211.745 194.238 212.042 194.582 212.388C194.926 212.734 195.116 213.101 195.15 213.49C195.16 213.599 195.162 213.709 195.156 213.819C195.209 214.772 194.803 215.411 193.938 215.739C193.558 215.882 193.112 215.977 192.598 216.022L189.224 216.18C188.103 216.279 187.269 216.597 186.72 217.131C186.401 217.426 186.195 217.845 186.102 218.386C186.616 219.768 187.675 220.388 189.278 220.246ZM192.795 212.664C192.43 212.445 192.056 212.298 191.673 212.222C191.29 212.146 190.974 212.119 190.725 212.141C190.476 212.163 190.079 212.285 189.534 212.506C188.987 212.711 188.505 212.934 188.087 213.175C187.057 213.768 186.566 214.337 186.615 214.882C187.869 214.881 188.808 214.852 189.431 214.797C191.158 214.644 192.312 214.393 192.893 214.043C193.253 213.855 193.423 213.644 193.402 213.41C193.377 213.13 193.175 212.881 192.795 212.664ZM216.954 215.535C215.949 217.475 214.493 218.749 212.587 219.357C212.143 219.491 211.735 219.574 211.362 219.607C211.004 219.639 210.7 219.666 210.451 219.688C210.216 219.693 209.948 219.677 209.647 219.641C209.346 219.605 209.064 219.528 208.803 219.41C208.198 219.134 207.87 218.701 207.817 218.109C207.73 217.835 207.671 217.526 207.641 217.184C207.609 216.826 207.646 216.352 207.75 215.762C207.855 215.173 208.08 214.525 208.425 213.82C208.786 213.114 209.238 212.454 209.78 211.841C210.904 210.55 212.167 209.669 213.569 209.2C213.981 209.069 214.358 208.989 214.701 208.958C215.059 208.927 215.38 208.922 215.664 208.944C216.567 208.864 217.228 209.425 217.648 210.627C217.92 211.387 218.133 212.466 218.288 213.864C218.458 215.245 218.592 216.316 218.69 217.076C218.803 217.819 218.965 218.494 219.176 219.103L217.798 219.225C217.699 218.81 217.619 218.441 217.559 218.117C217.499 217.793 217.441 217.492 217.385 217.215C217.249 216.568 217.105 216.008 216.954 215.535ZM216.54 211.925C216.46 211.022 215.976 210.61 215.089 210.689C214.979 210.683 214.869 210.685 214.76 210.694C213.624 210.795 212.474 211.446 211.31 212.647C210.762 213.198 210.306 213.803 209.941 214.462C209.397 215.405 209.156 216.226 209.218 216.926C209.3 217.845 209.877 218.343 210.951 218.42C212.349 218.265 213.631 217.508 214.797 216.15C215.293 215.557 215.692 214.926 215.993 214.256C216.416 213.356 216.598 212.579 216.54 211.925ZM220.381 210.008C220.276 209.17 220.178 208.426 220.089 207.775C219.999 207.109 219.932 206.62 219.889 206.311C219.86 205.984 219.666 205.209 219.307 203.986C219.43 203.787 219.547 203.596 219.656 203.414C219.781 203.23 219.968 203.127 220.217 203.105C220.762 203.057 221.385 205.315 222.088 209.881C222.479 212.528 222.793 215.183 223.028 217.844C223.092 218.56 222.626 218.962 221.629 219.05L221.441 219.044C221.369 218.234 221.254 217.201 221.095 215.945C220.937 214.688 220.801 213.594 220.687 212.663C220.589 211.731 220.487 210.846 220.381 210.008ZM224.618 209.633C224.513 208.795 224.415 208.051 224.326 207.4C224.236 206.733 224.169 206.245 224.126 205.935C224.097 205.608 223.903 204.833 223.543 203.61C223.667 203.411 223.783 203.221 223.893 203.038C224.018 202.855 224.205 202.752 224.454 202.73C224.998 202.681 225.622 204.94 226.324 209.505C226.716 212.153 227.029 214.807 227.265 217.469C227.329 218.185 226.862 218.587 225.866 218.675L225.677 218.668C225.606 217.859 225.491 216.826 225.332 215.569C225.174 214.313 225.038 213.219 224.924 212.288C224.826 211.356 224.724 210.47 224.618 209.633ZM248.669 197.737C248.801 199.232 248.884 200.699 248.918 202.139C248.966 203.562 249.011 204.962 249.055 206.339C249.112 207.698 249.209 209.148 249.346 210.689C249.481 212.214 249.733 213.823 250.103 215.516C250.135 215.874 250.087 216.137 249.961 216.305C249.85 216.472 249.639 216.569 249.328 216.597C248.597 216.661 248.177 216.087 248.07 214.873L248.001 214.102C245.937 215.948 244.143 216.938 242.617 217.073C242.01 217.127 241.375 217.035 240.71 216.795C240.062 216.555 239.417 216.008 238.777 215.155C238.666 214.788 238.593 214.41 238.559 214.021C238.524 213.632 238.553 213.159 238.645 212.602C238.751 212.028 239.003 211.425 239.402 210.794C239.817 210.161 240.331 209.59 240.945 209.081C242.291 207.989 243.797 207.369 245.462 207.221C246.178 207.158 246.873 207.206 247.546 207.366C247.521 207.086 247.493 206.595 247.462 205.891C247.447 205.187 247.428 204.443 247.406 203.661C247.32 201.629 247.277 200.433 247.276 200.073C247.274 199.696 247.285 199.382 247.31 199.128C247.349 198.858 247.414 198.625 247.507 198.429C247.706 198.019 248.093 197.788 248.669 197.737ZM240.247 213.684C240.355 214.913 240.854 215.489 241.741 215.41C241.881 215.398 242.035 215.368 242.203 215.322C242.842 215.265 243.611 215.009 244.512 214.553C246.224 213.695 247.252 212.992 247.596 212.444L247.32 209.339C247.272 208.794 246.805 208.561 245.917 208.64C245.807 208.634 245.658 208.639 245.472 208.656C245.301 208.671 245.032 208.734 244.665 208.845C244.298 208.956 243.89 209.133 243.441 209.377C242.992 209.621 242.555 209.91 242.13 210.246C241.237 210.968 240.65 211.773 240.368 212.661C240.257 213 240.216 213.341 240.247 213.684ZM252.213 211.847C252.05 210.01 252.713 208.461 254.201 207.2C255.383 206.201 256.853 205.53 258.611 205.186C258.704 205.178 258.922 205.158 259.265 205.128C259.607 205.098 260.075 205.158 260.669 205.31C261.984 205.632 262.924 206.326 263.488 207.389C263.714 207.808 263.84 208.174 263.868 208.485C263.894 208.781 263.905 208.992 263.9 209.117C264.073 211.063 263.469 212.661 262.09 213.913C260.811 215.062 259.145 215.727 257.09 215.909C255.612 216.04 254.461 215.797 253.637 215.18C252.83 214.561 252.355 213.45 252.213 211.847ZM253.873 212.265C253.959 213.23 254.273 213.86 254.817 214.157C255.229 214.372 255.893 214.439 256.812 214.357C257.73 214.276 258.533 214.134 259.221 213.932C259.909 213.73 260.51 213.433 261.025 213.043C262.126 212.192 262.607 210.981 262.467 209.409C262.385 208.475 262.068 207.735 261.518 207.187C260.916 206.597 260.172 206.342 259.285 206.42C258.688 206.583 258.083 206.754 257.472 206.934C256.876 207.112 256.321 207.405 255.808 207.811C254.693 208.678 254.048 210.163 253.873 212.265ZM274.6 209.181C274.435 207.329 274.214 205.976 273.934 205.123C274.038 204.878 273.841 204.778 273.343 204.822C272.814 204.869 272.141 205.062 271.323 205.401C270.506 205.74 269.845 206.065 269.339 206.377C268.132 207.095 267.484 207.749 267.395 208.337L267.958 214.687L266.394 214.826C266.145 214.315 265.912 212.837 265.695 210.394C265.502 208.215 265.399 206.608 265.386 205.574C265.388 204.539 265.407 203.949 265.441 203.804C265.822 203.504 266.137 203.343 266.386 203.321C266.775 203.286 267.011 203.728 267.092 204.646C267.124 205.004 267.131 205.357 267.115 205.703C267.113 206.033 267.117 206.26 267.128 206.384C269.486 204.309 271.357 203.21 272.742 203.087C274.314 202.948 275.321 204.137 275.764 206.655C275.936 207.534 276.092 208.759 276.231 210.331L276.371 212.177C276.432 212.862 276.506 213.522 276.593 214.158C276.446 214.265 276.326 214.322 276.232 214.331C276.184 214.319 276.081 214.305 275.923 214.288C275.764 214.27 275.56 214.265 275.309 214.271C275.099 213.663 274.957 213.04 274.885 212.403C274.811 211.751 274.751 211.152 274.702 210.607L274.6 209.181ZM282.997 211.943C284.366 211.822 286.373 211.017 289.018 209.527C289.189 209.512 289.335 209.562 289.455 209.677C289.573 209.776 289.639 209.904 289.653 210.059C289.124 211.173 288.007 212.103 286.301 212.851C284.594 213.598 282.961 213.844 281.401 213.59C279.634 213.292 278.497 212.412 277.991 210.951C277.934 210.658 277.883 210.263 277.839 209.765C277.795 209.267 277.861 208.602 278.039 207.771C278.23 206.922 278.605 206.105 279.163 205.318C279.72 204.532 280.401 203.891 281.204 203.396C282.007 202.902 282.884 202.612 283.833 202.528C284.736 202.448 285.775 202.67 286.951 203.193C287.506 203.442 287.956 203.739 288.3 204.085C288.645 204.431 288.834 204.799 288.869 205.188C288.878 205.297 288.88 205.406 288.874 205.517C288.927 206.469 288.521 207.109 287.656 207.436C287.277 207.58 286.83 207.674 286.317 207.72L282.942 207.878C281.822 207.977 280.987 208.294 280.438 208.829C280.119 209.124 279.913 209.542 279.82 210.084C280.335 211.465 281.394 212.085 282.997 211.943ZM286.513 204.361C286.149 204.142 285.775 203.995 285.392 203.919C285.008 203.843 284.692 203.817 284.443 203.839C284.194 203.861 283.797 203.982 283.252 204.203C282.706 204.408 282.223 204.631 281.806 204.872C280.776 205.466 280.285 206.035 280.333 206.579C281.588 206.578 282.527 206.55 283.149 206.494C284.877 206.341 286.031 206.09 286.612 205.741C286.972 205.552 287.141 205.341 287.12 205.107C287.096 204.827 286.893 204.578 286.513 204.361ZM292.236 212.795C291.876 212.796 291.683 212.656 291.658 212.376C291.628 212.034 291.794 211.697 292.157 211.367C292.303 211.244 292.415 211.179 292.493 211.173C292.586 211.164 292.657 211.166 292.705 211.177C293.032 211.148 293.256 211.199 293.377 211.33C293.513 211.443 293.59 211.609 293.609 211.827C293.629 212.044 293.596 212.212 293.513 212.329C293.429 212.446 293.319 212.535 293.183 212.594C292.957 212.692 292.641 212.759 292.236 212.795ZM296.076 212.455C295.716 212.456 295.523 212.316 295.498 212.036C295.468 211.693 295.634 211.357 295.997 211.027C296.143 210.904 296.255 210.839 296.333 210.832C296.426 210.824 296.497 210.826 296.545 210.837C296.872 210.808 297.096 210.859 297.217 210.989C297.353 211.103 297.43 211.269 297.449 211.486C297.469 211.704 297.436 211.872 297.353 211.989C297.269 212.106 297.159 212.194 297.023 212.254C296.797 212.352 296.481 212.419 296.076 212.455ZM299.916 212.115C299.556 212.115 299.363 211.976 299.338 211.696C299.308 211.353 299.474 211.017 299.837 210.687C299.983 210.564 300.095 210.499 300.172 210.492C300.266 210.484 300.337 210.486 300.385 210.497C300.712 210.468 300.936 210.519 301.057 210.649C301.193 210.763 301.27 210.928 301.289 211.146C301.309 211.364 301.276 211.532 301.193 211.649C301.109 211.766 300.999 211.854 300.863 211.913C300.637 212.012 300.321 212.079 299.916 212.115Z" fill="#FFD335"/>
<path d="M221.202 150.538C219.827 149.405 218.371 148.906 216.834 149.042C215.375 149.172 214.024 149.85 212.78 151.078C211.211 152.629 210.204 154.541 209.758 156.816C209.596 157.635 209.538 158.306 209.584 158.832C209.631 159.357 209.686 159.764 209.751 160.052C209.922 161.978 210.704 163.399 212.099 164.315C213.409 165.159 215.018 165.497 216.924 165.328C219.512 164.883 221.924 163.66 224.158 161.658C224.775 161.094 225.432 160.545 226.13 160.013C226.402 159.989 226.678 160.003 226.957 160.057C227.256 160.109 227.422 160.32 227.455 160.69C225.677 162.533 224.159 163.883 222.902 164.74C220.567 166.28 218.408 167.138 216.424 167.314C216.288 167.326 216.161 167.337 216.044 167.347C213.885 167.539 211.977 167.031 210.321 165.825C208.561 164.55 207.587 162.852 207.399 160.731C207.258 159.136 207.405 157.584 207.84 156.074C208.294 154.564 208.968 153.21 209.862 152.013C210.774 150.795 211.882 149.795 213.185 149.013C214.508 148.229 215.957 147.767 217.533 147.627C218.875 147.509 219.767 147.616 220.208 147.949C220.754 148.352 221.085 149.215 221.202 150.538ZM229.469 154.717C229.337 153.67 229.215 152.74 229.104 151.926C228.991 151.093 228.907 150.482 228.854 150.095C228.817 149.687 228.575 148.718 228.126 147.189C228.28 146.94 228.425 146.702 228.562 146.474C228.718 146.244 228.952 146.116 229.263 146.088C229.944 146.028 230.724 148.851 231.602 154.558C232.091 157.867 232.483 161.185 232.778 164.512C232.857 165.407 232.274 165.91 231.029 166.02L230.793 166.011C230.703 165 230.56 163.709 230.362 162.138C230.164 160.567 229.994 159.2 229.851 158.036C229.728 156.871 229.601 155.764 229.469 154.717ZM246.282 159.757C245.027 162.182 243.207 163.774 240.823 164.535C240.269 164.701 239.759 164.805 239.292 164.847C238.845 164.886 238.465 164.92 238.154 164.948C237.86 164.954 237.525 164.935 237.149 164.89C236.772 164.844 236.421 164.748 236.094 164.601C235.338 164.256 234.927 163.714 234.862 162.975C234.753 162.631 234.679 162.246 234.641 161.818C234.602 161.37 234.647 160.778 234.778 160.041C234.909 159.304 235.19 158.494 235.622 157.613C236.073 156.73 236.637 155.906 237.315 155.14C238.72 153.525 240.299 152.424 242.051 151.838C242.566 151.674 243.038 151.574 243.466 151.536C243.913 151.496 244.315 151.49 244.67 151.517C245.798 151.417 246.625 152.119 247.151 153.621C247.49 154.572 247.756 155.92 247.95 157.668C248.162 159.394 248.33 160.732 248.453 161.682C248.594 162.611 248.796 163.456 249.06 164.217L247.338 164.369C247.214 163.851 247.114 163.389 247.039 162.984C246.964 162.579 246.891 162.203 246.821 161.856C246.652 161.048 246.472 160.348 246.282 159.757ZM245.765 155.244C245.665 154.116 245.06 153.6 243.952 153.699C243.814 153.691 243.677 153.694 243.54 153.706C242.12 153.832 240.682 154.645 239.227 156.147C238.543 156.835 237.973 157.591 237.517 158.416C236.837 159.594 236.535 160.62 236.613 161.496C236.715 162.644 237.436 163.266 238.778 163.363C240.526 163.169 242.128 162.223 243.586 160.525C244.206 159.784 244.705 158.995 245.082 158.157C245.61 157.032 245.837 156.061 245.765 155.244ZM252.456 150.269C253.031 153.885 253.618 158.078 254.217 162.848C254.154 163.461 253.714 163.804 252.897 163.877C252.683 163.896 252.456 163.877 252.215 163.82C251.993 163.741 251.845 163.627 251.773 163.476L250.617 150.432L252.456 150.269ZM249.39 146.54C249.33 145.86 249.699 145.484 250.496 145.413C251.022 145.367 251.46 145.445 251.811 145.649C251.889 145.858 251.937 146.07 251.956 146.284C251.973 146.478 251.912 146.68 251.774 146.888C251.636 147.096 251.411 147.214 251.099 147.242C250.788 147.27 250.471 147.229 250.148 147.12C249.822 146.992 249.57 146.799 249.39 146.54ZM258.546 163.082C257.778 163.484 257.258 163.696 256.985 163.72C256.732 163.743 256.555 163.729 256.452 163.679C256.35 163.63 256.231 163.503 256.095 163.299C256.038 162.657 255.986 161.848 255.939 160.872C255.911 159.894 255.867 158.849 255.808 157.737C255.749 156.624 255.669 155.504 255.569 154.375C255.469 153.247 255.319 152.221 255.12 151.298C255.065 150.675 255.455 150.327 256.292 150.253C256.487 150.235 256.664 150.573 256.823 151.264C257.002 151.954 257.128 152.492 257.201 152.878C257.294 153.262 257.368 153.54 257.422 153.711C257.847 152.752 258.785 151.943 260.236 151.285C261.012 150.962 261.75 150.769 262.45 150.707C263.15 150.645 263.771 150.678 264.312 150.807C264.87 150.914 265.354 151.175 265.763 151.59C266.19 151.983 266.436 152.54 266.5 153.26C266.921 152.262 267.983 151.305 269.686 150.389C271.237 149.527 272.655 149.038 273.939 148.924C275.787 148.761 276.754 149.381 276.839 150.785L278.414 161.587C278.422 161.684 278.146 161.777 277.586 161.866C276.503 162.04 275.95 161.991 275.925 161.719C275.872 161.332 275.827 160.943 275.793 160.554L275.523 155.843C275.328 153.645 274.96 151.922 274.418 150.676C273.142 150.887 272.169 151.189 271.498 151.582C270.845 151.953 270.277 152.406 269.795 152.939C269.311 153.452 268.9 154.126 268.562 154.96C267.806 156.83 267.559 159.244 267.821 162.202C267.741 162.621 267.379 162.858 266.737 162.915C266.309 162.953 265.953 162.916 265.669 162.804C265.383 162.673 265.263 162.546 265.311 162.424C265.498 160.329 265.541 158.708 265.439 157.56C265.358 156.645 265.184 155.788 264.917 154.988C264.668 154.167 264.36 153.234 263.993 152.188C261.191 152.436 259.403 153.722 258.629 156.045C258.289 157.076 258.128 158.031 258.147 158.912C258.184 159.771 258.23 160.512 258.286 161.135C258.339 161.738 258.426 162.387 258.546 163.082ZM78.3222 219.721C77.9947 220.671 77.5488 221.172 76.9846 221.222C76.7123 221.246 76.4968 221.137 76.3382 220.897C76.2008 220.674 76.1758 220.391 76.2632 220.05C76.5309 218.203 76.9611 216.087 77.5536 213.701C78.1656 211.313 78.5725 209.709 78.7742 208.887C78.0329 208.266 76.8423 206.999 75.2022 205.086C71.8338 201.149 70.1315 198.976 70.0953 198.567C70.0936 198.548 70.1016 198.528 70.1193 198.507L71.13 197.299C72.7928 198.583 75.0104 200.818 77.7828 204.004C78.4812 204.805 79.0411 205.481 79.4624 206.032C79.7986 205.178 80.0576 204.45 80.2393 203.845C80.4193 203.221 80.5619 202.728 80.6671 202.366C80.79 201.983 80.9512 201.478 81.1507 200.853C81.6691 199.179 82.4016 197.046 83.3483 194.452C83.5165 194.359 83.6979 194.304 83.8924 194.286C84.3788 194.243 84.7402 194.339 84.9766 194.573C85.0631 194.663 85.1123 194.776 85.1244 194.912C85.1347 195.029 85.1256 195.148 85.097 195.268L78.3222 219.721ZM88.4267 202.149C88.2233 199.854 89.0518 197.917 90.9121 196.341C92.3897 195.092 94.2271 194.253 96.4243 193.823C96.541 193.813 96.8134 193.789 97.2414 193.751C97.6694 193.713 98.2545 193.788 98.9968 193.978C100.64 194.381 101.815 195.248 102.521 196.577C102.803 197.101 102.961 197.558 102.995 197.947C103.028 198.317 103.042 198.58 103.036 198.737C103.252 201.169 102.497 203.167 100.773 204.732C99.1748 206.168 97.0916 206.999 94.5235 207.227C92.6753 207.391 91.2366 207.087 90.2075 206.315C89.1978 205.542 88.6042 204.153 88.4267 202.149ZM90.5023 202.671C90.6092 203.878 91.0026 204.666 91.6825 205.037C92.1965 205.306 93.0274 205.389 94.1752 205.287C95.3231 205.185 96.327 205.008 97.1869 204.756C98.0469 204.503 98.7984 204.132 99.4414 203.644C100.818 202.581 101.419 201.067 101.245 199.102C101.141 197.935 100.746 197.009 100.058 196.325C99.3061 195.587 98.3758 195.268 97.2669 195.366C96.5202 195.57 95.7646 195.784 95.0002 196.008C94.2553 196.231 93.5621 196.596 92.9209 197.104C91.5267 198.188 90.7205 200.044 90.5023 202.671ZM105.105 202.348C105.078 202.037 105.011 201.611 104.904 201.072C104.815 200.511 104.722 199.902 104.624 199.244C104.527 198.586 104.448 197.916 104.388 197.235C104.327 196.554 104.331 195.927 104.397 195.352C104.538 194.065 105.008 193.386 105.805 193.316C106.364 193.423 106.741 193.586 106.937 193.804C107.152 194.02 107.275 194.303 107.306 194.653C107.335 194.984 107.285 195.41 107.155 195.931C106.662 197.681 106.477 199.237 106.597 200.598C106.637 201.046 106.708 201.52 106.812 202.021C107.238 203.296 108.366 203.853 110.195 203.691C111.148 203.607 112.038 203.361 112.865 202.955C114.446 202.207 115.492 201.399 116.003 200.53C116.099 199.619 116.117 198.833 116.059 198.172C115.999 197.491 115.916 196.89 115.811 196.37C115.726 195.849 115.616 195.28 115.483 194.664C115.368 194.027 115.267 193.33 115.181 192.573C115.423 192.434 115.661 192.354 115.895 192.334C116.147 192.311 116.412 192.415 116.687 192.646C116.982 192.875 117.248 193.331 117.485 194.016C117.741 194.699 117.941 195.515 118.084 196.463C118.225 197.392 118.34 198.362 118.43 199.374C118.539 200.384 118.636 201.365 118.72 202.318C118.803 203.252 118.913 204.056 119.052 204.73C118.837 204.965 118.623 205.092 118.409 205.111C117.631 205.18 116.988 204.452 116.48 202.929C116.246 203.165 115.842 203.466 115.266 203.83C114.044 204.645 112.568 205.246 110.838 205.634C110.51 205.703 110.142 205.755 109.734 205.791C109.325 205.827 108.803 205.795 108.167 205.695C107.55 205.592 106.944 205.283 106.349 204.767C105.754 204.251 105.34 203.445 105.105 202.348ZM134.753 192.898C133.884 192.387 132.807 192.188 131.523 192.302C130.317 192.409 129.218 192.732 128.227 193.27C126.354 194.26 125.114 195.429 124.508 196.776C124.249 197.388 124.148 198.024 124.207 198.685C124.217 198.802 124.246 199.133 124.295 199.678C124.341 200.203 124.502 200.914 124.778 201.811C125.052 202.689 125.23 203.595 125.313 204.529C124.906 204.584 124.579 204.662 124.333 204.762C124.087 204.863 123.877 204.92 123.702 204.936C123.527 204.951 123.364 204.887 123.214 204.744C123.083 204.599 122.921 204.309 122.725 203.875C122.696 203.76 122.627 203.433 122.521 202.894C122.414 202.354 122.278 201.699 122.111 200.93C121.965 200.159 121.792 199.321 121.595 198.417C121.415 197.492 121.236 196.586 121.06 195.699C120.673 193.773 120.381 192.358 120.184 191.454C120.142 190.987 120.462 190.723 121.143 190.663C121.552 190.627 121.888 190.773 122.153 191.103C122.415 191.413 122.635 191.785 122.81 192.221C122.985 192.637 123.11 193.057 123.187 193.482C123.283 193.904 123.358 194.202 123.413 194.373C125.778 191.85 128.867 190.42 132.68 190.082C133.108 190.044 133.556 190.014 134.025 189.992C134.14 189.962 134.285 189.94 134.46 189.924C134.635 189.909 134.82 190.01 135.016 190.228C135.254 190.481 135.391 190.802 135.425 191.192C135.511 192.164 135.287 192.733 134.753 192.898ZM150.526 198.324C150.499 198.013 150.432 197.588 150.325 197.048C150.236 196.487 150.143 195.878 150.045 195.22C149.948 194.562 149.869 193.892 149.809 193.211C149.748 192.53 149.752 191.903 149.818 191.328C149.959 190.041 150.428 189.362 151.226 189.292C151.785 189.399 152.162 189.562 152.358 189.78C152.573 189.996 152.696 190.279 152.727 190.629C152.756 190.96 152.706 191.386 152.575 191.907C152.083 193.657 151.898 195.213 152.018 196.574C152.058 197.022 152.129 197.496 152.233 197.997C152.659 199.273 153.787 199.829 155.616 199.667C156.569 199.583 157.459 199.338 158.286 198.931C159.867 198.183 160.913 197.375 161.424 196.506C161.52 195.595 161.538 194.809 161.48 194.148C161.419 193.467 161.337 192.867 161.232 192.346C161.147 191.825 161.037 191.256 160.904 190.64C160.789 190.003 160.688 189.306 160.601 188.549C160.844 188.41 161.082 188.33 161.316 188.31C161.568 188.287 161.833 188.391 162.108 188.622C162.403 188.851 162.669 189.307 162.906 189.992C163.162 190.675 163.362 191.491 163.505 192.439C163.646 193.368 163.761 194.338 163.851 195.35C163.96 196.36 164.057 197.341 164.141 198.295C164.224 199.228 164.334 200.032 164.473 200.706C164.258 200.941 164.044 201.068 163.83 201.087C163.052 201.156 162.409 200.428 161.901 198.905C161.667 199.141 161.263 199.442 160.687 199.806C159.465 200.621 157.989 201.222 156.259 201.611C155.931 201.679 155.563 201.731 155.155 201.767C154.746 201.803 154.224 201.771 153.587 201.671C152.971 201.568 152.365 201.259 151.77 200.743C151.175 200.228 150.761 199.421 150.526 198.324ZM176.102 192.382C178.242 192.192 179.36 192.642 179.457 193.732C179.529 194.549 179.02 195.555 177.93 196.749C176.303 198.521 174.034 200.026 171.124 201.264C170.988 201.276 170.82 201.154 170.621 200.897C170.441 200.638 170.297 200.445 170.188 200.318C170.096 200.169 170.029 200.077 169.987 200.041C172.158 199.104 173.918 198.046 175.264 196.868C176.175 196.081 176.61 195.464 176.571 195.017C176.531 194.569 175.937 194.397 174.79 194.498C173.642 194.6 171.983 195.021 169.813 195.763C168.798 195.813 167.891 195.531 167.091 194.916C166.396 194.369 166.021 193.795 165.968 193.192C165.913 192.569 166.038 191.989 166.343 191.452C166.647 190.896 167.071 190.368 167.615 189.869C168.159 189.37 168.804 188.901 169.549 188.463C171.375 187.379 173.309 186.747 175.352 186.566C175.955 186.513 176.543 186.519 177.118 186.586C177.585 186.545 177.875 186.725 177.989 187.127C178.103 187.528 178.202 188.196 178.285 189.13C177.09 188.706 175.773 188.558 174.333 188.686C172.544 188.844 171.097 189.335 169.993 190.158C168.849 190.966 168.308 191.935 168.369 193.067C168.417 193.612 168.84 193.849 169.638 193.778L171.747 193.356C173.542 192.805 174.993 192.48 176.102 192.382ZM188.158 196.843C189.87 196.692 192.379 195.685 195.685 193.824C195.899 193.805 196.081 193.867 196.231 194.01C196.379 194.135 196.462 194.294 196.479 194.489C195.818 195.88 194.421 197.043 192.288 197.977C190.155 198.911 188.114 199.22 186.164 198.902C183.955 198.529 182.534 197.43 181.902 195.603C181.83 195.237 181.767 194.743 181.711 194.12C181.656 193.498 181.739 192.667 181.961 191.628C182.201 190.567 182.669 189.545 183.366 188.562C184.063 187.579 184.914 186.778 185.918 186.159C186.922 185.541 188.017 185.179 189.204 185.074C190.332 184.974 191.631 185.251 193.101 185.905C193.795 186.217 194.358 186.588 194.788 187.021C195.219 187.453 195.455 187.913 195.499 188.399C195.511 188.535 195.513 188.672 195.506 188.81C195.572 190 195.064 190.8 193.983 191.21C193.509 191.389 192.95 191.507 192.308 191.564L188.091 191.761C186.69 191.885 185.646 192.282 184.961 192.95C184.562 193.319 184.304 193.842 184.188 194.519C184.831 196.246 186.155 197.021 188.158 196.843ZM192.554 187.366C192.098 187.092 191.631 186.908 191.152 186.813C190.673 186.719 190.278 186.685 189.967 186.713C189.656 186.74 189.159 186.892 188.478 187.168C187.795 187.425 187.192 187.703 186.67 188.005C185.382 188.746 184.769 189.457 184.829 190.138C186.398 190.137 187.571 190.101 188.349 190.032C190.509 189.841 191.951 189.527 192.677 189.09C193.127 188.854 193.339 188.59 193.313 188.298C193.282 187.948 193.029 187.637 192.554 187.366ZM212.536 186.007C211.667 185.496 210.591 185.297 209.307 185.411C208.1 185.518 207.002 185.841 206.01 186.379C204.137 187.369 202.897 188.538 202.291 189.885C202.032 190.497 201.931 191.133 201.99 191.794C202 191.911 202.03 192.242 202.078 192.787C202.124 193.312 202.285 194.023 202.561 194.92C202.835 195.798 203.013 196.704 203.096 197.638C202.689 197.693 202.363 197.771 202.117 197.871C201.871 197.972 201.66 198.03 201.485 198.045C201.31 198.061 201.147 197.997 200.997 197.853C200.867 197.708 200.704 197.418 200.509 196.984C200.479 196.869 200.411 196.542 200.304 196.003C200.197 195.463 200.061 194.808 199.895 194.039C199.748 193.268 199.576 192.43 199.378 191.526C199.198 190.601 199.02 189.695 198.843 188.809C198.457 186.882 198.165 185.467 197.967 184.563C197.926 184.096 198.245 183.832 198.926 183.772C199.335 183.736 199.671 183.882 199.936 184.212C200.199 184.522 200.418 184.895 200.594 185.33C200.768 185.746 200.893 186.166 200.97 186.591C201.066 187.014 201.142 187.311 201.196 187.482C203.561 184.959 206.65 183.529 210.463 183.191C210.891 183.153 211.339 183.123 211.808 183.101C211.923 183.071 212.068 183.049 212.243 183.033C212.418 183.018 212.604 183.119 212.799 183.337C213.038 183.59 213.174 183.912 213.208 184.301C213.295 185.273 213.07 185.842 212.536 186.007ZM227.052 189.015C226.847 186.7 226.569 185.009 226.22 183.942C226.35 183.636 226.103 183.511 225.481 183.566C224.819 183.625 223.978 183.866 222.957 184.29C221.935 184.714 221.109 185.12 220.477 185.51C218.968 186.408 218.158 187.225 218.047 187.96L218.75 195.898L216.795 196.071C216.483 195.432 216.192 193.585 215.921 190.531C215.68 187.807 215.551 185.799 215.535 184.506C215.538 183.212 215.561 182.475 215.603 182.294C216.08 181.919 216.474 181.717 216.785 181.69C217.272 181.647 217.566 182.199 217.667 183.347C217.707 183.794 217.717 184.235 217.696 184.668C217.693 185.08 217.699 185.364 217.713 185.519C220.659 182.925 222.998 181.551 224.73 181.398C226.695 181.223 227.954 182.71 228.507 185.857C228.722 186.956 228.917 188.487 229.091 190.452L229.266 192.76C229.342 193.616 229.434 194.441 229.544 195.236C229.36 195.37 229.209 195.442 229.093 195.452C229.033 195.438 228.904 195.42 228.706 195.398C228.508 195.377 228.252 195.37 227.939 195.378C227.676 194.617 227.499 193.838 227.409 193.043C227.317 192.227 227.241 191.479 227.18 190.798L227.052 189.015ZM242.816 189.178C241.56 191.603 239.74 193.195 237.356 193.955C236.803 194.122 236.292 194.226 235.825 194.267C235.378 194.307 234.998 194.341 234.687 194.368C234.394 194.375 234.059 194.355 233.682 194.31C233.306 194.265 232.954 194.169 232.627 194.021C231.871 193.677 231.46 193.135 231.395 192.395C231.286 192.052 231.213 191.666 231.175 191.238C231.135 190.791 231.181 190.199 231.311 189.461C231.442 188.724 231.723 187.915 232.155 187.034C232.606 186.151 233.17 185.326 233.848 184.56C235.254 182.946 236.833 181.845 238.585 181.258C239.1 181.095 239.571 180.995 239.999 180.957C240.446 180.917 240.848 180.911 241.203 180.938C242.332 180.838 243.158 181.539 243.684 183.042C244.023 183.992 244.289 185.341 244.483 187.089C244.695 188.815 244.863 190.153 244.986 191.103C245.127 192.032 245.329 192.876 245.593 193.637L243.871 193.79C243.747 193.272 243.647 192.81 243.572 192.405C243.497 192 243.424 191.624 243.354 191.277C243.185 190.468 243.005 189.769 242.816 189.178ZM242.298 184.665C242.198 183.536 241.594 183.021 240.485 183.119C240.347 183.112 240.21 183.114 240.074 183.126C238.653 183.252 237.216 184.066 235.76 185.567C235.076 186.255 234.506 187.012 234.05 187.837C233.37 189.014 233.069 190.041 233.146 190.917C233.248 192.064 233.97 192.687 235.311 192.784C237.059 192.59 238.661 191.644 240.119 189.946C240.74 189.205 241.238 188.415 241.615 187.578C242.143 186.453 242.37 185.482 242.298 184.665ZM249.959 192.957C249.19 193.358 248.67 193.571 248.397 193.595C248.145 193.617 247.967 193.604 247.864 193.554C247.762 193.504 247.643 193.377 247.507 193.174C247.45 192.532 247.398 191.723 247.351 190.746C247.323 189.768 247.28 188.723 247.22 187.611C247.161 186.499 247.081 185.378 246.981 184.25C246.881 183.121 246.732 182.095 246.532 181.172C246.477 180.549 246.868 180.201 247.704 180.127C247.899 180.11 248.076 180.447 248.235 181.139C248.414 181.829 248.54 182.367 248.613 182.752C248.706 183.136 248.78 183.414 248.834 183.586C249.259 182.626 250.197 181.818 251.649 181.16C252.424 180.836 253.162 180.643 253.862 180.581C254.563 180.519 255.183 180.553 255.724 180.681C256.282 180.789 256.766 181.05 257.176 181.464C257.603 181.858 257.848 182.415 257.912 183.134C258.333 182.136 259.396 181.179 261.099 180.264C262.65 179.401 264.067 178.913 265.351 178.799C267.199 178.635 268.166 179.255 268.251 180.66L269.826 191.461C269.835 191.558 269.558 191.652 268.998 191.74C267.915 191.915 267.362 191.866 267.338 191.593C267.284 191.206 267.24 190.818 267.205 190.429L266.935 185.717C266.74 183.519 266.372 181.797 265.83 180.551C264.555 180.762 263.581 181.063 262.91 181.456C262.257 181.828 261.689 182.28 261.207 182.813C260.723 183.326 260.312 184 259.974 184.834C259.218 186.705 258.971 189.119 259.233 192.076C259.153 192.495 258.792 192.733 258.15 192.79C257.722 192.828 257.365 192.791 257.081 192.679C256.795 192.547 256.676 192.42 256.724 192.298C256.911 190.203 256.953 188.582 256.852 187.434C256.771 186.52 256.597 185.663 256.33 184.863C256.08 184.042 255.772 183.108 255.405 182.062C252.604 182.311 250.816 183.596 250.041 185.92C249.701 186.95 249.54 187.905 249.56 188.786C249.597 189.645 249.643 190.387 249.698 191.009C249.751 191.612 249.838 192.261 249.959 192.957ZM277.206 188.954C278.918 188.803 281.427 187.796 284.733 185.935C284.947 185.916 285.129 185.978 285.279 186.122C285.427 186.246 285.51 186.405 285.527 186.6C284.866 187.991 283.469 189.154 281.336 190.089C279.203 191.023 277.162 191.331 275.212 191.013C273.003 190.641 271.582 189.541 270.949 187.715C270.878 187.348 270.814 186.854 270.759 186.231C270.704 185.609 270.787 184.778 271.009 183.739C271.248 182.678 271.717 181.656 272.414 180.673C273.111 179.69 273.962 178.889 274.966 178.271C275.97 177.652 277.065 177.29 278.252 177.185C279.38 177.085 280.679 177.362 282.149 178.017C282.843 178.328 283.405 178.699 283.836 179.132C284.266 179.564 284.503 180.024 284.546 180.51C284.558 180.646 284.561 180.783 284.553 180.921C284.62 182.111 284.112 182.911 283.031 183.321C282.556 183.5 281.998 183.618 281.356 183.675L277.138 183.872C275.738 183.996 274.694 184.393 274.008 185.061C273.61 185.43 273.352 185.953 273.236 186.63C273.879 188.357 275.202 189.132 277.206 188.954ZM281.602 179.477C281.146 179.203 280.679 179.019 280.2 178.925C279.721 178.83 279.326 178.796 279.015 178.824C278.703 178.851 278.207 179.003 277.525 179.279C276.842 179.536 276.24 179.815 275.717 180.116C274.43 180.857 273.817 181.568 273.877 182.249C275.445 182.248 276.619 182.212 277.397 182.143C279.556 181.952 280.999 181.638 281.725 181.201C282.175 180.965 282.387 180.701 282.361 180.41C282.33 180.059 282.077 179.748 281.602 179.477Z" fill="#AC47FF"/>
</svg>
