<svg width="103" height="9" viewBox="0 0 103 9" fill="none" xmlns="http://www.w3.org/2000/svg">
<path d="M2 4.5C3.10885 2.61344 6.01061 -0.027741 8.74683 4.5C11.483 9.02774 13.6664 6.38656 14.416 4.5" stroke="#AC47FF" stroke-width="3" stroke-linecap="round"/>
<path d="M14.3687 4.5C15.4775 2.61344 18.3793 -0.027741 21.1155 4.5C23.8517 9.02774 26.035 6.38656 26.7847 4.5" stroke="#AC47FF" stroke-width="3" stroke-linecap="round"/>
<path d="M26.7383 4.5C27.8471 2.61344 30.7489 -0.027741 33.4851 4.5C36.2213 9.02774 38.4047 6.38656 39.1543 4.5" stroke="#AC47FF" stroke-width="3" stroke-linecap="round"/>
<path d="M39.1074 4.5C40.2163 2.61344 43.118 -0.027741 45.8542 4.5C48.5905 9.02774 50.7738 6.38656 51.5235 4.5" stroke="#AC47FF" stroke-width="3" stroke-linecap="round"/>
<path d="M51.4766 4.5C52.5854 2.61344 55.4872 -0.027741 58.2234 4.5C60.9596 9.02774 63.1429 6.38656 63.8926 4.5" stroke="#AC47FF" stroke-width="3" stroke-linecap="round"/>
<path d="M63.8457 4.5C64.9546 2.61344 67.8563 -0.027741 70.5925 4.5C73.3287 9.02774 75.5121 6.38656 76.2617 4.5" stroke="#AC47FF" stroke-width="3" stroke-linecap="round"/>
<path d="M76.2148 4.5C77.3237 2.61344 80.2255 -0.027741 82.9617 4.5C85.6979 9.02774 87.8812 6.38656 88.6309 4.5" stroke="#AC47FF" stroke-width="3" stroke-linecap="round"/>
<path d="M88.584 4.5C89.6928 2.61344 92.5946 -0.027741 95.3308 4.5C98.067 9.02774 100.25 6.38656 101 4.5" stroke="#AC47FF" stroke-width="3" stroke-linecap="round"/>
</svg>
