<svg width="46" height="58" viewBox="0 0 46 58" fill="none" xmlns="http://www.w3.org/2000/svg">
<path d="M14.7655 50.3354C16.4418 50.8224 19.6112 53.2 21.362 53.4251C22.3157 53.5477 23.5835 54.1317 24.5416 54.158C25.3868 54.1811 25.9102 54.3301 26.7641 53.9525C28.4225 53.2189 29.9491 52.5915 31.633 51.8872C32.9272 51.3459 34.0384 50.6096 35.4025 50.1994C36.1555 49.973 36.5262 49.3762 37.1846 48.9619C37.6438 48.6729 38.2181 48.4791 38.6218 48.1079C38.9595 47.7974 38.2254 49.0045 37.8264 49.2309C37.2664 49.5487 37.2062 50.1036 36.7376 50.4982C35.8296 51.2628 34.5959 52.0117 33.5436 52.5491C30.3046 54.2034 25.8736 54.2475 22.3491 53.9133C21.7976 53.861 15.1867 51.6988 14.6494 51.5594C14.1852 51.439 12.0943 50.9055 13.0174 51.4047C15.3673 52.6755 26.2323 55.0651 28.8079 54.7992C30.4898 54.6256 31.6103 53.2376 33.2631 53.0105C33.6627 52.9556 33.8522 52.7426 34.2006 52.5827C35.1259 52.158 36.3066 52.4228 37.2916 52.0721C38.3872 51.6819 39.7639 51.3915 40.4108 50.2796C40.4136 50.2748 39.2199 51.2877 38.9663 51.5132C37.5664 52.7583 36.2281 53.4819 34.3806 53.8627C32.5261 54.245 30.6038 55.6902 28.7225 55.6999C27.0366 55.7086 25.1521 55.5809 23.4852 55.4098C21.9421 55.2514 20.56 53.3153 19.0735 52.8134C18.3535 52.5704 18.0749 51.6352 17.5509 51.1622C16.5709 50.2776 15.4515 49.5742 14.5122 48.6646" stroke="#AC47FF" stroke-linecap="round"/>
<path d="M15.143 6.21272C14.1219 6.45072 11.8915 6.89425 10.9116 7.42425C8.05484 8.96944 6.37861 12.2161 5.04816 15.4805C3.13121 20.1838 1.92528 25.1641 3.70021 29.9899C4.89752 33.2452 6.29411 35.9079 9.17357 37.1946C12.7036 38.772 18.0633 39.2339 20.1008 34.266C21.6631 30.4569 21.7381 25.1878 21.8549 21.0942C21.9906 16.3385 21.3851 11.6177 19.3113 7.6046C18.3816 5.80554 17.178 4.4237 15.7997 3.16165C15.4352 2.82781 15.285 2.50635 14.8471 2.3546" stroke="#AC47FF" stroke-linecap="round"/>
<path d="M14.7095 2.34155C12.117 3.7587 10.3908 5.47063 8.49471 8.08955C6.5779 10.7371 4.63736 13.789 3.67901 17.1218C2.73265 20.4129 3.54917 24.3906 4.801 27.3157C6.33433 30.8986 8.57287 34.6036 11.6796 36.3948C13.1212 37.2259 15.9899 38.0101 17.5332 36.8481C20.1707 34.8623 21.9612 30.6541 22.5239 27.1659C23.1587 23.2313 22.8328 19.7044 21.9127 15.9699C21.0229 12.3578 19.0691 9.18182 16.9646 6.46382C15.9043 5.09444 14.6181 4.07585 13.4721 2.83424" stroke="#AC47FF" stroke-linecap="round"/>
<path d="M12.4638 2.75525C11.0007 4.45795 9.08042 5.53527 7.74321 7.4177C6.42983 9.2666 6.11767 12.4094 5.78098 14.6931C5.17616 18.7955 5.45248 22.8357 5.31985 26.9495C5.17593 31.414 7.36519 34.2624 10.0925 36.7175C11.101 37.6254 12.0799 38.3433 13.4 38.2068C15.2884 38.0115 17.2231 37.1173 18.9589 36.1788C21.8386 34.6218 23.3279 32.2057 24.2475 28.5404C24.9014 25.9339 24.8844 23.0701 24.9364 20.3981C25.027 15.7386 24.0744 12.3892 21.9987 8.58826C20.4444 5.74213 18.4624 1.69597 15.331 1.39911C13.3246 1.2089 11.9345 3.02659 10.3177 4.38324" stroke="#AC47FF" stroke-linecap="round"/>
<path d="M17.0366 2.65998C15.1588 2.48197 13.1733 2.05238 11.2802 2.14826C10.3353 2.19611 9.66873 3.80702 9.25421 4.60756C7.53112 7.93525 6.09058 11.4004 5.7254 15.2524C5.5452 17.1531 5.22538 19.1228 5.26464 21.0327C5.30979 23.2292 5.85812 25.25 6.08462 27.4102C6.36181 30.054 7.19318 31.445 8.83175 33.1887C10.2305 34.6771 11.7529 36.2735 13.3948 37.3944C13.7128 37.6114 13.9732 37.6531 14.3458 37.6885C15.0467 37.7549 15.469 38.0773 16.1057 38.3425C16.9426 38.6911 18.2334 38.8335 19.0532 38.3274C19.4149 38.104 20.0854 37.8388 20.2951 37.3913C20.5307 36.8889 20.445 36.2005 20.6747 35.6371C21.2672 34.1833 21.9663 32.664 22.1836 31.0666C22.3676 29.7146 22.4519 28.3388 22.5808 26.9799C22.6166 26.6018 22.6524 26.2238 22.6883 25.8457C22.7468 25.228 22.3918 24.8488 22.3443 24.2608C22.201 22.4879 22.6183 20.6835 22.5704 18.9115C22.5296 17.4042 22.334 15.914 22.1126 14.4378C21.728 11.8734 21.3566 10.1145 19.6076 8.25178C18.057 6.6003 16.3991 5.15093 14.4438 4.24974" stroke="#AC47FF" stroke-linecap="round"/>
<path d="M13.4179 29.6892C12.917 32.8737 12.5828 35.6299 16.1705 36.3582C17.0449 36.5357 17.3006 36.7578 17.5868 35.7209C17.9636 34.3556 18.3449 32.9892 18.6211 31.597C18.7504 30.9449 19.607 28.7972 19.2239 28.1608C18.6745 27.248 17.5514 27.8269 16.6983 27.4499C15.0216 26.7089 13.2286 29.2908 12.8107 30.8747C12.3776 32.516 12.8861 33.5441 14.0458 34.5494C15.0546 35.4238 16.0605 36.0922 17.2658 36.6013C17.7411 36.8021 18.4319 37.2789 18.9612 36.9871C19.4599 36.7121 20.0775 36.0319 20.2924 35.4738C20.4728 35.005 20.1104 34.5711 20.0867 34.0934C20.0113 32.575 20.2355 31.0401 19.5382 29.6479C17.838 26.2534 14.8213 25.7006 12.0312 27.8218C8.61886 30.416 12.7332 35.8938 15.1938 36.9514C16.4354 37.485 18.2756 38.2893 19.1363 36.8108C19.4244 36.3158 19.4275 35.8273 19.4815 35.2576C19.6144 33.8557 19.7473 32.4538 19.8802 31.052C19.9077 30.7613 20.3314 28.7471 19.9961 28.5769C18.5203 27.828 16.4681 27.3973 14.8394 27.3272C13.0269 27.2492 9.37364 27.1225 8.21189 28.9599C6.35225 31.9011 9.19388 35.0526 11.549 36.1451C12.869 36.7574 14.388 36.6621 15.7685 37.0487C16.565 37.2718 16.8638 37.3052 17.6099 36.7304C19.7911 35.05 20.9045 31.9358 21.1329 29.1133C21.3336 26.6321 16.9871 25.6615 15.5058 25.6223C13.2195 25.5619 9.01043 27.0932 8.18039 29.8142C8.0108 30.3702 7.52925 34.1683 8.0201 34.4282C11.1127 36.0659 14.5083 36.7804 17.9889 36.5949C20.3069 36.4713 22.3188 35.7674 22.858 33.0488C23.0318 32.172 23.6346 29.7563 22.8889 29.1726C21.2017 27.8519 19.4716 26.8919 17.51 26.0909C16.5438 25.6964 15.298 25.0454 14.2241 24.9436C12.7423 24.8031 12.8424 28.2435 12.759 29.1231C12.6445 30.331 11.7955 33.432 12.9241 34.2716C14.0486 35.1081 15.8715 34.8633 16.1046 33.1908C16.2209 32.3558 16.5928 29.2937 15.6833 28.8646C14.5062 28.3091 12.147 28.2834 11.8414 30.0327C11.2555 33.3863 17.6643 34.5295 19.6566 34.6634C21.2185 34.7684 21.0294 32.4683 21.3435 31.2764C21.6538 30.0987 22.9331 27.7475 22.5108 26.4793C22.254 25.7079 20.1695 26.1737 19.7367 26.302C18.3427 26.7151 17.1716 27.7593 16.8861 29.3322C16.6738 30.5012 16.8727 31.7992 17.1285 32.9342C17.2715 33.569 17.4152 33.7692 17.662 33.0491C17.769 32.7366 18.7917 29.3665 18.3262 29.8009C17.4503 30.6183 14.709 34.256 16.0093 35.6571C16.5365 36.2251 17.6231 34.9086 17.8291 34.5223C18.5186 33.2292 18.8079 31.1661 18.5216 29.723C18.1054 27.6251 12.5246 28.7271 11.9865 30.4858C11.6329 31.6413 12.3015 32.8739 13.1556 33.5006C14.3461 34.3741 14.7919 33.711 15.0961 32.3451C15.5651 30.2386 15.695 28.1036 15.4932 25.964C15.3941 24.9138 15.3857 25.1384 14.8302 25.8583C14.2349 26.6297 13.7437 26.9061 13.9517 28.0253C14.0402 28.5013 14.7641 30.8303 15.6111 30.3579C16.4607 29.884 16.1931 25.875 16.1487 25.1046C16.0072 22.6528 14.844 22.0003 12.6966 22.8914C9.76808 24.1066 7.9076 28.8216 9.63551 31.7953C10.3059 32.9491 11.4299 33.7144 12.4508 34.4625C13.3474 35.1196 13.1975 34.1132 13.2129 33.3131C13.228 32.5301 13.1149 28.467 11.4255 29.2003C9.95639 29.838 9.36773 36.2852 10.6689 36.1366C11.7513 36.0131 12.2282 32.5853 12.3471 31.9023C12.7099 29.8176 12.8784 27.4758 12.0329 25.5074C10.561 22.0809 7.17914 26.3297 7.46869 28.7609C8.1132 34.1726 16.4977 36.0729 18.678 30.788C19.7145 28.2755 17.311 27.4951 15.368 28.2239C13.8631 28.7883 12.8964 30.3478 13.3297 32.0812C14.0305 34.8847 17.0101 35.523 19.3329 35.0506C22.1121 34.4854 22.2427 31.8247 22.1314 29.2294C22.0616 27.6036 21.7919 25.1581 20.6018 23.9623C19.4686 22.8236 17.1702 22.8164 15.7349 22.5793C14.7874 22.4228 13.5457 21.9047 13.0708 23.1197C12.4702 24.6564 12.1069 30.8492 14.8143 30.411C16.5452 30.1308 17.4343 29.1471 16.8741 27.3701C16.5751 26.4214 15.9763 25.0397 14.9978 24.7169C13.74 24.302 11.6411 24.9631 10.8306 26.0792C9.12338 28.4303 11.5401 30.766 13.3997 31.552C14.7454 32.1209 20.9846 34.2697 21.5648 31.4474C21.9733 29.4602 19.9033 27.5601 18.4242 26.992C16.6405 26.3068 14.8066 26.4173 12.9835 26.7548" stroke="#AC47FF" stroke-linecap="round"/>
<path d="M35.6122 4.04637C34.5974 4.32817 33.5438 4.53902 32.7954 5.57068C32.5545 5.9028 32.3061 6.29044 32.1285 6.68241C32.0157 6.93111 32.0062 7.22892 31.9087 7.48983C31.5157 8.5411 31.0002 9.53512 30.5483 10.5487C30.1849 11.3637 30.0274 12.2337 29.8811 13.1339C29.5598 15.11 29.0536 17.0772 28.8318 19.073C28.677 20.4658 28.6383 21.8289 28.7406 23.2153C28.8053 24.0908 28.9344 24.8711 29.3709 25.5527C29.7466 26.1394 30.1118 26.8258 30.5558 27.3264C31.2167 28.0715 32.0439 28.7075 32.8256 29.2269C33.2481 29.5078 33.6678 29.94 34.1436 30.0742C34.3632 30.1362 34.547 30.1808 34.7414 30.3283C35.7119 31.0648 37.1325 31.3019 38.2209 30.7593C40.7189 29.514 41.1924 25.4846 41.4518 22.6001C41.6192 20.7385 41.5621 18.9342 41.4656 17.0877C41.3753 15.3602 41.368 13.6617 41.0021 11.9972C40.555 9.96322 39.5806 8.16471 38.5644 6.54134C37.7602 5.25668 36.9779 4.13201 35.6858 3.66811C35.1067 3.46021 34.5437 3.3386 33.9516 3.19552C32.9459 2.95251 31.8884 3.24354 30.9331 3.78577C28.8025 4.99507 27.6491 7.83431 27.1696 10.5655C26.856 12.3512 26.7983 14.1759 26.8376 15.9754C26.8788 17.8637 26.8885 19.7671 27.2084 21.6061C27.4414 22.9456 27.895 24.1826 28.1579 25.5051C28.274 26.0889 28.2755 26.6877 28.4484 27.2518C28.637 27.8671 28.9106 28.444 29.2247 28.9626C29.8355 29.9711 30.6017 30.6986 31.3796 31.4783C32.15 32.2504 32.7164 32.9751 33.6992 33.3307C34.6163 33.6624 35.5484 33.7632 36.5003 33.8803C37.7092 34.029 39.0033 33.9627 39.8397 32.6078C40.7038 31.2081 41.4812 29.7456 42.0333 28.1159C42.7041 26.1356 43.0063 23.9333 43.1426 21.8213C43.3979 17.8644 42.0312 14.0941 40.4922 10.8557C40.0829 9.99447 39.6336 9.22469 39.121 8.4625C38.6439 7.75317 38.3525 7.01278 37.9678 6.23438C37.3915 5.06819 36.3793 4.72746 35.3818 4.40976C34.4515 4.11345 33.6886 3.40211 32.7512 3.13469C31.9774 2.91395 31.2835 3.21869 30.5716 3.70334C29.3875 4.50938 28.6724 5.80573 27.9334 7.19965C27.4101 8.18668 26.8951 9.20028 26.5966 10.3281C26.3517 11.2532 26.2195 12.2453 26.0908 13.1983C25.8189 15.2117 25.6821 17.2636 25.5961 19.2911C25.4935 21.7097 25.4487 24.2079 25.5537 26.6162C25.6457 28.7251 25.9074 30.8281 26.5115 32.7745C26.828 33.7945 27.1278 34.7486 27.8892 35.3369C29.5762 36.6401 31.8263 36.747 33.7883 36.7244C35.8655 36.7004 37.9557 35.4362 39.2062 33.2075C39.8323 32.0915 40.3227 30.7643 40.6855 29.4905C41.1697 27.7908 41.2062 25.9062 41.3734 24.1432C41.7394 20.282 41.8682 16.5044 41.4649 12.6815C41.2744 10.8757 40.9219 8.8803 40.1465 7.34622C39.1892 5.45242 37.5584 4.6507 35.8913 4.16432C33.891 3.58076 31.9789 4.15498 30.0596 5.12832C29.2809 5.52321 28.467 5.95389 27.7991 6.62832C27.0409 7.39395 26.5254 8.57213 26.0819 9.63409C25.1558 11.8516 24.8075 14.367 24.5658 16.8002C24.0026 22.4711 23.9672 28.1349 25.756 33.3481C26.0724 34.2702 26.499 35.2826 27.1263 35.9098C28.376 37.1592 30.2842 37.6352 31.8086 38.1258C32.776 38.4371 33.8543 38.55 34.8453 38.1777C36.6445 37.5019 38.3151 36.0861 39.6973 34.4675C41.2346 32.6674 42.7743 30.7451 43.3792 28.152C43.7096 26.7356 43.7809 25.2262 43.9182 23.7777C44.086 22.0083 44.2563 20.2457 44.1912 18.4729C44.1251 16.6701 43.8975 14.6946 43.3137 13.059C43.0608 12.3507 42.7837 11.5984 42.4428 10.954C41.8486 9.83047 40.8516 9.02407 39.9432 8.37672C38.0513 7.02841 36.0051 5.96009 33.8104 5.59948C32.6395 5.40709 31.5535 5.32352 30.4757 6.14531C29.5357 6.86213 29.1362 7.94885 28.7128 9.15637C27.8914 11.4989 27.7505 13.8343 27.74 16.3162C27.7319 18.2641 27.765 20.2106 27.8351 22.1519C27.9919 26.4912 28.1728 31.131 29.6827 35.0253C29.9637 35.7501 30.4052 35.7365 31.064 35.8016C33.1528 36.0077 35.6283 35.774 36.9786 33.3671C37.6906 32.0979 38.2624 30.6877 38.836 29.32C39.7169 27.2195 40.5193 25.1065 41.1399 22.8691C42.1693 19.1578 43.4671 14.7195 42.1801 10.9821C41.3542 8.58363 39.5482 7.12967 37.7896 5.96709C36.956 5.41597 36.4151 4.92893 35.4588 5.18753C31.5779 6.23704 28.4561 9.61343 26.5026 14.0223C24.7837 17.9017 23.9514 22.4446 23.8481 26.7964C23.7774 29.7699 24.4531 32.4573 25.4754 35.0358C26.0425 36.4661 26.7506 37.6051 27.9354 38.269C29.9431 39.3941 32.1587 38.6855 34.0401 37.249C35.0968 36.4422 35.9846 35.2777 36.8157 34.1317C37.4857 33.2077 38.0658 32.2724 38.4507 31.1182C39.0793 29.2328 39.2542 26.9215 38.7049 25.017C38.5657 24.5341 38.1391 24.5217 37.7921 24.4682C36.5828 24.2819 35.3323 24.1733 34.1076 24.1719C32.3348 24.1698 30.3689 25.1171 29.429 27.2051C28.6006 29.0456 28.1293 31.7687 28.9382 33.6546C29.4297 34.8005 30.4615 35.6473 31.5193 35.0935C32.12 34.7791 32.5474 34.1379 32.9542 33.5153C33.7152 32.3504 34.5566 31.0357 34.9179 29.5794C35.2507 28.2382 35.1336 26.785 34.8225 25.4965C34.6936 24.9622 34.5375 24.4508 34.0398 24.4496C32.8247 24.4465 31.749 25.4587 31.5655 27.0128C31.3576 28.7733 31.4284 31.1499 32.7069 32.1483C34.0029 33.1603 35.5356 32.5931 36.5705 31.1518C38.0318 29.1165 37.9831 25.949 36.0181 24.7334C34.789 23.9731 33.0609 23.3195 31.6447 23.7121C30.749 23.9604 30.1235 24.9758 29.7348 25.9676C28.7243 28.5463 29.858 31.1065 31.7642 32.0734C33.2499 32.827 35.4361 33.0806 36.7076 31.4152C37.1783 30.7986 37.5553 29.9024 37.5206 29.0412C37.4642 27.6402 36.4522 26.878 35.5067 26.51C34.0329 25.9364 31.155 25.4401 30.7703 28.1653C30.5994 29.3756 30.7771 30.6478 31.2756 31.6611C31.6588 32.44 32.4447 33.6745 33.309 33.5104C34.1769 33.3455 34.7764 32.2427 35.1464 31.3442C35.6093 30.22 36.1725 28.3137 35.3536 27.29C34.2529 25.9142 32.1385 25.9695 30.7053 26.4256C29.6612 26.7579 28.7508 27.5072 28.9247 28.9872C29.0997 30.4768 29.8351 31.8867 30.8263 32.6634C32.1549 33.7046 34.2893 34.2904 35.7693 33.1224C37.0289 32.1284 37.1155 29.9965 36.2192 28.7349C35.3275 27.4797 33.7684 27.2804 32.4945 27.6305C31.7874 27.8249 31.0871 28.2169 30.9051 29.2086C30.6582 30.5535 31.1509 31.8435 32.0929 32.4224C33.0891 33.0344 35.1944 33.4958 35.8703 31.7788C36.2087 30.9193 35.5966 30.8091 35.1333 30.7266C34.2935 30.5772 33.4398 30.9304 32.7339 30.1139C31.9483 29.2052 32.3025 26.7529 30.9272 26.6296C29.5603 26.5071 28.6942 28.5676 29.1064 29.9723C29.47 31.2115 30.6507 31.5 31.5766 31.627C32.4188 31.7425 34.0546 31.955 34.6974 30.9116C35.0911 30.2727 35.0736 29.1483 34.9509 28.4365C34.6808 26.8695 33.6877 26.205 32.452 26.4082C31.3951 26.5821 29.9524 27.3113 29.5059 28.7004C29.1011 29.9597 29.5789 31.3092 30.4873 31.8656C32.5098 33.1046 38.7868 32.5811 38.1165 28.0431C37.8824 26.4581 36.7999 25.2663 35.5366 25.1212C33.8587 24.9284 32.2813 26.3127 31.7596 28.3843C30.8999 31.7982 33.937 34.0323 36.272 33.1075C37.2941 32.7027 38.3256 31.2471 37.7476 29.8669C36.9898 28.0571 34.6369 28.5383 33.3612 28.984C32.3492 29.3376 30.1882 30.3201 30.3112 32.1331C30.4059 33.5291 32.0578 34.185 32.8906 34.5445C33.588 34.8456 35.8136 35.8402 35.9329 33.9806C36.0356 32.3815 34.6696 31.0701 33.6055 30.7407C32.4027 30.3684 31.0464 30.7231 30.0069 31.6853C29.1241 32.5025 28.3467 34.3219 29.2974 35.4318C29.722 35.9275 30.6492 36.2904 31.1825 36.381C31.5901 36.4503 32.751 36.5234 33.1455 35.9507C33.5895 35.3061 33.0327 34.166 32.8177 33.7623C32.4267 33.0282 31.6409 32.0995 31.082 31.5561C30.4102 30.9029 29.556 30.0277 29.0807 31.3567C28.9811 31.6351 28.9516 32.6043 28.6907 32.6873" stroke="#AC47FF" stroke-linecap="round"/>
</svg>
