<svg width="504" height="156" viewBox="0 0 504 156" fill="none" xmlns="http://www.w3.org/2000/svg">
<path d="M48.4412 4.58303C49.3155 3.51438 49.1579 1.93933 48.0893 1.06505C47.0207 0.19077 45.4456 0.34833 44.5713 1.41697L48.4412 4.58303ZM166.756 112.842L167.447 115.245L166.756 112.842ZM166.756 140.895L167.636 138.555L166.756 140.895ZM503.5 23.1278C503.487 21.7472 502.358 20.6383 500.977 20.651L478.478 20.8582C477.097 20.8709 475.988 22.0004 476.001 23.3811C476.014 24.7617 477.143 25.8707 478.524 25.858L498.523 25.6738L498.707 45.6729C498.72 47.0536 499.85 48.1625 501.23 48.1498C502.611 48.1371 503.72 47.0075 503.707 45.6269L503.5 23.1278ZM44.5713 1.41697C31.6072 17.2632 18.8114 36.1316 10.3819 54.5727C2.00611 72.8963 -2.30671 91.3343 2.51213 106.016C7.45532 121.076 21.6201 131.225 47.7563 133.691C73.8263 136.152 112.397 131.077 167.447 115.245L166.065 110.439C111.209 126.216 73.3581 131.085 48.2261 128.714C23.1604 126.348 11.3437 116.89 7.26277 104.456C3.05747 91.6443 6.67781 74.7031 14.9293 56.6514C23.1271 38.7172 35.6529 20.2143 48.4412 4.58303L44.5713 1.41697ZM167.447 115.245C201.826 105.357 225.198 97.4176 240.059 91.2022C247.477 88.0998 252.869 85.3883 256.471 83.0323C258.268 81.857 259.711 80.7121 260.745 79.5836C261.745 78.4932 262.603 77.1588 262.711 75.6166C262.832 73.8879 261.983 72.5303 260.858 71.6197C259.812 70.7722 258.438 70.2163 257.006 69.8243C254.111 69.0318 250.095 68.6801 245.411 68.6558C235.98 68.607 223.146 69.8893 209.485 72.2499C195.81 74.6128 181.208 78.0732 168.235 82.4199C155.325 86.7455 143.784 92.0276 136.429 98.1398C132.746 101.201 129.921 104.626 128.636 108.433C127.312 112.352 127.706 116.426 130.009 120.448C132.258 124.374 136.28 128.184 142.111 131.92C147.965 135.67 155.798 139.445 165.876 143.235L167.636 138.555C157.754 134.838 150.268 131.208 144.808 127.71C139.325 124.197 136.039 120.916 134.348 117.963C132.711 115.106 132.535 112.513 133.373 110.033C134.249 107.44 136.319 104.733 139.625 101.985C146.251 96.4784 157.076 91.432 169.824 87.1608C182.509 82.9106 196.858 79.5059 210.336 77.1769C223.828 74.8455 236.35 73.6089 245.385 73.6558C249.934 73.6793 253.429 74.0291 255.685 74.6469C256.829 74.96 257.441 75.2865 257.712 75.5055C257.904 75.6613 257.703 75.5542 257.723 75.2671C257.73 75.1665 257.738 75.4646 257.06 76.2047C256.416 76.9066 255.352 77.7901 253.735 78.8479C250.508 80.9581 245.44 83.5321 238.13 86.5894C223.534 92.6937 200.378 100.571 166.065 110.439L167.447 115.245ZM165.876 143.235C230.647 167.595 300.411 152.7 361.018 124.533C421.655 96.3514 473.519 54.7113 502.784 24.9023L499.216 21.3995C470.295 50.8577 418.912 92.1127 358.911 119.998C298.881 147.898 230.616 162.241 167.636 138.555L165.876 143.235Z" fill="#AC47FF"/>
</svg>
