<svg width="233" height="20" viewBox="0 0 233 20" fill="none" xmlns="http://www.w3.org/2000/svg">
<rect width="71" height="20" rx="10" fill="#FFD335"/>
<rect width="71" height="20" rx="10" fill="white" fill-opacity="0.9"/>
<path d="M10.83 6.51H12.01V10.55C12.01 11.0833 12.145 11.4683 12.415 11.705C12.6883 11.9417 13.0367 12.06 13.46 12.06C13.8867 12.06 14.235 11.9417 14.505 11.705C14.775 11.4683 14.91 11.0833 14.91 10.55V6.51H16.09V10.55C16.09 11.0967 15.985 11.5633 15.775 11.95C15.565 12.3367 15.2633 12.6317 14.87 12.835C14.48 13.0383 14.01 13.14 13.46 13.14C12.91 13.14 12.4383 13.0383 12.045 12.835C11.655 12.6317 11.355 12.3367 11.145 11.95C10.935 11.5633 10.83 11.0967 10.83 10.55V6.51ZM17.0643 13L18.9543 10.58L17.0643 8.13H18.5143L19.7043 9.69L20.8343 8.13H22.2743L20.3943 10.58L22.2743 13H20.8343L19.6243 11.44L18.5143 13H17.0643ZM25.0707 6.51H26.3907L27.9607 11.96H27.6607L29.2107 6.94H30.0107L31.6207 11.88H31.3507L33.0007 6.51H34.3307L32.1007 13H30.8607L29.5907 9.17H29.7007L28.4307 13H27.1907L25.0707 6.51ZM34.9632 13V8.13H36.1432V13H34.9632ZM35.8532 10.87C35.8532 10.2333 35.9249 9.70667 36.0682 9.29C36.2115 8.87333 36.4032 8.565 36.6432 8.365C36.8865 8.16167 37.1565 8.06 37.4532 8.06C37.5332 8.06 37.6082 8.065 37.6782 8.075C37.7515 8.085 37.8232 8.1 37.8932 8.12L37.8732 9.3C37.7865 9.28 37.6932 9.26333 37.5932 9.25C37.4932 9.23667 37.4032 9.23 37.3232 9.23C37.0632 9.23 36.8449 9.29333 36.6682 9.42C36.4949 9.54333 36.3632 9.72667 36.2732 9.97C36.1865 10.2133 36.1432 10.5133 36.1432 10.87H35.8532ZM39.579 7.26C39.349 7.26 39.169 7.2 39.039 7.08C38.9123 6.95667 38.849 6.78667 38.849 6.57C38.849 6.36 38.9123 6.19333 39.039 6.07C39.169 5.94333 39.349 5.88 39.579 5.88C39.8057 5.88 39.984 5.94333 40.114 6.07C40.244 6.19333 40.309 6.36 40.309 6.57C40.309 6.78667 40.244 6.95667 40.114 7.08C39.984 7.2 39.8057 7.26 39.579 7.26ZM38.989 13V8.13H40.169V13H38.989ZM43.8102 13.14C43.5236 13.14 43.2602 13.0867 43.0202 12.98C42.7836 12.8733 42.5936 12.71 42.4502 12.49C42.3102 12.27 42.2402 11.99 42.2402 11.65V6.86H43.4202V11.61C43.4202 12.01 43.6102 12.21 43.9902 12.21C44.1069 12.21 44.2236 12.1967 44.3402 12.17C44.4569 12.1433 44.5902 12.1033 44.7402 12.05L44.9102 12.88C44.7236 12.9533 44.5419 13.015 44.3652 13.065C44.1886 13.115 44.0036 13.14 43.8102 13.14ZM41.5602 8.93V8.15H44.7402V8.93H41.5602ZM46.8055 7.26C46.5755 7.26 46.3955 7.2 46.2655 7.08C46.1389 6.95667 46.0755 6.78667 46.0755 6.57C46.0755 6.36 46.1389 6.19333 46.2655 6.07C46.3955 5.94333 46.5755 5.88 46.8055 5.88C47.0322 5.88 47.2105 5.94333 47.3405 6.07C47.4705 6.19333 47.5355 6.36 47.5355 6.57C47.5355 6.78667 47.4705 6.95667 47.3405 7.08C47.2105 7.2 47.0322 7.26 46.8055 7.26ZM46.2155 13V8.13H47.3955V13H46.2155ZM52.7268 13V10.16C52.7268 9.8 52.6401 9.52833 52.4668 9.345C52.2935 9.16167 52.0668 9.07 51.7868 9.07C51.5501 9.07 51.3401 9.135 51.1568 9.265C50.9768 9.395 50.8351 9.59167 50.7318 9.855C50.6285 10.115 50.5768 10.44 50.5768 10.83H50.1868C50.1868 10.2 50.2651 9.67667 50.4218 9.26C50.5785 8.84 50.8001 8.52667 51.0868 8.32C51.3735 8.11333 51.7101 8.01 52.0968 8.01C52.4968 8.01 52.8301 8.1 53.0968 8.28C53.3668 8.45667 53.5685 8.70667 53.7018 9.03C53.8385 9.35333 53.9068 9.73 53.9068 10.16V13H52.7268ZM49.3968 13V8.15H50.4268L50.5768 9.11V13H49.3968ZM57.4973 15.51C56.9406 15.51 56.4639 15.4333 56.0673 15.28C55.6739 15.1267 55.3723 14.925 55.1623 14.675C54.9523 14.4283 54.8473 14.16 54.8473 13.87C54.8473 13.5267 54.9723 13.26 55.2223 13.07C55.4723 12.8833 55.7873 12.79 56.1673 12.79L57.0273 13.11C56.7006 13.11 56.4489 13.1717 56.2723 13.295C56.0956 13.4183 56.0073 13.59 56.0073 13.81C56.0073 14.04 56.1389 14.2233 56.4023 14.36C56.6689 14.5 57.0339 14.57 57.4973 14.57C57.8339 14.57 58.1256 14.52 58.3723 14.42C58.6189 14.32 58.8089 14.19 58.9423 14.03C59.0789 13.87 59.1473 13.7 59.1473 13.52C59.1473 13.4 59.1073 13.3017 59.0273 13.225C58.9473 13.1483 58.8239 13.11 58.6573 13.11H57.0273C56.7006 13.11 56.4023 13.0583 56.1323 12.955C55.8656 12.8483 55.6523 12.7067 55.4923 12.53C55.3356 12.35 55.2573 12.15 55.2573 11.93C55.2573 11.7267 55.3139 11.5517 55.4273 11.405C55.5406 11.255 55.6939 11.14 55.8873 11.06C56.0839 10.98 56.3039 10.94 56.5473 10.94L56.8473 11.33C56.7506 11.33 56.6573 11.35 56.5673 11.39C56.4806 11.4267 56.4089 11.4817 56.3523 11.555C56.2956 11.6283 56.2673 11.72 56.2673 11.83C56.2673 11.9633 56.3239 12.0717 56.4373 12.155C56.5506 12.2383 56.7473 12.28 57.0273 12.28H58.6573C59.1739 12.28 59.5789 12.375 59.8723 12.565C60.1689 12.755 60.3173 13.0467 60.3173 13.44C60.3173 13.79 60.2023 14.1217 59.9723 14.435C59.7423 14.7517 59.4156 15.01 58.9923 15.21C58.5723 15.41 58.0739 15.51 57.4973 15.51ZM57.5573 11.5C57.1739 11.5 56.8223 11.4283 56.5023 11.285C56.1856 11.1383 55.9323 10.935 55.7423 10.675C55.5523 10.415 55.4573 10.11 55.4573 9.76C55.4573 9.40333 55.5523 9.09333 55.7423 8.83C55.9323 8.56667 56.1856 8.365 56.5023 8.225C56.8223 8.08167 57.1739 8.01 57.5573 8.01C57.9306 8.01 58.2756 8.08167 58.5923 8.225C58.9089 8.365 59.1639 8.56667 59.3573 8.83C59.5506 9.09333 59.6473 9.40333 59.6473 9.76C59.6473 10.11 59.5506 10.415 59.3573 10.675C59.1639 10.935 58.9089 11.1383 58.5923 11.285C58.2756 11.4283 57.9306 11.5 57.5573 11.5ZM57.5673 10.68C57.8739 10.68 58.1039 10.5917 58.2573 10.415C58.4106 10.2383 58.4873 10.02 58.4873 9.76C58.4873 9.48 58.4089 9.255 58.2523 9.085C58.0989 8.915 57.8673 8.83 57.5573 8.83C57.2573 8.83 57.0273 8.915 56.8673 9.085C56.7073 9.255 56.6273 9.48 56.6273 9.76C56.6273 10.02 56.7073 10.2383 56.8673 10.415C57.0306 10.5917 57.2639 10.68 57.5673 10.68ZM59.2773 8.79L58.7373 8.48C58.7373 8.19 58.8039 7.93667 58.9373 7.72C59.0739 7.5 59.2539 7.33 59.4773 7.21C59.7039 7.09 59.9539 7.03 60.2273 7.03L60.1673 8.16C59.8773 8.16 59.6556 8.21167 59.5023 8.315C59.3523 8.415 59.2773 8.57333 59.2773 8.79Z" fill="#D2A503"/>
<rect x="76" width="96" height="20" rx="10" fill="#FFD335"/>
<rect x="76" width="96" height="20" rx="10" fill="white" fill-opacity="0.9"/>
<path d="M89.29 13.14C88.72 13.14 88.2233 13.005 87.8 12.735C87.38 12.4617 87.0533 12.0717 86.82 11.565C86.5867 11.0583 86.47 10.45 86.47 9.74C86.47 9.00667 86.59 8.39167 86.83 7.895C87.0733 7.395 87.4067 7.01833 87.83 6.765C88.2567 6.50833 88.7433 6.38 89.29 6.38C90.0467 6.38 90.6367 6.56333 91.06 6.93C91.4867 7.29667 91.76 7.77333 91.88 8.36L90.62 8.59C90.5167 8.25 90.3517 7.975 90.125 7.765C89.8983 7.555 89.62 7.45 89.29 7.45C89 7.45 88.7383 7.535 88.505 7.705C88.2717 7.87167 88.085 8.125 87.945 8.465C87.8083 8.805 87.74 9.23 87.74 9.74C87.74 10.22 87.8 10.6333 87.92 10.98C88.0433 11.3267 88.22 11.5933 88.45 11.78C88.68 11.9667 88.96 12.06 89.29 12.06C89.7133 12.06 90.04 11.9483 90.27 11.725C90.5033 11.4983 90.62 11.21 90.62 10.86H91.88C91.88 11.3433 91.775 11.755 91.565 12.095C91.3583 12.4317 91.0617 12.69 90.675 12.87C90.2883 13.05 89.8267 13.14 89.29 13.14ZM95.1779 13.14C94.7346 13.14 94.3329 13.045 93.9729 12.855C93.6162 12.665 93.3329 12.3817 93.1229 12.005C92.9129 11.625 92.8079 11.15 92.8079 10.58C92.8079 10 92.9129 9.52 93.1229 9.14C93.3329 8.76 93.6162 8.47667 93.9729 8.29C94.3329 8.10333 94.7346 8.01 95.1779 8.01C95.6146 8.01 96.0096 8.10333 96.3629 8.29C96.7196 8.47667 97.0029 8.76 97.2129 9.14C97.4229 9.52 97.5279 10 97.5279 10.58C97.5279 11.15 97.4229 11.625 97.2129 12.005C97.0029 12.3817 96.7196 12.665 96.3629 12.855C96.0096 13.045 95.6146 13.14 95.1779 13.14ZM95.1379 12.11C95.3712 12.11 95.5779 12.0533 95.7579 11.94C95.9412 11.8233 96.0846 11.6517 96.1879 11.425C96.2946 11.1983 96.3479 10.9167 96.3479 10.58C96.3479 10.0667 96.2462 9.68 96.0429 9.42C95.8429 9.16 95.5679 9.03 95.2179 9.03C94.9812 9.03 94.7712 9.08833 94.5879 9.205C94.4046 9.31833 94.2596 9.49 94.1529 9.72C94.0496 9.95 93.9979 10.2367 93.9979 10.58C93.9979 11.0867 94.0996 11.4683 94.3029 11.725C94.5096 11.9817 94.7879 12.11 95.1379 12.11ZM102.262 13V10.16C102.262 9.8 102.175 9.52833 102.002 9.345C101.829 9.16167 101.602 9.07 101.322 9.07C101.085 9.07 100.875 9.135 100.692 9.265C100.512 9.395 100.37 9.59167 100.267 9.855C100.164 10.115 100.112 10.44 100.112 10.83H99.722C99.722 10.2 99.8003 9.67667 99.957 9.26C100.114 8.84 100.335 8.52667 100.622 8.32C100.909 8.11333 101.245 8.01 101.632 8.01C102.032 8.01 102.365 8.1 102.632 8.28C102.902 8.45667 103.104 8.70667 103.237 9.03C103.374 9.35333 103.442 9.73 103.442 10.16V13H102.262ZM98.932 13V8.15H99.962L100.112 9.11V13H98.932ZM106.802 13.14C106.516 13.14 106.252 13.0867 106.012 12.98C105.776 12.8733 105.586 12.71 105.442 12.49C105.302 12.27 105.232 11.99 105.232 11.65V6.86H106.412V11.61C106.412 12.01 106.602 12.21 106.982 12.21C107.099 12.21 107.216 12.1967 107.332 12.17C107.449 12.1433 107.582 12.1033 107.732 12.05L107.902 12.88C107.716 12.9533 107.534 13.015 107.357 13.065C107.181 13.115 106.996 13.14 106.802 13.14ZM104.552 8.93V8.15H107.732V8.93H104.552ZM110.918 13.14C110.504 13.14 110.126 13.0333 109.783 12.82C109.439 12.6067 109.164 12.3083 108.958 11.925C108.751 11.5383 108.648 11.0867 108.648 10.57C108.648 10.0367 108.749 9.57833 108.953 9.195C109.159 8.81167 109.434 8.51833 109.778 8.315C110.121 8.11167 110.501 8.01 110.918 8.01C111.304 8.01 111.638 8.08833 111.918 8.245C112.201 8.39833 112.428 8.60833 112.598 8.875C112.771 9.13833 112.888 9.43667 112.948 9.77C113.008 10.1033 113.011 10.4467 112.958 10.8H109.588V10.16H112.123L111.893 10.31C111.903 10.1533 111.894 9.995 111.868 9.835C111.844 9.675 111.798 9.52833 111.728 9.395C111.658 9.26167 111.558 9.155 111.428 9.075C111.301 8.99167 111.138 8.95 110.938 8.95C110.698 8.95 110.494 9.01 110.328 9.13C110.161 9.25 110.034 9.41333 109.948 9.62C109.861 9.82667 109.818 10.06 109.818 10.32V10.79C109.818 11.0633 109.858 11.305 109.938 11.515C110.021 11.725 110.143 11.89 110.303 12.01C110.466 12.13 110.671 12.19 110.918 12.19C111.148 12.19 111.341 12.1367 111.498 12.03C111.654 11.9233 111.754 11.7633 111.798 11.55H112.988C112.938 11.8633 112.819 12.14 112.633 12.38C112.449 12.6167 112.211 12.8033 111.918 12.94C111.624 13.0733 111.291 13.14 110.918 13.14ZM117.74 13V10.16C117.74 9.8 117.654 9.52833 117.48 9.345C117.307 9.16167 117.08 9.07 116.8 9.07C116.564 9.07 116.354 9.135 116.17 9.265C115.99 9.395 115.849 9.59167 115.745 9.855C115.642 10.115 115.59 10.44 115.59 10.83H115.2C115.2 10.2 115.279 9.67667 115.435 9.26C115.592 8.84 115.814 8.52667 116.1 8.32C116.387 8.11333 116.724 8.01 117.11 8.01C117.51 8.01 117.844 8.1 118.11 8.28C118.38 8.45667 118.582 8.70667 118.715 9.03C118.852 9.35333 118.92 9.73 118.92 10.16V13H117.74ZM114.41 13V8.15H115.44L115.59 9.11V13H114.41ZM122.281 13.14C121.994 13.14 121.731 13.0867 121.491 12.98C121.254 12.8733 121.064 12.71 120.921 12.49C120.781 12.27 120.711 11.99 120.711 11.65V6.86H121.891V11.61C121.891 12.01 122.081 12.21 122.461 12.21C122.578 12.21 122.694 12.1967 122.811 12.17C122.928 12.1433 123.061 12.1033 123.211 12.05L123.381 12.88C123.194 12.9533 123.013 13.015 122.836 13.065C122.659 13.115 122.474 13.14 122.281 13.14ZM120.031 8.93V8.15H123.211V8.93H120.031ZM126.286 6.51H127.606L129.176 11.96H128.876L130.426 6.94H131.226L132.836 11.88H132.566L134.216 6.51H135.546L133.316 13H132.076L130.806 9.17H130.916L129.646 13H128.406L126.286 6.51ZM136.178 13V8.13H137.358V13H136.178ZM137.068 10.87C137.068 10.2333 137.14 9.70667 137.283 9.29C137.426 8.87333 137.618 8.565 137.858 8.365C138.101 8.16167 138.371 8.06 138.668 8.06C138.748 8.06 138.823 8.065 138.893 8.075C138.966 8.085 139.038 8.1 139.108 8.12L139.088 9.3C139.001 9.28 138.908 9.26333 138.808 9.25C138.708 9.23667 138.618 9.23 138.538 9.23C138.278 9.23 138.06 9.29333 137.883 9.42C137.71 9.54333 137.578 9.72667 137.488 9.97C137.401 10.2133 137.358 10.5133 137.358 10.87H137.068ZM140.794 7.26C140.564 7.26 140.384 7.2 140.254 7.08C140.127 6.95667 140.064 6.78667 140.064 6.57C140.064 6.36 140.127 6.19333 140.254 6.07C140.384 5.94333 140.564 5.88 140.794 5.88C141.02 5.88 141.199 5.94333 141.329 6.07C141.459 6.19333 141.524 6.36 141.524 6.57C141.524 6.78667 141.459 6.95667 141.329 7.08C141.199 7.2 141.02 7.26 140.794 7.26ZM140.204 13V8.13H141.384V13H140.204ZM145.025 13.14C144.738 13.14 144.475 13.0867 144.235 12.98C143.998 12.8733 143.808 12.71 143.665 12.49C143.525 12.27 143.455 11.99 143.455 11.65V6.86H144.635V11.61C144.635 12.01 144.825 12.21 145.205 12.21C145.322 12.21 145.438 12.1967 145.555 12.17C145.672 12.1433 145.805 12.1033 145.955 12.05L146.125 12.88C145.938 12.9533 145.757 13.015 145.58 13.065C145.403 13.115 145.218 13.14 145.025 13.14ZM142.775 8.93V8.15H145.955V8.93H142.775ZM148.02 7.26C147.79 7.26 147.61 7.2 147.48 7.08C147.354 6.95667 147.29 6.78667 147.29 6.57C147.29 6.36 147.354 6.19333 147.48 6.07C147.61 5.94333 147.79 5.88 148.02 5.88C148.247 5.88 148.425 5.94333 148.555 6.07C148.685 6.19333 148.75 6.36 148.75 6.57C148.75 6.78667 148.685 6.95667 148.555 7.08C148.425 7.2 148.247 7.26 148.02 7.26ZM147.43 13V8.13H148.61V13H147.43ZM153.942 13V10.16C153.942 9.8 153.855 9.52833 153.682 9.345C153.508 9.16167 153.282 9.07 153.002 9.07C152.765 9.07 152.555 9.135 152.372 9.265C152.192 9.395 152.05 9.59167 151.947 9.855C151.843 10.115 151.792 10.44 151.792 10.83H151.402C151.402 10.2 151.48 9.67667 151.637 9.26C151.793 8.84 152.015 8.52667 152.302 8.32C152.588 8.11333 152.925 8.01 153.312 8.01C153.712 8.01 154.045 8.1 154.312 8.28C154.582 8.45667 154.783 8.70667 154.917 9.03C155.053 9.35333 155.122 9.73 155.122 10.16V13H153.942ZM150.612 13V8.15H151.642L151.792 9.11V13H150.612ZM158.712 15.51C158.155 15.51 157.679 15.4333 157.282 15.28C156.889 15.1267 156.587 14.925 156.377 14.675C156.167 14.4283 156.062 14.16 156.062 13.87C156.062 13.5267 156.187 13.26 156.437 13.07C156.687 12.8833 157.002 12.79 157.382 12.79L158.242 13.11C157.915 13.11 157.664 13.1717 157.487 13.295C157.31 13.4183 157.222 13.59 157.222 13.81C157.222 14.04 157.354 14.2233 157.617 14.36C157.884 14.5 158.249 14.57 158.712 14.57C159.049 14.57 159.34 14.52 159.587 14.42C159.834 14.32 160.024 14.19 160.157 14.03C160.294 13.87 160.362 13.7 160.362 13.52C160.362 13.4 160.322 13.3017 160.242 13.225C160.162 13.1483 160.039 13.11 159.872 13.11H158.242C157.915 13.11 157.617 13.0583 157.347 12.955C157.08 12.8483 156.867 12.7067 156.707 12.53C156.55 12.35 156.472 12.15 156.472 11.93C156.472 11.7267 156.529 11.5517 156.642 11.405C156.755 11.255 156.909 11.14 157.102 11.06C157.299 10.98 157.519 10.94 157.762 10.94L158.062 11.33C157.965 11.33 157.872 11.35 157.782 11.39C157.695 11.4267 157.624 11.4817 157.567 11.555C157.51 11.6283 157.482 11.72 157.482 11.83C157.482 11.9633 157.539 12.0717 157.652 12.155C157.765 12.2383 157.962 12.28 158.242 12.28H159.872C160.389 12.28 160.794 12.375 161.087 12.565C161.384 12.755 161.532 13.0467 161.532 13.44C161.532 13.79 161.417 14.1217 161.187 14.435C160.957 14.7517 160.63 15.01 160.207 15.21C159.787 15.41 159.289 15.51 158.712 15.51ZM158.772 11.5C158.389 11.5 158.037 11.4283 157.717 11.285C157.4 11.1383 157.147 10.935 156.957 10.675C156.767 10.415 156.672 10.11 156.672 9.76C156.672 9.40333 156.767 9.09333 156.957 8.83C157.147 8.56667 157.4 8.365 157.717 8.225C158.037 8.08167 158.389 8.01 158.772 8.01C159.145 8.01 159.49 8.08167 159.807 8.225C160.124 8.365 160.379 8.56667 160.572 8.83C160.765 9.09333 160.862 9.40333 160.862 9.76C160.862 10.11 160.765 10.415 160.572 10.675C160.379 10.935 160.124 11.1383 159.807 11.285C159.49 11.4283 159.145 11.5 158.772 11.5ZM158.782 10.68C159.089 10.68 159.319 10.5917 159.472 10.415C159.625 10.2383 159.702 10.02 159.702 9.76C159.702 9.48 159.624 9.255 159.467 9.085C159.314 8.915 159.082 8.83 158.772 8.83C158.472 8.83 158.242 8.915 158.082 9.085C157.922 9.255 157.842 9.48 157.842 9.76C157.842 10.02 157.922 10.2383 158.082 10.415C158.245 10.5917 158.479 10.68 158.782 10.68ZM160.492 8.79L159.952 8.48C159.952 8.19 160.019 7.93667 160.152 7.72C160.289 7.5 160.469 7.33 160.692 7.21C160.919 7.09 161.169 7.03 161.442 7.03L161.382 8.16C161.092 8.16 160.87 8.21167 160.717 8.315C160.567 8.415 160.492 8.57333 160.492 8.79Z" fill="#D2A503"/>
<rect x="177" width="56" height="20" rx="10" fill="#FFD335"/>
<rect x="177" width="56" height="20" rx="10" fill="white" fill-opacity="0.9"/>
<path d="M187.1 6.51H188.42L189.99 11.96H189.69L191.24 6.94H192.04L193.65 11.88H193.38L195.03 6.51H196.36L194.13 13H192.89L191.62 9.17H191.73L190.46 13H189.22L187.1 6.51ZM196.993 13V8.13H198.173V13H196.993ZM197.883 10.87C197.883 10.2333 197.954 9.70667 198.098 9.29C198.241 8.87333 198.433 8.565 198.673 8.365C198.916 8.16167 199.186 8.06 199.483 8.06C199.563 8.06 199.638 8.065 199.708 8.075C199.781 8.085 199.853 8.1 199.923 8.12L199.903 9.3C199.816 9.28 199.723 9.26333 199.623 9.25C199.523 9.23667 199.433 9.23 199.353 9.23C199.093 9.23 198.874 9.29333 198.698 9.42C198.524 9.54333 198.393 9.72667 198.303 9.97C198.216 10.2133 198.173 10.5133 198.173 10.87H197.883ZM201.608 7.26C201.378 7.26 201.198 7.2 201.068 7.08C200.942 6.95667 200.878 6.78667 200.878 6.57C200.878 6.36 200.942 6.19333 201.068 6.07C201.198 5.94333 201.378 5.88 201.608 5.88C201.835 5.88 202.013 5.94333 202.143 6.07C202.273 6.19333 202.338 6.36 202.338 6.57C202.338 6.78667 202.273 6.95667 202.143 7.08C202.013 7.2 201.835 7.26 201.608 7.26ZM201.018 13V8.13H202.198V13H201.018ZM205.84 13.14C205.553 13.14 205.29 13.0867 205.05 12.98C204.813 12.8733 204.623 12.71 204.48 12.49C204.34 12.27 204.27 11.99 204.27 11.65V6.86H205.45V11.61C205.45 12.01 205.64 12.21 206.02 12.21C206.136 12.21 206.253 12.1967 206.37 12.17C206.486 12.1433 206.62 12.1033 206.77 12.05L206.94 12.88C206.753 12.9533 206.571 13.015 206.395 13.065C206.218 13.115 206.033 13.14 205.84 13.14ZM203.59 8.93V8.15H206.77V8.93H203.59ZM208.835 7.26C208.605 7.26 208.425 7.2 208.295 7.08C208.168 6.95667 208.105 6.78667 208.105 6.57C208.105 6.36 208.168 6.19333 208.295 6.07C208.425 5.94333 208.605 5.88 208.835 5.88C209.062 5.88 209.24 5.94333 209.37 6.07C209.5 6.19333 209.565 6.36 209.565 6.57C209.565 6.78667 209.5 6.95667 209.37 7.08C209.24 7.2 209.062 7.26 208.835 7.26ZM208.245 13V8.13H209.425V13H208.245ZM214.756 13V10.16C214.756 9.8 214.669 9.52833 214.496 9.345C214.323 9.16167 214.096 9.07 213.816 9.07C213.579 9.07 213.369 9.135 213.186 9.265C213.006 9.395 212.864 9.59167 212.761 9.855C212.658 10.115 212.606 10.44 212.606 10.83H212.216C212.216 10.2 212.294 9.67667 212.451 9.26C212.608 8.84 212.829 8.52667 213.116 8.32C213.403 8.11333 213.739 8.01 214.126 8.01C214.526 8.01 214.859 8.1 215.126 8.28C215.396 8.45667 215.598 8.70667 215.731 9.03C215.868 9.35333 215.936 9.73 215.936 10.16V13H214.756ZM211.426 13V8.15H212.456L212.606 9.11V13H211.426ZM219.527 15.51C218.97 15.51 218.493 15.4333 218.097 15.28C217.703 15.1267 217.402 14.925 217.192 14.675C216.982 14.4283 216.877 14.16 216.877 13.87C216.877 13.5267 217.002 13.26 217.252 13.07C217.502 12.8833 217.817 12.79 218.197 12.79L219.057 13.11C218.73 13.11 218.478 13.1717 218.302 13.295C218.125 13.4183 218.037 13.59 218.037 13.81C218.037 14.04 218.168 14.2233 218.432 14.36C218.698 14.5 219.063 14.57 219.527 14.57C219.863 14.57 220.155 14.52 220.402 14.42C220.648 14.32 220.838 14.19 220.972 14.03C221.108 13.87 221.177 13.7 221.177 13.52C221.177 13.4 221.137 13.3017 221.057 13.225C220.977 13.1483 220.853 13.11 220.687 13.11H219.057C218.73 13.11 218.432 13.0583 218.162 12.955C217.895 12.8483 217.682 12.7067 217.522 12.53C217.365 12.35 217.287 12.15 217.287 11.93C217.287 11.7267 217.343 11.5517 217.457 11.405C217.57 11.255 217.723 11.14 217.917 11.06C218.113 10.98 218.333 10.94 218.577 10.94L218.877 11.33C218.78 11.33 218.687 11.35 218.597 11.39C218.51 11.4267 218.438 11.4817 218.382 11.555C218.325 11.6283 218.297 11.72 218.297 11.83C218.297 11.9633 218.353 12.0717 218.467 12.155C218.58 12.2383 218.777 12.28 219.057 12.28H220.687C221.203 12.28 221.608 12.375 221.902 12.565C222.198 12.755 222.347 13.0467 222.347 13.44C222.347 13.79 222.232 14.1217 222.002 14.435C221.772 14.7517 221.445 15.01 221.022 15.21C220.602 15.41 220.103 15.51 219.527 15.51ZM219.587 11.5C219.203 11.5 218.852 11.4283 218.532 11.285C218.215 11.1383 217.962 10.935 217.772 10.675C217.582 10.415 217.487 10.11 217.487 9.76C217.487 9.40333 217.582 9.09333 217.772 8.83C217.962 8.56667 218.215 8.365 218.532 8.225C218.852 8.08167 219.203 8.01 219.587 8.01C219.96 8.01 220.305 8.08167 220.622 8.225C220.938 8.365 221.193 8.56667 221.387 8.83C221.58 9.09333 221.677 9.40333 221.677 9.76C221.677 10.11 221.58 10.415 221.387 10.675C221.193 10.935 220.938 11.1383 220.622 11.285C220.305 11.4283 219.96 11.5 219.587 11.5ZM219.597 10.68C219.903 10.68 220.133 10.5917 220.287 10.415C220.44 10.2383 220.517 10.02 220.517 9.76C220.517 9.48 220.438 9.255 220.282 9.085C220.128 8.915 219.897 8.83 219.587 8.83C219.287 8.83 219.057 8.915 218.897 9.085C218.737 9.255 218.657 9.48 218.657 9.76C218.657 10.02 218.737 10.2383 218.897 10.415C219.06 10.5917 219.293 10.68 219.597 10.68ZM221.307 8.79L220.767 8.48C220.767 8.19 220.833 7.93667 220.967 7.72C221.103 7.5 221.283 7.33 221.507 7.21C221.733 7.09 221.983 7.03 222.257 7.03L222.197 8.16C221.907 8.16 221.685 8.21167 221.532 8.315C221.382 8.415 221.307 8.57333 221.307 8.79Z" fill="#D2A503"/>
</svg>
