<svg width="112" height="46" viewBox="0 0 112 46" fill="none" xmlns="http://www.w3.org/2000/svg">
<path d="M111.163 17.8494C111.966 18.973 111.706 20.5344 110.582 21.3369C109.458 22.1394 107.897 21.8792 107.095 20.7556L111.163 17.8494ZM86.6744 5.95696L85.9543 8.35099L86.6744 5.95696ZM54.7933 13.4771L52.4327 12.654L54.7933 13.4771ZM59.136 33.6014L61.106 32.0623L59.136 33.6014ZM69.9748 42.8868L70.5944 40.4648L69.9748 42.8868ZM74.2468 40.6272L71.9498 39.6404L74.2468 40.6272ZM68.1036 24.8808L69.5401 22.8347L68.1036 24.8808ZM1.87128 32.9724C0.639244 32.3491 0.145737 30.8451 0.769005 29.6131L10.9257 9.53594C11.5489 8.3039 13.053 7.8104 14.285 8.43366C15.517 9.05693 16.0105 10.5609 15.3873 11.793L6.35911 29.6393L24.2055 38.6675C25.4375 39.2908 25.931 40.7948 25.3077 42.0268C24.6845 43.2588 23.1805 43.7523 21.9484 43.1291L1.87128 32.9724ZM107.095 20.7556C102.247 13.9695 94.7078 10.9842 85.9543 8.35099L87.3946 3.56293C96.1808 6.20595 105.246 9.56599 111.163 17.8494L107.095 20.7556ZM85.9543 8.35099C80.19 6.61703 73.8682 5.09925 68.4865 5.59459C65.8417 5.83803 63.5472 6.5593 61.6784 7.88115C59.8328 9.18656 58.2373 11.1931 57.154 14.3002L52.4327 12.654C53.818 8.68108 55.9994 5.77364 58.7911 3.79907C61.5595 1.84093 64.7627 0.91621 68.0283 0.615639C74.4675 0.022963 81.6175 1.82511 87.3946 3.56293L85.9543 8.35099ZM57.154 14.3002C54.8854 20.8062 56.6627 26.3748 61.106 32.0623L57.1659 35.1405C52.0658 28.6124 49.4238 21.2833 52.4327 12.654L57.154 14.3002ZM61.106 32.0623C62.3409 33.6429 63.8955 35.57 65.624 37.2241C67.3971 38.9209 69.1038 40.0835 70.5944 40.4648L69.3552 45.3088C66.5996 44.6039 64.1301 42.7151 62.167 40.8365C60.1593 38.9152 58.4176 36.7427 57.1659 35.1405L61.106 32.0623ZM70.5944 40.4648C71.0426 40.5794 71.6215 40.4047 71.9498 39.6404L76.5438 41.6141C75.3785 44.3263 72.5068 46.115 69.3552 45.3088L70.5944 40.4648ZM71.9498 39.6404C72.8561 37.531 72.6567 35.1715 71.6037 32.836C70.5424 30.4821 68.6862 28.3445 66.6671 26.927L69.5401 22.8347C72.2358 24.7273 74.7039 27.547 76.1619 30.7809C77.6281 34.0331 78.143 37.8918 76.5438 41.6141L71.9498 39.6404ZM66.6671 26.927C58.1245 20.9296 47.4366 20.7061 36.1255 22.9892C24.756 25.2841 13.5113 29.9237 3.77922 33.117L2.22038 28.3662C11.4577 25.3352 23.3858 20.4598 35.1363 18.088C46.9452 15.7045 59.3245 15.6628 69.5401 22.8347L66.6671 26.927Z" fill="#FFD335"/>
</svg>
