<svg width="75" height="86" viewBox="0 0 75 86" fill="none" xmlns="http://www.w3.org/2000/svg">
<path d="M59.4859 59.2789C63.3514 55.5957 71.3013 51.7769 72.1766 65.9666C72.9108 77.8711 69.2098 82.4406 65.1748 80.6423M65.1748 80.6423C63.1979 79.7612 61.1408 77.3514 59.4859 73.5267C54.4533 61.8958 56.6414 22.06 59.4859 15.6629C62.3303 9.26584 72.3954 1.12428 59.4859 3.74123C49.1583 5.83479 21.3408 4.61355 8.72306 3.74123C5.44098 18.2799 0.233418 51.0791 5.65979 65.9666C12.4427 84.5761 56.8603 85.7225 65.1748 80.6423Z" stroke="#AC47FF" stroke-width="5" stroke-linecap="round"/>
<path d="M14.455 10.9294C14.3994 12.9059 14.2007 14.875 14.1394 16.8518C14.1207 17.456 14.0651 18.1509 14.1209 18.7641C14.1694 19.298 14.2593 17.6989 14.3808 17.1767C14.7142 15.7428 15.2147 14.367 15.9032 13.0644C16.0324 12.82 16.1796 12.5845 16.3395 12.3589C16.6102 11.9767 16.5467 12.2288 16.488 12.4796C16.2387 13.5449 15.611 15.1677 15.9774 16.267C16.1806 16.8765 16.4793 15.0826 16.7757 14.5125C17.4674 13.1824 18.2515 11.8662 19.2543 10.7437C20.0163 9.89065 20.1477 10.5499 20.3961 11.4678C20.7993 12.9584 21.0384 14.4899 21.4079 15.9885C21.5795 16.6845 21.817 15.6623 21.937 15.4223C22.2977 14.7009 22.6447 13.5282 23.2552 12.9716C23.8038 12.4714 23.8988 14.3248 24.0535 15.0509C24.3434 16.4121 24.4472 18.0572 25.056 19.3303C25.4829 20.2229 25.1868 19.27 25.6037 19.4974C26.0754 19.7547 25.7359 22.1061 25.7244 22.3844C25.7134 22.6506 25.6873 22.9163 25.6873 23.1827C25.6873 23.7001 25.8037 22.1545 25.8729 21.6418C26.1014 19.9488 26.4241 18.286 26.8383 16.629C27.1185 15.5082 27.4411 14.4068 27.7852 13.3058C27.9914 12.6458 28.4298 13.5147 28.6578 13.8813C29.4821 15.2068 30.1112 16.6416 30.6443 18.105C30.8598 18.6964 31.0855 20.4719 31.2941 19.878C31.5055 19.2763 31.333 18.1632 31.3684 17.5666C31.4529 16.1398 31.6618 14.734 31.8882 13.3243C32.0502 12.316 32.4792 11.2673 31.9996 10.4281" stroke="#D2A503" stroke-linecap="round"/>
<path d="M38.3495 12.266C38.3495 13.2133 38.338 14.1595 38.3124 15.1066C38.3057 15.355 37.9297 18.7991 38.7208 17.2416C39.1491 16.3985 39.4331 15.4118 39.9926 14.6424C40.4987 13.9466 40.9528 15.9836 41.023 16.1834C41.5735 17.7502 41.739 16.3582 41.9698 15.4593C42.0608 15.1049 43.2465 10.6147 43.9192 10.9386C44.6419 11.2865 44.9507 14.6321 45.0981 15.2737C45.1916 15.6804 45.492 17.06 45.6644 17.5851C45.9862 18.565 46.1739 16.7682 46.1842 16.7218C46.4464 15.5444 46.513 15.1319 46.7969 13.9369C46.9445 13.3158 46.9054 12.5709 47.3353 12.0989C47.6074 11.8001 47.7571 12.8022 47.8551 13.1943C48.2011 14.5781 48.3802 16.0046 48.7556 17.3809C49.0561 18.4827 49.5497 16.4489 49.6189 16.2391C49.825 15.614 49.9478 15.1901 50.083 14.5589C50.1432 14.2782 50.0757 13.4861 50.2501 13.7141C50.7305 14.3424 50.8078 15.7876 50.9742 16.5176C51.2514 17.734 51.4575 18.6625 51.4383 16.7589C51.4197 14.912 50.9639 13.5445 51.3826 11.7647" stroke="#D2A503" stroke-linecap="round"/>
<path d="M12.4502 27.8057C17.1201 27.8057 21.8854 28.4503 26.5415 28.1399C27.4347 28.0803 28.6333 27.2124 29.4656 26.9238C30.351 26.6168 31.2581 26.362 32.1669 26.1348" stroke="#D2A503" stroke-linecap="round"/>
<path d="M11.7817 30.312C13.5413 31.3175 16.5989 31.1552 18.5118 31.2681C21.437 31.4408 24.3495 31.3146 27.2748 31.3146C28.1257 31.3146 28.9767 31.3146 29.8276 31.3146" stroke="#D2A503" stroke-linecap="round"/>
<path d="M10.6123 34.155C13.8599 34.7564 17.0064 35.5969 20.3222 35.8074C21.2763 35.868 22.1452 35.144 23.107 34.9998C24.9482 34.7236 26.809 34.5863 28.6581 34.3221" stroke="#D2A503" stroke-linecap="round"/>
<path d="M10.7793 37.1628C14.7849 36.972 18.8439 36.8569 22.8563 37.0143C24.3626 37.0733 25.8252 37.4254 27.3213 37.5063C27.8119 37.5328 28.3182 37.6455 28.8066 37.6455C28.8785 37.6455 28.6572 37.6084 28.6116 37.5527C28.4832 37.3957 28.6354 37.154 28.658 36.9957" stroke="#D2A503" stroke-linecap="round"/>
<path d="M36.6782 26.4689C37.5411 26.0628 38.9531 26.2868 39.853 26.3296C41.2809 26.3976 42.6383 26.6808 44.0674 26.5431C45.9292 26.3639 47.8413 26.3831 49.7113 26.3018" stroke="#D2A503" stroke-linecap="round"/>
<path d="M37.0123 28.9753C32.9773 28.9753 45.0823 29.011 49.1171 28.9753C50.4032 28.9639 52.3504 29.1227 53.5543 28.6411" stroke="#D2A503" stroke-linecap="round"/>
<path d="M36.0098 32.3171C38.2902 32.5803 40.4936 33.2864 42.7677 33.5982C44.4875 33.8339 46.209 33.821 47.9382 33.821C49.3199 33.821 50.6894 33.9013 52.0505 33.6539" stroke="#D2A503" stroke-linecap="round"/>
<path d="M36.1772 36.9956C35.7288 36.5472 35.8801 36.6745 36.5949 36.6521C38.7839 36.5837 40.9806 36.4667 43.1579 36.2344C45.21 36.0155 47.3137 36.1601 49.3774 36.1601" stroke="#D2A503" stroke-linecap="round"/>
<path d="M10.7793 41.8413C13.8705 42.2257 17.0932 42.9404 20.2199 43.0017C23.6125 43.0682 27.0102 43.0042 30.4032 43.0109C36.5191 43.0231 42.6025 43.6793 48.709 43.6793" stroke="#D2A503" stroke-linecap="round"/>
<path d="M12.2832 44.6819C16.5634 44.8097 20.8266 45.3732 25.0378 46.13C26.4069 46.376 27.7561 46.7372 29.1316 46.9469C33.0229 47.5401 36.9934 47.5983 40.9208 47.6617C43.6554 47.7058 46.5069 47.3973 49.1639 48.1722C50.0009 48.4163 50.8746 48.0145 51.7167 47.8566" stroke="#D2A503" stroke-linecap="round"/>
<path d="M10.7793 49.1933C15.7869 49.1933 20.8895 48.9022 25.8732 49.4625C28.819 49.7937 31.6457 50.0287 34.6176 50.0287C38.7021 50.0287 42.7865 50.0287 46.871 50.0287" stroke="#D2A503" stroke-linecap="round"/>
<path d="M9.94385 53.2036C15.9886 53.2925 22.022 53.6778 28.064 53.8441C33.0041 53.98 37.9536 53.5546 42.8794 53.2407C44.4956 53.1377 46.1142 53.0365 47.7343 53.0365C48.3171 53.0365 48.8369 53.0856 49.3774 52.8694" stroke="#D2A503" stroke-linecap="round"/>
<path d="M10.1108 57.3808C16.8185 58.2489 23.2589 59.3797 30.0318 58.764C33.9416 58.4085 38.1314 57.2914 42.0624 58.0492C43.3426 58.296 44.6508 58.2306 45.9612 58.207C46.854 58.1909 47.7874 58.1966 48.6718 58.0492C49.3833 57.9306 49.3346 57.6234 49.5443 57.0466" stroke="#D2A503" stroke-linecap="round"/>
<path d="M11.4473 61.7251C15.6675 61.7251 19.8276 62.0592 24.0348 62.0592C26.2032 62.0592 27.8802 61.3611 30.0315 61.9479C31.0596 62.2283 32.296 62.0592 33.3362 62.0592" stroke="#D2A503" stroke-linecap="round"/>
<path d="M40.3545 69.5784H52.5521" stroke="#D2A503" stroke-linecap="round"/>
<path d="M42.5264 72.0849C42.6834 71.8337 46.1807 71.9495 46.7408 71.9271C48.7053 71.8485 50.795 72.1783 52.7189 71.7507" stroke="#D2A503" stroke-linecap="round"/>
<path d="M42.6938 73.5886C44.4941 73.5886 46.6678 73.9713 48.245 73.1988C49.0101 72.824 50.2776 73.0874 51.1227 73.0874C51.6528 73.0874 52.0304 73.2339 51.5497 72.7532" stroke="#D2A503" stroke-linecap="round"/>
</svg>
