<svg width="763" height="448" viewBox="0 0 763 448" fill="none" xmlns="http://www.w3.org/2000/svg">
<path d="M704.652 6.85467C643.052 31.6547 213.319 17.188 6.15186 6.85467C26.6519 168.355 18.6519 440.355 22.6519 404.855C26.6519 369.355 686.152 429.855 673.652 415.355C661.152 400.855 781.652 -24.1453 704.652 6.85467Z" stroke="#AC47FF" stroke-width="10" stroke-linecap="round"/>
<path d="M731.652 31.9709C808.652 0.970879 690.152 425.971 702.652 440.471C715.152 454.971 55.6518 394.471 51.6518 429.971C47.3185 433.265 39.9518 431.254 45.1518 396.854" stroke="#AC47FF" stroke-width="10" stroke-linecap="round"/>
<path d="M727.652 20.9709C780.652 -0.645347 678.152 414.971 690.652 429.471C703.152 443.971 43.652 383.471 39.652 418.971C35.3187 422.266 28.6519 416.354 33.6521 398.854" stroke="#AC47FF" stroke-width="10" stroke-linecap="round"/>
</svg>
