<svg width="204" height="207" viewBox="0 0 204 207" fill="none" xmlns="http://www.w3.org/2000/svg">
<g opacity="0.5">
<path d="M66.5181 47.2979C71.5185 88.6529 83.3033 178.093 90.4391 205.015" stroke="#FFD335" stroke-width="3" stroke-linecap="round"/>
<path d="M118.415 39.9999C114.901 50.2711 116.063 93.4371 148.823 183.932" stroke="#FFD335" stroke-width="3" stroke-linecap="round"/>
<path d="M13 100.816C82.1953 74.7327 216.532 27.8367 200.314 48.9196" stroke="#FFD335" stroke-width="3" stroke-linecap="round"/>
<path d="M39.3535 185.553C95.3044 148.523 202.584 81.1928 184.096 108.114" stroke="#FFD335" stroke-width="3" stroke-linecap="round"/>
<path d="M28.993 53.6367C16.8298 64.5836 19.0191 94.343 39.129 80.3958C64.2664 62.9618 41.1561 42.6898 28.993 53.6367Z" stroke="#AC47FF" stroke-width="3" stroke-linecap="round"/>
<path d="M164.305 72.0289C150.55 63.1645 122.408 73.0859 141.143 88.8314C164.563 108.513 178.06 80.8933 164.305 72.0289Z" stroke="#AC47FF" stroke-width="3" stroke-linecap="round"/>
<path d="M148.721 34.2474C148.957 22.0647 134.662 16.5432 132.406 35.676C129.587 59.5921 148.484 46.4301 148.721 34.2474Z" stroke="#AC47FF" stroke-width="3" stroke-linecap="round"/>
<path d="M109.101 96.7617L97.3433 119.466" stroke="#FFD335" stroke-width="3" stroke-linecap="round"/>
<path d="M90.4509 100.005C90.1806 103.249 94.5864 110.628 114.372 114.196" stroke="#FFD335" stroke-width="3" stroke-linecap="round"/>
<path d="M76.607 199.129L55.1656 185.2" stroke="#FFD335" stroke-width="3" stroke-linecap="round"/>
<path d="M75.2088 180.251C72.0075 179.663 64.2317 183.324 58.7397 202.664" stroke="#FFD335" stroke-width="3" stroke-linecap="round"/>
<path d="M91.9998 42.5C84.3351 45.3613 68.9148 58.8587 86.5 63C108.482 68.1766 108.003 48.6557 101.5 44.5C96.2978 41.1754 77.5001 46.1997 76 50" stroke="#AC47FF" stroke-width="3" stroke-linecap="round"/>
<path d="M178.173 15.0793C110.568 41.7849 -18.7122 93.6519 5.0051 87.4752" stroke="#AC47FF" stroke-width="3" stroke-linecap="round"/>
</g>
</svg>
