<svg width="112" height="46" viewBox="0 0 112 46" fill="none" xmlns="http://www.w3.org/2000/svg">
<path d="M0.83676 17.8494C0.0342376 18.973 0.294467 20.5344 1.418 21.3369C2.54153 22.1394 4.1029 21.8792 4.90543 20.7556L0.83676 17.8494ZM25.3256 5.95696L26.0457 8.35099L25.3256 5.95696ZM57.2067 13.4771L59.5673 12.654L57.2067 13.4771ZM52.864 33.6014L50.894 32.0623L52.864 33.6014ZM42.0252 42.8868L41.4056 40.4648L42.0252 42.8868ZM37.7532 40.6272L40.0502 39.6404L37.7532 40.6272ZM43.8964 24.8808L42.4599 22.8347L43.8964 24.8808ZM110.129 32.9724C111.361 32.3491 111.854 30.8451 111.231 29.6131L101.074 9.53594C100.451 8.3039 98.947 7.8104 97.715 8.43366C96.483 9.05693 95.9895 10.5609 96.6127 11.793L105.641 29.6393L87.7945 38.6675C86.5625 39.2908 86.069 40.7948 86.6923 42.0268C87.3155 43.2588 88.8195 43.7523 90.0516 43.1291L110.129 32.9724ZM4.90543 20.7556C9.75264 13.9695 17.2922 10.9842 26.0457 8.35099L24.6054 3.56293C15.8192 6.20595 6.75351 9.56599 0.83676 17.8494L4.90543 20.7556ZM26.0457 8.35099C31.81 6.61703 38.1318 5.09925 43.5135 5.59459C46.1583 5.83803 48.4528 6.5593 50.3216 7.88115C52.1672 9.18656 53.7627 11.1931 54.846 14.3002L59.5673 12.654C58.182 8.68108 56.0006 5.77364 53.2089 3.79907C50.4405 1.84093 47.2373 0.91621 43.9717 0.615639C37.5325 0.022963 30.3825 1.82511 24.6054 3.56293L26.0457 8.35099ZM54.846 14.3002C57.1146 20.8062 55.3373 26.3748 50.894 32.0623L54.8341 35.1405C59.9342 28.6124 62.5762 21.2833 59.5673 12.654L54.846 14.3002ZM50.894 32.0623C49.6591 33.6429 48.1045 35.57 46.376 37.2241C44.6029 38.9209 42.8962 40.0835 41.4056 40.4648L42.6448 45.3088C45.4004 44.6039 47.8699 42.7151 49.833 40.8365C51.8407 38.9152 53.5824 36.7427 54.8341 35.1405L50.894 32.0623ZM41.4056 40.4648C40.9574 40.5794 40.3785 40.4047 40.0502 39.6404L35.4562 41.6141C36.6215 44.3263 39.4932 46.115 42.6448 45.3088L41.4056 40.4648ZM40.0502 39.6404C39.1439 37.531 39.3433 35.1715 40.3963 32.836C41.4576 30.4821 43.3138 28.3445 45.3329 26.927L42.4599 22.8347C39.7642 24.7273 37.2961 27.547 35.8381 30.7809C34.3719 34.0331 33.857 37.8918 35.4562 41.6141L40.0502 39.6404ZM45.3329 26.927C53.8755 20.9296 64.5634 20.7061 75.8745 22.9892C87.244 25.2841 98.4887 29.9237 108.221 33.117L109.78 28.3662C100.542 25.3352 88.6142 20.4598 76.8637 18.088C65.0548 15.7045 52.6755 15.6628 42.4599 22.8347L45.3329 26.927Z" fill="#FFD335"/>
</svg>
