<svg width="522" height="269" viewBox="0 0 522 269" fill="none" xmlns="http://www.w3.org/2000/svg">
<path d="M518.676 69.9487C518.888 74.7121 515.647 79.6338 509.032 84.4558C502.454 89.2505 492.762 93.7747 480.625 97.7675C456.364 105.748 422.558 111.534 384.966 113.206C347.374 114.878 313.188 112.116 288.315 106.321C275.871 103.421 265.816 99.7751 258.838 95.5833C251.82 91.3677 248.156 86.753 247.944 81.9897C247.732 77.2263 250.972 72.3045 257.588 67.4825C264.166 62.6879 273.858 58.1636 285.995 54.1709C310.256 46.1899 344.062 40.4044 381.654 38.7324C419.246 37.0605 453.432 39.822 478.305 45.6178C490.749 48.5173 500.804 52.1633 507.782 56.355C514.799 60.5707 518.464 65.1853 518.676 69.9487Z" stroke="#FFD335" stroke-width="2"/>
<path d="M515.253 79.7702C515.072 84.5349 511.438 89.1737 504.449 93.4358C497.499 97.6736 487.468 101.386 475.044 104.368C450.209 110.328 416.042 113.316 378.44 111.893C340.838 110.47 306.994 104.909 282.681 97.0887C270.518 93.1764 260.796 88.7164 254.187 83.9655C247.539 79.1874 244.266 74.2872 244.447 69.5225C244.627 64.7578 248.261 60.119 255.25 55.857C262.2 51.6191 272.231 47.9066 284.655 44.9248C309.49 38.9644 343.657 35.9766 381.259 37.3995C418.861 38.8224 452.705 44.3839 477.018 52.2041C489.181 56.1164 498.903 60.5763 505.512 65.3273C512.16 70.1054 515.433 75.0056 515.253 79.7702Z" stroke="#FFD335" stroke-width="2"/>
<path d="M514.951 77.0511C514.9 81.3095 511.454 85.6011 504.557 89.6606C497.722 93.684 487.79 97.2984 475.446 100.3C450.774 106.301 416.693 109.801 379.061 109.358C341.428 108.914 307.439 104.611 282.915 98.0315C270.646 94.7394 260.802 90.892 254.063 86.7086C247.264 82.4877 243.919 78.1161 243.969 73.8576C244.02 69.5992 247.466 65.3076 254.363 61.2481C261.199 57.2247 271.13 53.6103 283.474 50.6083C308.146 44.6081 342.227 41.1076 379.86 41.551C417.492 41.9945 451.481 46.2972 476.005 52.8773C488.275 56.1693 498.118 60.0167 504.857 64.2001C511.656 68.421 515.001 72.7926 514.951 77.0511Z" stroke="#FFD335" stroke-width="2"/>
<path d="M380.991 110.605C380.917 110.058 380.414 109.674 379.867 109.747C379.319 109.821 378.935 110.324 379.009 110.872L380.991 110.605ZM5.24328 136.074C4.71847 136.246 4.43242 136.811 4.60443 137.336L7.40718 145.888C7.57915 146.413 8.14403 146.699 8.66884 146.527C9.19369 146.355 9.4797 145.79 9.30773 145.265L6.8164 137.663L14.4186 135.172C14.9434 135 15.2294 134.435 15.0574 133.91C14.8854 133.385 14.3206 133.099 13.7957 133.271L5.24328 136.074ZM379.009 110.872C381.133 126.665 383.411 148.55 379.537 169.405C375.669 190.229 365.69 209.934 343.348 221.561C320.952 233.216 285.945 236.859 231.795 225.048C177.663 213.242 104.532 186.021 6.00643 136.132L5.10297 137.916C103.703 187.843 177.004 215.145 231.369 227.002C285.717 238.856 321.274 235.303 344.271 223.335C367.321 211.339 377.562 190.993 381.504 169.77C385.44 148.578 383.117 126.419 380.991 110.605L379.009 110.872Z" fill="#FFD335"/>
<g clip-path="url(#clip0_433_1662)">
<path d="M287.312 80.4904C287.584 80.2586 287.866 79.8643 288.427 79.145C288.989 78.4282 289.331 77.9598 290.119 76.9036C290.908 75.8474 291.491 75.1067 292.37 73.8617C293.25 72.6191 293.73 71.9357 294.518 70.6812C295.305 69.4242 295.673 68.7647 296.304 67.5843C296.934 66.4038 297.228 65.8016 297.673 64.7789C298.117 63.7585 298.318 63.2639 298.526 62.4777C298.731 61.6916 298.791 61.3833 298.705 60.8504C298.619 60.3176 298.483 60.0834 298.098 59.811C297.713 59.5386 297.376 59.4143 296.784 59.4884C296.189 59.5648 295.79 59.7297 295.133 60.1885C294.478 60.6473 294.131 60.9842 293.505 61.7871C292.879 62.59 292.559 63.0895 292 64.203C291.438 65.3166 291.161 66.0024 290.702 67.3549C290.244 68.7074 290.038 69.4768 289.703 70.9631C289.369 72.4494 289.233 73.2667 289.034 74.7864C288.836 76.3062 288.767 77.1187 288.714 78.562C288.662 80.0053 288.671 80.7556 288.772 82.003C288.872 83.2503 288.956 83.831 289.218 84.7964C289.481 85.7618 289.672 86.1656 290.091 86.8299C290.506 87.4942 290.762 87.7332 291.3 88.1203C291.837 88.5074 292.167 88.6364 292.779 88.7607C293.388 88.885 293.728 88.8157 294.354 88.744C294.982 88.6723 295.314 88.6149 295.919 88.4023C296.521 88.1896 296.834 88.0367 297.369 87.6806C297.907 87.3246 298.229 87.0283 298.602 86.6172C298.977 86.2062 299.073 85.9243 299.238 85.628C299.403 85.3317 299.417 85.2552 299.427 85.1333C299.439 85.0115 299.41 84.9852 299.29 85.0186C299.173 85.0521 299.087 85.0903 298.836 85.2958C298.586 85.5013 298.418 85.702 298.034 86.0485C297.651 86.3926 297.398 86.6913 296.922 87.0211C296.449 87.3509 296.194 87.4966 295.663 87.695C295.13 87.8957 294.812 87.9363 294.26 88.0199C293.706 88.1036 293.417 88.1968 292.894 88.1179C292.37 88.0367 292.115 87.9411 291.646 87.6257C291.178 87.3078 290.946 87.1238 290.549 86.5312C290.15 85.941 289.933 85.5826 289.656 84.6697C289.379 83.7569 289.281 83.1882 289.163 81.9671C289.046 80.7484 289.027 80.0005 289.07 78.5739C289.113 77.1474 289.18 76.3373 289.376 74.8319C289.572 73.324 289.713 72.5116 290.052 71.042C290.392 69.5724 290.602 68.8101 291.073 67.4839C291.543 66.1577 291.833 65.4814 292.404 64.4133C292.977 63.3452 293.314 62.872 293.94 62.1432C294.566 61.4168 294.946 61.1778 295.539 60.7764C296.131 60.3773 296.442 60.2602 296.901 60.1455C297.362 60.0308 297.577 60.0499 297.84 60.2029C298.103 60.3558 298.184 60.4824 298.215 60.9102C298.249 61.3379 298.191 61.6008 298.002 62.3415C297.814 63.0823 297.678 63.5984 297.271 64.6116C296.865 65.6248 296.583 66.2342 295.971 67.4098C295.357 68.5831 294.992 69.2402 294.205 70.4852C293.422 71.7302 292.937 72.4017 292.045 73.6299C291.156 74.8605 290.564 75.587 289.761 76.6312C288.956 77.6731 288.571 78.1104 288.031 78.8463C287.491 79.5799 287.206 79.9742 287.061 80.304C286.917 80.6337 287.039 80.7222 287.312 80.4904Z" fill="#FFD335" stroke="#FFD335"/>
<path d="M306.218 78.9205C306.185 78.8297 306.134 78.7628 305.972 78.7509C305.809 78.7413 305.64 78.6959 305.405 78.868C305.171 79.0424 305.028 79.1714 304.806 79.6159C304.583 80.0604 304.428 80.4045 304.294 81.0903C304.161 81.7761 304.129 82.2492 304.134 83.0449C304.137 83.8407 304.146 84.352 304.311 85.0689C304.476 85.7858 304.626 86.1514 304.961 86.6269C305.293 87.1048 305.492 87.3079 305.979 87.4513C306.466 87.5971 306.813 87.6162 307.398 87.3533C307.981 87.0905 308.34 86.7607 308.897 86.1371C309.453 85.5134 309.747 85.0713 310.177 84.2326C310.608 83.3962 310.818 82.8777 311.052 81.9457C311.284 81.0138 311.368 80.4618 311.341 79.5729C311.315 78.684 311.238 78.1511 310.918 77.5011C310.6 76.8488 310.302 76.5859 309.75 76.3135C309.195 76.0387 308.77 76.0052 308.151 76.1319C307.53 76.2585 307.155 76.5238 306.646 76.9491C306.139 77.3769 305.876 77.7305 305.616 78.2658C305.353 78.8034 305.262 79.1619 305.334 79.6374C305.406 80.1129 305.554 80.4284 305.972 80.6458C306.39 80.8633 306.76 80.8824 307.427 80.7223C308.094 80.5622 308.498 80.2922 309.303 79.8477C310.111 79.4008 310.581 79.0878 311.463 78.4928C312.342 77.8978 312.887 77.4724 313.709 76.8727C314.531 76.2729 314.976 75.924 315.568 75.4963C316.161 75.0709 316.376 74.8606 316.672 74.7388C316.971 74.6169 317.014 74.6097 317.057 74.8821C317.098 75.1546 316.952 75.4461 316.885 76.1008C316.818 76.7556 316.799 77.2383 316.72 78.1559C316.644 79.0735 316.594 79.721 316.5 80.6864C316.407 81.6494 316.292 82.1704 316.254 82.9733C316.216 83.7785 316.182 84.2015 316.309 84.7081C316.438 85.2147 316.579 85.4202 316.892 85.5062C317.203 85.5922 317.47 85.5014 317.867 85.1358C318.264 84.7702 318.445 84.3855 318.873 83.6782C319.301 82.9733 319.535 82.426 320.003 81.6088C320.469 80.7916 320.744 80.2683 321.21 79.5896C321.674 78.911 321.953 78.6171 322.326 78.218C322.699 77.8165 322.854 77.6588 323.076 77.5848C323.299 77.5107 323.346 77.5585 323.435 77.8428C323.526 78.1272 323.487 78.4402 323.526 79.0066C323.562 79.5753 323.573 79.9863 323.616 80.6745C323.657 81.3627 323.638 81.7737 323.731 82.4452C323.827 83.119 323.851 83.542 324.085 84.039C324.317 84.5384 324.503 84.763 324.902 84.9351C325.301 85.1095 325.574 85.1071 326.08 84.9064C326.587 84.7081 326.878 84.4835 327.433 83.9386C327.989 83.3938 328.283 82.9398 328.854 82.1823C329.426 81.4248 329.772 80.9063 330.291 80.1512C330.809 79.3961 331.134 78.9898 331.445 78.402C331.758 77.8142 331.822 77.5322 331.846 77.212C331.87 76.8918 331.784 76.7795 331.564 76.7962C331.347 76.8129 331.101 76.9396 330.749 77.2932C330.398 77.6493 330.15 77.979 329.813 78.574C329.476 79.1714 329.306 79.5872 329.069 80.2754C328.833 80.9636 328.651 81.4248 328.63 82.015C328.611 82.6053 328.716 82.9422 328.967 83.2242C329.218 83.5085 329.461 83.5754 329.887 83.4297C330.314 83.2815 330.627 83.0617 331.101 82.4906C331.576 81.9171 331.841 81.4152 332.262 80.5669C332.68 79.7186 332.867 79.1404 333.201 78.2467C333.536 77.3554 333.708 76.8488 333.932 76.1056C334.155 75.3601 334.236 75.0016 334.319 74.5261C334.405 74.0506 334.403 73.8737 334.36 73.7328C334.315 73.5894 334.195 73.6037 334.1 73.8116C334.004 74.0219 333.899 74.2585 333.877 74.7794C333.858 75.3027 333.908 75.6755 333.997 76.4258C334.085 77.1761 334.205 77.6349 334.324 78.531C334.441 79.4271 334.487 79.9241 334.592 80.9087C334.697 81.8932 334.776 82.4117 334.852 83.4536C334.926 84.4954 334.974 85.0474 334.965 86.1227C334.955 87.198 334.95 87.75 334.802 88.8277C334.654 89.9078 334.523 90.4885 334.224 91.516C333.923 92.5435 333.717 93.0812 333.301 93.9653C332.886 94.8518 332.651 95.27 332.14 95.9439C331.631 96.6177 331.304 96.9093 330.752 97.3346C330.2 97.76 329.884 97.9009 329.383 98.073C328.881 98.245 328.623 98.2427 328.243 98.1973C327.86 98.1542 327.657 98.0897 327.478 97.8532C327.301 97.6166 327.258 97.4469 327.351 97.0168C327.442 96.5891 327.566 96.3429 327.939 95.7073C328.31 95.0741 328.563 94.6965 329.21 93.8482C329.856 92.9975 330.288 92.4718 331.168 91.4586C332.045 90.4455 332.573 89.8481 333.605 88.7847C334.637 87.7213 335.223 87.1455 336.327 86.1418C337.433 85.1358 338.136 84.5886 339.127 83.7618C340.121 82.935 340.611 82.5814 341.297 82.0031C341.98 81.4248 342.329 81.1309 342.551 80.868C342.774 80.6052 342.709 80.5263 342.406 80.6888C342.1 80.8489 341.739 81.1237 341.032 81.6781C340.324 82.2301 339.861 82.6148 338.869 83.4536C337.88 84.2923 337.187 84.8562 336.078 85.8694C334.972 86.8826 334.382 87.4585 333.332 88.5195C332.286 89.578 331.748 90.1707 330.84 91.1695C329.932 92.1683 329.488 92.6749 328.79 93.5113C328.09 94.35 327.762 94.6726 327.347 95.3537C326.931 96.0347 326.768 96.3549 326.711 96.9212C326.651 97.4852 326.761 97.8101 327.048 98.1829C327.337 98.5557 327.641 98.6823 328.147 98.7827C328.654 98.8831 328.988 98.8783 329.586 98.6871C330.185 98.496 330.541 98.312 331.141 97.8269C331.739 97.3418 332.059 96.9977 332.58 96.2665C333.103 95.5353 333.335 95.098 333.753 94.1756C334.174 93.2508 334.377 92.7036 334.68 91.6474C334.981 90.5912 335.11 89.9962 335.263 88.8922C335.416 87.7883 335.423 87.2219 335.442 86.1275C335.459 85.0331 335.411 84.4763 335.352 83.4225C335.292 82.3663 335.215 81.8478 335.139 80.8585C335.063 79.8668 335.024 79.3698 334.969 78.4689C334.914 77.5656 334.907 77.0949 334.862 76.347C334.816 75.6014 334.814 75.2477 334.74 74.7364C334.666 74.225 334.611 74.0123 334.491 73.7925C334.374 73.575 334.305 73.5273 334.15 73.642C333.997 73.7543 333.892 73.9048 333.72 74.3588C333.545 74.8128 333.507 75.1761 333.285 75.9097C333.062 76.6433 332.938 77.157 332.608 78.0244C332.279 78.8895 332.066 79.451 331.636 80.2444C331.208 81.0377 330.859 81.4439 330.463 81.9911C330.064 82.5407 329.887 82.7821 329.653 82.9852C329.418 83.1883 329.347 83.1811 329.292 83.0067C329.237 82.8323 329.251 82.5981 329.375 82.1154C329.502 81.6351 329.648 81.2145 329.915 80.6028C330.181 79.9911 330.41 79.6302 330.706 79.0591C331.003 78.488 331.196 78.1654 331.392 77.7496C331.588 77.3362 331.667 77.1212 331.686 76.985C331.703 76.8512 331.66 76.8655 331.483 77.0734C331.306 77.2813 331.148 77.4844 330.8 78.0244C330.453 78.5669 330.24 79.0328 329.743 79.7808C329.246 80.5311 328.888 81.0449 328.317 81.7665C327.746 82.4906 327.392 82.8825 326.89 83.3986C326.388 83.9147 326.166 84.125 325.808 84.3473C325.447 84.5695 325.315 84.6149 325.096 84.5098C324.876 84.4022 324.814 84.2421 324.711 83.812C324.606 83.3819 324.618 82.9995 324.577 82.3591C324.539 81.7211 324.558 81.3125 324.515 80.6195C324.472 79.9265 324.493 79.4964 324.367 78.8895C324.238 78.2849 324.149 77.9265 323.879 77.5871C323.607 77.2454 323.409 77.1522 323.007 77.1857C322.608 77.2168 322.345 77.341 321.874 77.7449C321.406 78.1511 321.153 78.5047 320.661 79.2097C320.166 79.9122 319.901 80.4451 319.408 81.2599C318.919 82.0748 318.608 82.5885 318.204 83.2815C317.8 83.9745 317.633 84.3329 317.384 84.7224C317.136 85.1143 317.064 85.2577 316.959 85.2386C316.854 85.2195 316.866 85.0737 316.859 84.6292C316.852 84.1848 316.868 83.7881 316.923 83.0139C316.976 82.2373 317.031 81.7068 317.131 80.7486C317.232 79.7927 317.315 79.1475 317.423 78.2252C317.53 77.3052 317.662 76.8416 317.666 76.1415C317.669 75.4413 317.654 75.09 317.437 74.7268C317.22 74.3636 317.026 74.28 316.579 74.3278C316.132 74.3756 315.846 74.5452 315.203 74.9634C314.562 75.3792 314.182 75.8045 313.37 76.4139C312.558 77.0232 312.017 77.4414 311.143 78.0101C310.266 78.5788 309.776 78.8632 308.992 79.2598C308.208 79.6565 307.788 79.8071 307.224 79.9911C306.66 80.1751 306.435 80.2611 306.173 80.1822C305.907 80.1034 305.881 79.9122 305.905 79.6016C305.926 79.2909 306.034 79.0424 306.287 78.6338C306.541 78.2228 306.765 77.9193 307.171 77.5489C307.575 77.1761 307.845 76.9181 308.311 76.7723C308.775 76.6289 309.09 76.6289 309.494 76.8297C309.896 77.0304 310.077 77.2263 310.326 77.7783C310.574 78.3327 310.706 78.7891 310.737 79.5944C310.768 80.3973 310.706 80.9326 310.481 81.8C310.259 82.6698 310.041 83.1644 309.618 83.9363C309.193 84.7081 308.866 85.0952 308.359 85.6568C307.855 86.2183 307.535 86.4788 307.088 86.7392C306.639 86.9997 306.44 87.0451 306.122 86.9567C305.805 86.8683 305.709 86.7058 305.501 86.2972C305.293 85.8885 305.193 85.5612 305.083 84.9136C304.975 84.266 304.92 83.7857 304.954 83.0593C304.985 82.3352 305.104 81.9051 305.241 81.2886C305.377 80.6697 305.503 80.3567 305.635 79.9696C305.764 79.5824 305.817 79.4916 305.893 79.3507C305.969 79.2121 305.972 79.2981 306.022 79.267C306.072 79.236 306.103 79.267 306.144 79.1977C306.182 79.1284 306.251 79.0089 306.218 78.9205Z" fill="#FFD335" stroke="#FFD335"/>
<path d="M359.825 73.2142C359.705 73.0971 359.509 73.0086 359.189 72.9537C358.869 72.8987 358.632 72.9155 358.224 72.9417C357.815 72.968 357.559 72.9465 357.146 73.0899C356.73 73.2333 356.448 73.3623 356.152 73.6586C355.856 73.9573 355.746 74.1819 355.662 74.5786C355.578 74.9777 355.569 75.2023 355.738 75.6491C355.908 76.0984 356.083 76.3469 356.505 76.8224C356.928 77.2979 357.268 77.5345 357.853 78.0268C358.439 78.519 358.819 78.758 359.43 79.2813C360.042 79.8046 360.4 80.0818 360.912 80.641C361.421 81.2025 361.684 81.5132 361.98 82.0795C362.279 82.6482 362.384 82.9254 362.401 83.4774C362.42 84.027 362.334 84.3161 362.071 84.8323C361.81 85.3508 361.55 85.6423 361.096 86.0653C360.642 86.4883 360.3 86.6961 359.798 86.9494C359.296 87.2003 359.005 87.2983 358.592 87.3222C358.178 87.3437 357.985 87.3127 357.736 87.0618C357.485 86.8085 357.425 86.5934 357.344 86.0605C357.263 85.5276 357.218 85.1597 357.327 84.3926C357.437 83.6255 357.55 83.1357 357.889 82.23C358.228 81.322 358.503 80.7772 359.024 79.8548C359.547 78.9324 359.875 78.4258 360.498 77.6134C361.122 76.8033 361.509 76.4186 362.145 75.8021C362.781 75.1856 363.072 74.9538 363.679 74.5308C364.284 74.1079 364.604 73.9693 365.172 73.6897C365.744 73.4125 366.006 73.3575 366.527 73.1377C367.048 72.9178 367.287 72.8462 367.775 72.5929C368.262 72.342 368.518 72.2034 368.965 71.8736C369.412 71.5438 369.629 71.3527 370.009 70.9488C370.387 70.545 370.561 70.3347 370.862 69.8568C371.161 69.3789 371.328 69.0515 371.507 68.5569C371.686 68.0622 371.753 67.7468 371.761 67.3836C371.77 67.0204 371.677 66.8268 371.545 66.7456C371.414 66.6643 371.254 66.6476 371.103 66.9774C370.955 67.3095 370.886 67.6058 370.802 68.3992C370.719 69.1925 370.743 69.7708 370.685 70.9441C370.628 72.1197 370.599 72.8653 370.518 74.2751C370.437 75.6826 370.379 76.5619 370.284 77.9909C370.186 79.4223 370.117 80.1965 370.035 81.4247C369.952 82.653 369.909 83.2814 369.866 84.1345C369.825 84.9876 369.803 85.3221 369.823 85.6901C369.842 86.0557 369.916 86.0868 369.959 85.9673C370.004 85.8502 370.074 85.6041 370.04 85.0975C370.007 84.5909 369.947 84.113 369.789 83.4392C369.634 82.7653 369.443 82.3137 369.256 81.7258C369.067 81.138 368.941 80.8799 368.848 80.4976C368.754 80.1152 368.704 80.0125 368.786 79.8142C368.864 79.6182 368.931 79.6302 369.247 79.5131C369.562 79.396 369.813 79.3984 370.36 79.2311C370.91 79.0638 371.268 78.93 371.99 78.6719C372.709 78.4139 373.125 78.2323 373.961 77.9407C374.798 77.6492 375.3 77.5011 376.174 77.2191C377.046 76.9371 377.524 76.7746 378.332 76.5309C379.14 76.2872 379.56 76.1701 380.21 75.9956C380.862 75.8236 381.185 75.7423 381.584 75.6635C381.981 75.5846 382.117 75.5273 382.196 75.6013C382.277 75.6778 382.186 75.7328 381.981 76.0386C381.775 76.3469 381.527 76.5643 381.171 77.1402C380.815 77.7161 380.595 78.1295 380.201 78.9205C379.809 79.7138 379.546 80.218 379.206 81.0974C378.865 81.9791 378.662 82.5024 378.497 83.3292C378.332 84.1536 378.275 84.6053 378.382 85.2266C378.487 85.8478 378.671 86.1442 379.027 86.4333C379.383 86.72 379.684 86.7798 380.158 86.6627C380.631 86.5432 380.939 86.3449 381.391 85.8407C381.842 85.3365 382.086 84.9398 382.42 84.1393C382.755 83.3388 382.91 82.7868 383.063 81.8405C383.216 80.8943 383.25 80.3303 383.185 79.4055C383.118 78.4832 383.023 77.979 382.736 77.2215C382.452 76.464 382.198 76.1055 381.761 75.6181C381.324 75.133 380.991 74.9538 380.549 74.7913C380.107 74.6288 379.782 74.679 379.546 74.808C379.312 74.9394 379.278 75.1879 379.371 75.4436C379.462 75.7017 379.606 75.8976 380.007 76.096C380.406 76.2943 380.745 76.4018 381.371 76.4377C381.997 76.4735 382.399 76.409 383.137 76.2728C383.873 76.139 384.332 75.9693 385.056 75.7638C385.78 75.5607 386.146 75.3958 386.76 75.2501C387.374 75.1019 387.697 75.0039 388.127 75.0278C388.559 75.0517 388.698 75.0613 388.915 75.3672C389.13 75.6754 389.138 75.9239 389.212 76.5596C389.288 77.1952 389.305 77.6612 389.29 78.5477C389.276 79.4318 389.221 80.0149 389.138 80.9898C389.052 81.9624 388.927 82.5693 388.87 83.4153C388.81 84.2612 388.765 84.7534 388.848 85.2194C388.932 85.6854 389.056 85.8311 389.283 85.7427C389.51 85.6543 389.711 85.4273 389.981 84.7773C390.251 84.1273 390.354 83.5323 390.633 82.4953C390.913 81.4582 391.071 80.7079 391.384 79.5895C391.697 78.4712 391.888 77.826 392.199 76.8989C392.509 75.9717 392.727 75.5559 392.937 74.9514C393.147 74.3468 393.183 74.1222 393.248 73.8761C393.312 73.6299 393.272 73.6395 393.257 73.716C393.24 73.7924 393.164 73.9549 393.174 74.2584C393.183 74.5619 393.174 74.8319 393.303 75.2333C393.429 75.6324 393.556 75.8976 393.816 76.2609C394.077 76.6241 394.227 76.8129 394.598 77.0446C394.971 77.274 395.193 77.3744 395.678 77.4174C396.163 77.458 396.476 77.4556 397.026 77.2501C397.575 77.0446 397.912 76.8224 398.426 76.3875C398.94 75.955 399.219 75.5966 399.594 75.0852C399.967 74.5714 400.134 74.1891 400.292 73.8235C400.45 73.4579 400.426 73.2452 400.383 73.2524C400.34 73.2596 400.151 73.3886 400.079 73.8593C400.008 74.3301 399.967 74.808 400.024 75.6085C400.082 76.409 400.158 76.9753 400.366 77.8667C400.572 78.758 400.677 79.3028 401.054 80.0651C401.432 80.8273 401.702 81.2145 402.254 81.6733C402.804 82.1321 403.143 82.285 403.807 82.3567C404.474 82.4308 404.89 82.3567 405.58 82.0413C406.268 81.7258 406.608 81.408 407.255 80.7819C407.903 80.1559 408.233 79.6995 408.813 78.9061C409.392 78.1128 409.671 77.6086 410.154 76.8152C410.634 76.0219 410.935 75.5105 411.22 74.937C411.502 74.3659 411.502 74.0768 411.566 73.9573C411.631 73.8378 411.549 73.9047 411.54 74.3372C411.53 74.7722 411.53 75.1473 411.516 76.1223C411.502 77.0972 411.485 77.7926 411.466 79.2096C411.449 80.6266 411.454 81.4988 411.428 83.205C411.399 84.9111 411.406 85.9004 411.327 87.7404C411.246 89.5804 411.215 90.5983 411.024 92.4072C410.83 94.2162 410.723 95.1553 410.359 96.7873C409.999 98.4218 409.752 99.2534 409.212 100.575C408.675 101.896 408.345 102.508 407.669 103.395C406.992 104.281 406.55 104.649 405.831 105.007C405.109 105.368 404.715 105.373 404.065 105.196C403.413 105.019 403.069 104.69 402.574 104.123C402.079 103.559 401.888 103.05 401.594 102.372C401.3 101.693 401.243 101.268 401.105 100.728C400.966 100.19 400.851 100.006 400.899 99.6763C400.947 99.349 401.03 99.2988 401.344 99.0813C401.657 98.8663 401.891 98.8185 402.464 98.5939C403.035 98.3668 403.389 98.2641 404.201 97.9534C405.014 97.6452 405.52 97.4851 406.524 97.043C407.528 96.6009 408.218 96.2688 409.22 95.7407C410.218 95.2126 410.766 94.8924 411.528 94.4025C412.288 93.9127 412.756 93.559 413.024 93.2914C413.294 93.0214 413.224 92.921 412.873 93.0572C412.52 93.1934 412.046 93.5303 411.267 93.9724C410.486 94.4145 409.965 94.7586 408.973 95.27C407.982 95.7813 407.303 96.1182 406.304 96.5316C405.308 96.945 404.811 97.0645 403.982 97.3345C403.155 97.6046 402.772 97.6237 402.17 97.8841C401.568 98.1446 401.329 98.3023 400.976 98.6393C400.622 98.9786 400.512 99.1291 400.402 99.576C400.292 100.023 400.316 100.259 400.426 100.876C400.538 101.492 400.619 101.925 400.961 102.659C401.3 103.39 401.535 103.925 402.13 104.534C402.727 105.146 403.157 105.533 403.939 105.71C404.72 105.887 405.229 105.832 406.037 105.416C406.844 105 407.282 104.57 407.979 103.626C408.677 102.685 408.988 102.054 409.521 100.699C410.056 99.3442 410.295 98.5054 410.653 96.8519C411.009 95.2007 411.117 94.2568 411.31 92.4383C411.506 90.6174 411.535 89.5995 411.628 87.7547C411.721 85.91 411.714 84.9183 411.772 83.2121C411.829 81.506 411.846 80.6386 411.915 79.2239C411.982 77.8069 412.089 77.1235 412.113 76.1342C412.137 75.1425 412.161 74.7506 412.032 74.2727C411.901 73.7972 411.745 73.6921 411.461 73.7542C411.177 73.8163 410.976 74.0338 410.608 74.5834C410.24 75.133 410.07 75.7041 409.616 76.4998C409.162 77.2956 408.895 77.7902 408.335 78.5572C407.776 79.3219 407.427 79.752 406.82 80.3279C406.211 80.9038 405.886 81.1499 405.296 81.4343C404.706 81.721 404.395 81.8047 403.872 81.7521C403.348 81.7019 403.121 81.5753 402.677 81.181C402.23 80.7843 401.967 80.4737 401.645 79.7807C401.324 79.0877 401.226 78.5668 401.071 77.7185C400.916 76.8726 400.93 76.3182 400.866 75.544C400.803 74.7698 400.839 74.3349 400.756 73.8522C400.672 73.3695 400.648 73.2165 400.452 73.1353C400.256 73.0517 400.089 73.1664 399.776 73.4435C399.461 73.7231 399.265 74.0696 398.88 74.526C398.493 74.9824 398.278 75.3337 397.848 75.7328C397.417 76.1318 397.15 76.323 396.724 76.5213C396.299 76.7197 396.07 76.7316 395.718 76.7244C395.37 76.7173 395.212 76.6623 394.975 76.4831C394.736 76.3063 394.674 76.1509 394.528 75.8331C394.383 75.5177 394.378 75.262 394.242 74.9036C394.105 74.5475 394.017 74.3181 393.847 74.0481C393.678 73.7805 393.58 73.6299 393.396 73.5583C393.209 73.4866 393.135 73.4555 392.92 73.6873C392.708 73.9215 392.579 74.1126 392.33 74.722C392.079 75.3289 391.972 75.7877 391.675 76.7292C391.381 77.6731 391.185 78.3183 390.853 79.4366C390.521 80.5549 390.325 81.2957 390.015 82.3184C389.704 83.3412 389.472 83.8884 389.3 84.5479C389.128 85.2074 389.145 85.4846 389.157 85.6185C389.166 85.7523 389.279 85.6471 389.357 85.217C389.434 84.7869 389.467 84.3066 389.549 83.4702C389.627 82.6363 389.673 82.0221 389.754 81.0424C389.835 80.0603 389.919 79.4844 389.957 78.5668C389.995 77.6492 390.069 77.1593 389.945 76.452C389.823 75.7423 389.69 75.4317 389.341 75.0278C388.994 74.624 388.755 74.538 388.208 74.4304C387.658 74.3253 387.274 74.3755 386.602 74.495C385.933 74.6144 385.575 74.8391 384.855 75.0278C384.134 75.2166 383.689 75.3433 383.001 75.4412C382.311 75.5392 381.957 75.5296 381.407 75.5177C380.858 75.5058 380.597 75.4412 380.253 75.3839C379.909 75.3241 379.809 75.2716 379.687 75.2238C379.565 75.176 379.522 75.1186 379.646 75.1449C379.768 75.1688 379.974 75.164 380.296 75.348C380.619 75.5344 380.886 75.6467 381.257 76.0673C381.625 76.4879 381.88 76.7722 382.146 77.4485C382.411 78.1247 382.526 78.5907 382.585 79.4486C382.645 80.304 382.609 80.8512 382.444 81.733C382.282 82.6124 382.093 83.1309 381.763 83.8525C381.434 84.5742 381.149 84.8801 380.793 85.3413C380.437 85.8001 380.272 86.0056 379.981 86.1561C379.689 86.3043 379.527 86.2899 379.333 86.0868C379.142 85.8861 379.054 85.671 379.013 85.1453C378.972 84.6196 378.977 84.2205 379.135 83.4583C379.292 82.696 379.457 82.1727 379.797 81.3339C380.138 80.4928 380.413 80.0077 380.839 79.2598C381.262 78.5095 381.582 78.1821 381.921 77.5847C382.26 76.9873 382.435 76.7053 382.535 76.268C382.638 75.8307 382.628 75.63 382.43 75.3934C382.232 75.1569 382.021 75.1043 381.543 75.0876C381.063 75.0709 380.712 75.1354 380.033 75.305C379.352 75.4771 378.953 75.673 378.143 75.9407C377.335 76.2083 376.867 76.3684 375.99 76.6432C375.113 76.9204 374.609 77.0614 373.761 77.3194C372.91 77.5775 372.48 77.7113 371.744 77.9336C371.01 78.1582 370.647 78.2299 370.09 78.4378C369.533 78.648 369.302 78.7389 368.958 78.9778C368.616 79.2168 368.52 79.3147 368.372 79.6326C368.224 79.9504 368.219 80.1057 368.222 80.5669C368.222 81.0305 368.262 81.3172 368.372 81.9433C368.484 82.5693 368.587 83.0329 368.771 83.6996C368.958 84.3663 369.091 84.8108 369.302 85.2815C369.512 85.7547 369.639 85.9673 369.823 86.0605C370.004 86.1513 370.1 86.1203 370.214 85.7403C370.329 85.3628 370.351 85.0211 370.398 84.1632C370.446 83.3053 370.401 82.6769 370.458 81.4486C370.516 80.2204 370.582 79.4486 370.68 78.0196C370.778 76.5906 370.841 75.7089 370.95 74.3038C371.063 72.8963 371.115 72.1532 371.237 70.9871C371.361 69.8233 371.491 69.2594 371.569 68.478C371.648 67.6942 371.66 67.417 371.634 67.0753C371.608 66.7336 371.543 66.736 371.436 66.7695C371.328 66.8005 371.24 66.9367 371.099 67.2354C370.96 67.5341 370.917 67.8185 370.738 68.2629C370.559 68.7074 370.453 69.0204 370.2 69.4577C369.947 69.895 369.803 70.0814 369.469 70.447C369.134 70.8126 368.929 70.9799 368.525 71.2858C368.121 71.594 367.901 71.7374 367.45 71.9859C366.998 72.2344 366.783 72.3061 366.267 72.526C365.751 72.7482 365.462 72.7888 364.874 73.0923C364.286 73.3981 363.949 73.5798 363.328 74.0457C362.706 74.5117 362.415 74.7674 361.767 75.4197C361.12 76.0697 360.73 76.4664 360.092 77.3027C359.452 78.1367 359.12 78.6504 358.57 79.5943C358.02 80.5358 357.729 81.0759 357.344 82.015C356.962 82.9541 356.787 83.4511 356.649 84.2875C356.51 85.1238 356.508 85.5563 356.649 86.1919C356.787 86.83 356.957 87.1191 357.344 87.4704C357.731 87.824 358.03 87.9172 358.584 87.9531C359.139 87.9865 359.509 87.9077 360.121 87.6448C360.73 87.382 361.12 87.1382 361.638 86.6364C362.157 86.1346 362.429 85.7714 362.714 85.1358C362.996 84.4977 363.077 84.1274 363.053 83.4535C363.029 82.7796 362.921 82.4188 362.594 81.7665C362.264 81.1141 361.951 80.7915 361.411 80.1893C360.871 79.5895 360.498 79.3076 359.892 78.758C359.282 78.206 358.924 77.936 358.369 77.4341C357.815 76.9323 357.523 76.6623 357.122 76.2513C356.718 75.8379 356.532 75.6802 356.36 75.3719C356.185 75.0613 356.209 74.9418 356.259 74.7052C356.312 74.4687 356.393 74.3492 356.618 74.1891C356.842 74.0266 357.043 73.9716 357.38 73.8952C357.717 73.8187 357.939 73.8522 358.302 73.8092C358.663 73.7685 358.89 73.7399 359.189 73.6849C359.49 73.6299 359.669 73.6299 359.796 73.5367C359.923 73.4412 359.946 73.3312 359.825 73.2142Z" fill="#FFD335" stroke="#FFD335"/>
<path d="M429.127 71.2307C428.948 71.1662 428.688 71.1447 428.298 71.2307C427.909 71.3167 427.663 71.3812 427.182 71.6584C426.702 71.9356 426.339 72.1435 425.901 72.6143C425.462 73.0826 425.259 73.4076 424.991 74.005C424.721 74.6 424.594 74.9584 424.554 75.5941C424.513 76.2321 424.532 76.569 424.79 77.1855C425.046 77.802 425.311 78.139 425.832 78.6814C426.351 79.2238 426.726 79.4437 427.388 79.8953C428.05 80.3445 428.482 80.5285 429.139 80.9372C429.799 81.3458 430.162 81.5465 430.676 81.9384C431.19 82.3327 431.474 82.4976 431.706 82.9062C431.935 83.3172 431.94 83.5561 431.83 83.991C431.72 84.4259 431.562 84.6625 431.154 85.0855C430.745 85.5108 430.415 85.7617 429.789 86.1106C429.166 86.4595 428.709 86.6387 428.033 86.8322C427.357 87.0234 426.979 87.0832 426.41 87.076C425.842 87.0688 425.519 87.0545 425.189 86.8012C424.86 86.5479 424.774 86.3448 424.766 85.8119C424.759 85.2814 424.831 84.9445 425.151 84.1392C425.471 83.3315 425.713 82.8154 426.365 81.7783C427.017 80.7412 427.502 80.1343 428.41 78.9538C429.316 77.771 429.88 77.1258 430.896 75.8665C431.911 74.6072 432.504 73.9214 433.486 72.6597C434.468 71.3956 434.977 70.7384 435.806 69.5532C436.638 68.3656 437.037 67.7395 437.637 66.7287C438.236 65.7179 438.533 65.2352 438.805 64.4969C439.075 63.7585 439.085 63.4144 438.994 63.0392C438.903 62.6641 438.698 62.5111 438.349 62.6163C438.002 62.719 437.677 62.9269 437.257 63.5601C436.834 64.1958 436.638 64.6594 436.239 65.792C435.84 66.9223 435.622 67.6774 435.259 69.2139C434.896 70.748 434.705 71.7397 434.427 73.4649C434.15 75.1902 434.045 76.1723 433.873 77.8355C433.701 79.4986 433.601 80.421 433.57 81.7807C433.536 83.1427 433.536 83.7951 433.711 84.6434C433.885 85.4941 434.062 85.8143 434.442 86.0317C434.819 86.2492 435.13 86.1417 435.608 85.7307C436.083 85.3196 436.341 84.825 436.822 83.9719C437.3 83.1188 437.563 82.4498 438.005 81.4653C438.449 80.4831 438.69 79.8618 439.039 79.0542C439.386 78.2465 439.551 77.8307 439.744 77.4269C439.938 77.0254 439.938 76.9346 440 77.0445C440.064 77.1521 440.014 77.4245 440.057 77.9693C440.1 78.5141 440.103 78.9873 440.222 79.7663C440.342 80.5477 440.409 81.0853 440.657 81.8715C440.903 82.66 441.039 83.1714 441.46 83.7019C441.88 84.23 442.184 84.4283 442.76 84.5215C443.333 84.6123 443.685 84.5287 444.337 84.1583C444.989 83.7855 445.321 83.4008 446.019 82.6648C446.719 81.9288 447.111 81.3864 447.828 80.4784C448.543 79.5727 448.939 78.9896 449.599 78.1318C450.261 77.2763 450.636 76.8319 451.128 76.1962C451.62 75.5606 451.874 75.2691 452.065 74.9489C452.256 74.6287 452.249 74.5235 452.089 74.5952C451.929 74.6669 451.628 74.772 451.264 75.3049C450.901 75.8378 450.655 76.3277 450.273 77.2572C449.89 78.1844 449.651 78.8463 449.353 79.9455C449.054 81.0447 448.889 81.6923 448.782 82.7508C448.672 83.8094 448.669 84.402 448.805 85.236C448.939 86.0676 449.092 86.4523 449.453 86.9135C449.811 87.3771 450.105 87.5157 450.605 87.5443C451.102 87.573 451.465 87.4798 451.945 87.0569C452.428 86.6363 452.662 86.2301 453.014 85.4343C453.362 84.6386 453.501 84.0986 453.702 83.083C453.902 82.065 453.993 81.4437 454.012 80.3493C454.034 79.2549 453.988 78.624 453.8 77.6156C453.611 76.6049 453.413 76.072 453.066 75.3001C452.72 74.5283 452.476 74.1794 452.07 73.7541C451.663 73.3287 451.353 73.2475 451.03 73.1734C450.708 73.0993 450.504 73.2308 450.459 73.3789C450.416 73.5271 450.485 73.7182 450.81 73.9118C451.135 74.1077 451.434 74.275 452.084 74.3539C452.736 74.4303 453.214 74.3802 454.067 74.2965C454.92 74.2153 455.425 74.0958 456.354 73.9405C457.281 73.7852 457.831 73.6633 458.71 73.5223C459.59 73.3789 460.065 73.2714 460.751 73.2284C461.434 73.183 461.714 73.14 462.13 73.3025C462.546 73.4649 462.67 73.594 462.832 74.0384C462.995 74.4853 462.985 74.8103 462.945 75.5295C462.902 76.2488 462.785 76.7841 462.627 77.6324C462.469 78.4831 462.347 78.9944 462.156 79.783C461.967 80.5692 461.79 81.0256 461.678 81.5728C461.566 82.12 461.549 82.3852 461.599 82.5167C461.649 82.6505 461.776 82.5931 461.931 82.2323C462.089 81.8739 462.192 81.4844 462.378 80.7197C462.565 79.955 462.641 79.3576 462.863 78.409C463.086 77.4579 463.224 76.8558 463.492 75.974C463.757 75.0922 463.932 74.655 464.192 73.9978C464.455 73.3431 464.55 73.0731 464.794 72.6955C465.04 72.3203 465.129 72.2654 465.418 72.1172C465.705 71.9691 465.838 72.0169 466.24 71.9523C466.641 71.8902 466.883 71.938 467.425 71.8018C467.968 71.6656 468.314 71.6298 468.952 71.2737C469.592 70.9153 469.927 70.6309 470.62 70.012C471.313 69.3931 471.719 69.0538 472.417 68.1792C473.115 67.3022 473.473 66.7383 474.111 65.6343C474.747 64.5303 475.062 63.7895 475.602 62.6593C476.14 61.529 476.434 60.9268 476.809 59.9829C477.184 59.0391 477.361 58.4751 477.478 57.9399C477.593 57.4022 477.495 57.1848 477.385 57.2971C477.275 57.4094 477.129 57.6698 476.928 58.5014C476.728 59.3306 476.637 59.9973 476.379 61.4454C476.118 62.8958 475.93 63.8684 475.636 65.7466C475.344 67.6248 475.194 68.8148 474.914 70.8412C474.634 72.8652 474.453 74.0217 474.235 75.8665C474.018 77.7136 473.93 78.6838 473.827 80.0697C473.726 81.4557 473.655 82.1606 473.726 82.801C473.798 83.439 474.03 83.3793 474.188 83.2622C474.345 83.1427 474.458 82.7054 474.513 82.206C474.568 81.7066 474.579 81.0495 474.46 80.7603C474.341 80.4712 474.035 80.4736 473.915 80.7603C473.793 81.0471 473.824 81.6994 473.858 82.1917C473.889 82.6816 474.013 83.0973 474.075 83.2168C474.137 83.3339 474.142 83.408 474.164 82.7819C474.185 82.1582 474.111 81.4676 474.183 80.0912C474.254 78.7149 474.321 77.7423 474.525 75.8999C474.728 74.0576 474.912 72.901 475.201 70.8794C475.488 68.8602 475.643 67.6702 475.965 65.7992C476.286 63.9305 476.505 62.9675 476.807 61.529C477.108 60.0905 477.327 59.4572 477.468 58.6113C477.612 57.7654 477.609 57.4715 477.516 57.3042C477.423 57.1394 477.241 57.2803 477.003 57.7774C476.764 58.2744 476.682 58.8527 476.321 59.7918C475.958 60.7285 475.715 61.3426 475.194 62.4657C474.673 63.5888 474.35 64.3272 473.717 65.4049C473.084 66.4826 472.723 67.0298 472.025 67.8566C471.327 68.6858 470.914 68.9988 470.226 69.546C469.54 70.0933 469.191 70.2892 468.589 70.5927C467.989 70.8962 467.724 70.9153 467.224 71.061C466.725 71.2092 466.507 71.2044 466.096 71.3263C465.685 71.4481 465.518 71.4601 465.167 71.668C464.813 71.8759 464.651 71.9523 464.333 72.3681C464.015 72.7863 463.869 73.0635 463.583 73.7493C463.296 74.4327 463.176 74.8963 462.897 75.7924C462.62 76.6909 462.448 77.2859 462.187 78.2369C461.927 79.188 461.745 79.7663 461.595 80.55C461.442 81.3314 461.399 81.7377 461.427 82.1487C461.456 82.5621 461.554 82.6815 461.738 82.6075C461.922 82.531 462.123 82.3088 462.345 81.7783C462.567 81.2454 462.655 80.7508 462.847 79.9479C463.038 79.1426 463.138 78.636 463.303 77.759C463.466 76.8797 463.645 76.3468 463.659 75.5558C463.673 74.7673 463.635 74.361 463.372 73.809C463.109 73.2571 462.878 73.0492 462.347 72.8006C461.817 72.5521 461.468 72.545 460.72 72.5689C459.972 72.5904 459.501 72.7648 458.61 72.9153C457.716 73.0635 457.176 73.1901 456.259 73.3168C455.341 73.4411 454.837 73.5223 454.02 73.5438C453.202 73.5653 452.779 73.4697 452.175 73.4243C451.57 73.3789 451.319 73.324 450.994 73.3192C450.667 73.312 450.576 73.3407 450.55 73.3957C450.521 73.4482 450.641 73.4291 450.853 73.5844C451.064 73.7421 451.272 73.7804 451.608 74.1747C451.943 74.5665 452.192 74.8413 452.526 75.5487C452.861 76.256 453.088 76.7578 453.281 77.716C453.472 78.6742 453.518 79.2883 453.489 80.3374C453.458 81.3864 453.353 81.9981 453.133 82.9611C452.913 83.9265 452.72 84.4331 452.39 85.1548C452.06 85.8788 451.838 86.1942 451.484 86.5789C451.128 86.9613 450.937 87.0712 450.617 87.076C450.297 87.0808 450.132 86.99 449.883 86.6052C449.637 86.2181 449.494 85.9051 449.379 85.1452C449.264 84.3853 449.205 83.8142 449.307 82.8058C449.41 81.795 449.57 81.1546 449.89 80.0984C450.211 79.0446 450.5 78.4138 450.906 77.532C451.312 76.6479 451.651 76.2536 451.921 75.6825C452.192 75.1114 452.292 74.8796 452.261 74.6741C452.227 74.471 452.082 74.4327 451.757 74.6597C451.434 74.8867 451.157 75.1783 450.643 75.8091C450.127 76.44 449.828 76.949 449.181 77.8164C448.535 78.6838 448.129 79.2597 447.412 80.1486C446.695 81.0351 446.28 81.5632 445.596 82.2538C444.915 82.9444 444.552 83.2455 444 83.5968C443.448 83.9456 443.235 84.0627 442.836 84.0054C442.44 83.9504 442.296 83.7808 442.01 83.3124C441.723 82.8417 441.589 82.3948 441.398 81.6588C441.207 80.9228 441.18 80.3995 441.054 79.6324C440.925 78.8678 440.939 78.3875 440.757 77.8283C440.576 77.2668 440.432 76.9729 440.146 76.8366C439.859 76.7004 439.661 76.7554 439.324 77.1473C438.987 77.5392 438.834 77.9836 438.459 78.7961C438.083 79.6109 437.885 80.2394 437.445 81.2143C437.006 82.1869 436.707 82.8369 436.263 83.6637C435.816 84.4928 435.548 84.9277 435.216 85.3531C434.884 85.7761 434.807 85.9457 434.597 85.7856C434.389 85.6279 434.298 85.3603 434.167 84.5598C434.036 83.7592 433.933 83.126 433.94 81.7878C433.947 80.4497 434.038 79.5225 434.2 77.8689C434.365 76.2153 434.473 75.2308 434.76 73.5199C435.049 71.8066 435.247 70.8173 435.641 69.3071C436.033 67.7993 436.284 67.0537 436.726 65.976C437.166 64.9007 437.484 64.5399 437.84 63.9258C438.198 63.314 438.349 63.0846 438.511 62.9126C438.674 62.7405 438.695 62.7859 438.652 63.0655C438.609 63.3427 438.573 63.6103 438.299 64.3033C438.024 64.9939 437.835 65.5148 437.278 66.5232C436.721 67.534 436.327 68.1649 435.517 69.3525C434.705 70.5377 434.2 71.1949 433.223 72.4542C432.243 73.7135 431.651 74.3969 430.626 75.649C429.603 76.9012 429.034 77.5392 428.102 78.7148C427.173 79.8881 426.668 80.4808 425.971 81.5202C425.273 82.5621 424.979 83.0543 424.613 83.9193C424.25 84.782 424.104 85.1763 424.147 85.8382C424.19 86.5025 424.384 86.8466 424.831 87.2361C425.275 87.6232 425.691 87.7164 426.372 87.7785C427.051 87.8406 427.471 87.7475 428.229 87.5443C428.986 87.3436 429.464 87.1596 430.16 86.7677C430.855 86.3758 431.249 86.113 431.703 85.5849C432.16 85.0544 432.322 84.7127 432.432 84.1201C432.542 83.5275 432.513 83.1762 432.253 82.6266C431.992 82.077 431.679 81.8285 431.13 81.3721C430.58 80.9156 430.174 80.7579 429.505 80.3469C428.838 79.9359 428.415 79.7495 427.787 79.3146C427.156 78.8797 426.829 78.6527 426.358 78.1724C425.889 77.6921 425.66 77.4125 425.44 76.9083C425.22 76.4041 425.201 76.1628 425.256 75.6514C425.309 75.14 425.452 74.839 425.708 74.3515C425.964 73.864 426.145 73.6107 426.532 73.2164C426.917 72.8222 427.235 72.6549 427.634 72.3849C428.033 72.1148 428.214 72.036 428.528 71.8687C428.838 71.7014 429.075 71.6775 429.197 71.5509C429.316 71.4243 429.307 71.2952 429.127 71.2307Z" fill="#FFD335" stroke="#FFD335"/>
<path d="M471.182 77.5035C471.206 77.4772 471.049 77.5203 471.084 77.5561C471.118 77.5896 471.111 77.666 471.354 77.6756C471.601 77.6851 471.739 77.6875 472.31 77.6015C472.881 77.5179 473.335 77.4008 474.212 77.2526C475.089 77.1069 475.801 76.9778 476.69 76.8703C477.582 76.7628 477.99 76.7652 478.664 76.7102C479.336 76.6576 479.771 76.672 480.053 76.5979C480.332 76.5214 480.344 76.4354 480.064 76.3326C479.785 76.2275 479.343 76.108 478.652 76.0746C477.964 76.0411 477.529 76.0889 476.619 76.1654C475.708 76.2418 474.991 76.3494 474.1 76.4545C473.206 76.5596 472.736 76.5788 472.155 76.6911C471.572 76.8034 471.448 76.8775 471.19 77.0137C470.929 77.1499 470.9 77.2407 470.857 77.3721C470.812 77.5059 470.898 77.6541 470.965 77.6804C471.029 77.7066 471.158 77.5274 471.182 77.5035Z" fill="#FFD335" stroke="#FFD335"/>
</g>
<defs>
<clipPath id="clip0_433_1662">
<rect width="196.702" height="50" fill="white" transform="translate(282 57.2385)"/>
</clipPath>
</defs>
</svg>
